{
.appVersion = "3189";
copyright = "Copyright 2023 The Vina Sans Project Authors (https://github.com/nguyentype/vinasans)";
customParameters = (
{
name = fsType;
value = (
);
},
{
name = "Use Typo Metrics";
value = 1;
},
{
name = license;
value = "This Font Software is licensed under the SIL Open Font License, Version 1.1. This license is available with a FAQ at: https://scripts.sil.org/OFL";
},
{
name = licenseURL;
value = "https://scripts.sil.org/OFL";
},
{
name = Axes;
value = (
{
Name = Weight;
Tag = wght;
}
);
}
);
date = "2023-02-11 09:03:12 +0000";
designer = "Andree Nguyen";
designerURL = "https://ngmtuan.work/";
familyName = "Vina Sans";
featurePrefixes = (
{
automatic = 1;
code = "languagesystem DFLT dflt;\012\012languagesystem latn dflt;\012languagesystem latn AZE;\012languagesystem latn CRT;\012languagesystem latn KAZ;\012languagesystem latn TAT;\012languagesystem latn TRK;\012languagesystem latn ROM;\012languagesystem latn MOL;\012languagesystem latn CAT;\012";
name = Languagesystems;
}
);
features = (
{
automatic = 1;
code = "feature locl;\012feature ordn;\012feature case;\012";
name = aalt;
},
{
automatic = 1;

glyphs = (
{
glyphname = A;
lastChange = "2023-04-27 11:52:59 +0000";
layers = (
{
anchors = (
{
name = bottom;
position = "{205, 0}";
},
{
name = ogonek;
position = "{369, 10}";
},
{
name = top;
position = "{205, 700}";
}
);
background = {
paths = (
{
closed = 1;
nodes = (
"171 0 LINE",
"178 129 LINE",
"231 129 LINE",
"240 0 LINE",
"380 0 LINE",
"295 700 LINE",
"115 700 LINE",
"30 0 LINE"
);
},
{
closed = 1;
nodes = (
"197 500 LINE",
"214 500 LINE",
"224 279 LINE",
"186 279 LINE"
);
}
);
};
guideLines = (
{
position = "{459, 175}";
},
{
angle = 87.0233;
position = "{171, 0}";
}
);
layerId = "96BCCF85-5232-4835-A4EF-A1D5F093B6B0";
paths = (
{
closed = 1;
nodes = (
"171 0 LINE",
"178 129 LINE",
"231 129 LINE",
"240 0 LINE",
"380 0 LINE",
"295 700 LINE",
"115 700 LINE",
"30 0 LINE"
);
},
{
closed = 1;
nodes = (
"197 500 LINE",
"214 500 LINE",
"224 279 LINE",
"186 279 LINE"
);
}
);
width = 410;
},
{
anchors = (
{
name = bottom;
position = "{205, 0}";
},
{
name = ogonek;
position = "{369, 10}";
},
{
name = top;
position = "{205, 700}";
}
);
background = {
paths = (
{
closed = 1;
nodes = (
"171 0 LINE",
"178 129 LINE",
"231 129 LINE",
"240 0 LINE",
"380 0 LINE",
"295 700 LINE",
"115 700 LINE",
"30 0 LINE"
);
},
{
closed = 1;
nodes = (
"197 500 LINE",
"214 500 LINE",
"224 279 LINE",
"186 279 LINE"
);
}
);
};
guideLines = (
{
position = "{459, 175}";
},
{
angle = 87.0233;
position = "{171, 0}";
}
);
layerId = m002;
paths = (
{
closed = 1;
nodes = (
"171 0 LINE",
"178 129 LINE",
"231 129 LINE",
"240 0 LINE",
"380 0 LINE",
"295 700 LINE",
"115 700 LINE",
"30 0 LINE"
);
},
{
closed = 1;
nodes = (
"197 500 LINE",
"214 500 LINE",
"224 279 LINE",
"186 279 LINE"
);
}
);
width = 410;
}
);
leftKerningGroup = a;
rightKerningGroup = a;
unicode = 0041;
},
{
glyphname = Aacute;
lastChange = "2023-04-27 11:52:18 +0000";
layers = (
{
background = {
paths = (
{
closed = 1;
nodes = (
"507 180 LINE",
"254 180 LINE",
"180 0 LINE",
"30 0 LINE",
"336 700 LINE",
"424 700 LINE",
"730 0 LINE",
"581 0 LINE"
);
},
{
closed = 1;
nodes = (
"453 311 LINE",
"387 470 LINE",
"374 470 LINE",
"308 311 LINE"
);
},
{
closed = 1;
nodes = (
"207 760 LINE",
"561 825 LINE",
"553 868 LINE",
"199 803 LINE"
);
}
);
};
components = (
{
alignment = -1;
name = A.big;
},
{
alignment = -1;
name = acutecomb;
transform = "{1, 0, 0, 1, 169, 0}";
}
);
guideLines = (
{
angle = 90;
position = "{414, 768}";
},
{
angle = 90;
position = "{438, 788}";
}
);
layerId = "96BCCF85-5232-4835-A4EF-A1D5F093B6B0";
width = 760;
},
{
background = {
paths = (
{
closed = 1;
nodes = (
"507 180 LINE",
"254 180 LINE",
"180 0 LINE",
"30 0 LINE",
"336 700 LINE",
"424 700 LINE",
"730 0 LINE",
"581 0 LINE"
);
},
{
closed = 1;
nodes = (
"453 311 LINE",
"387 470 LINE",
"374 470 LINE",
"308 311 LINE"
);
},
{
closed = 1;
nodes = (
"390 760 LINE",
"527 966 LINE",
"527 981 LINE",
"487 981 LINE",
"370 760 LINE"
);
}
);
};
components = (
{
alignment = -1;
name = A.big;
},
{
alignment = -1;
name = acutecomb;
transform = "{1, 0, 0, 1, 271, 200}";
}
);
guideLines = (
{
angle = 90;
position = "{414, 768}";
},
{
angle = 90;
position = "{438, 788}";
}
);
layerId = m002;
width = 760;
}
);
leftKerningGroup = A;
rightKerningGroup = A;
unicode = 00C1;
},
{
glyphname = Abreve;
lastChange = "2023-04-27 12:21:25 +0000";
layers = (
{
background = {
paths = (
{
closed = 1;
nodes = (
"507 180 LINE",
"254 180 LINE",
"180 0 LINE",
"30 0 LINE",
"336 700 LINE",
"424 700 LINE",
"730 0 LINE",
"581 0 LINE"
);
},
{
closed = 1;
nodes = (
"453 311 LINE",
"387 470 LINE",
"374 470 LINE",
"308 311 LINE"
);
},
{
closed = 1;
nodes = (
"486 760 OFFCURVE",
"570 810 OFFCURVE",
"570 871 CURVE",
"519 871 LINE",
"513 829 OFFCURVE",
"460 802 OFFCURVE",
"380 802 CURVE SMOOTH",
"303 802 OFFCURVE",
"247 829 OFFCURVE",
"240 871 CURVE",
"190 871 LINE",
"190 810 OFFCURVE",
"275 760 OFFCURVE",
"380 760 CURVE SMOOTH"
);
}
);
};
components = (
{
alignment = -1;
name = A.big;
},
{
alignment = -1;
name = brevecomb;
transform = "{1, 0, 0, 1, 100, 20}";
}
);
layerId = "96BCCF85-5232-4835-A4EF-A1D5F093B6B0";
width = 760;
},
{
background = {
paths = (
{
closed = 1;
nodes = (
"507 180 LINE",
"254 180 LINE",
"180 0 LINE",
"30 0 LINE",
"336 700 LINE",
"424 700 LINE",
"730 0 LINE",
"581 0 LINE"
);
},
{
closed = 1;
nodes = (
"453 311 LINE",
"387 470 LINE",
"374 470 LINE",
"308 311 LINE"
);
},
{
closed = 1;
nodes = (
"519 760 OFFCURVE",
"630 818 OFFCURVE",
"630 890 CURVE",
"598 890 LINE",
"599 837 OFFCURVE",
"519 790 OFFCURVE",
"380 790 CURVE SMOOTH",
"241 790 OFFCURVE",
"163 837 OFFCURVE",
"163 890 CURVE",
"130 890 LINE",
"130 818 OFFCURVE",
"241 760 OFFCURVE",
"380 760 CURVE SMOOTH"
);
}
);
};
components = (
{
alignment = -1;
name = A.big;
},
{
alignment = -1;
name = brevecomb;
transform = "{1, 0, 0, 1, 100, 1}";
}
);
layerId = m002;
width = 760;
}
);
leftKerningGroup = A;
rightKerningGroup = A;
unicode = 0102;
},
{
glyphname = Abreveacute;
lastChange = "2023-04-27 11:52:18 +0000";
layers = (
{
background = {
paths = (
{
closed = 1;
nodes = (
"507 180 LINE",
"254 180 LINE",
"180 0 LINE",
"30 0 LINE",
"336 700 LINE",
"424 700 LINE",
"730 0 LINE",
"581 0 LINE"
);
},
{
closed = 1;
nodes = (
"453 311 LINE",
"387 470 LINE",
"374 470 LINE",
"308 311 LINE"
);
},
{
closed = 1;
nodes = (
"342 868 LINE",
"557 968 LINE",
"538 1006 LINE",
"320 904 LINE"
);
},
{
closed = 1;
nodes = (
"486 760 OFFCURVE",
"570 810 OFFCURVE",
"570 871 CURVE",
"519 871 LINE",
"513 829 OFFCURVE",
"460 802 OFFCURVE",
"380 802 CURVE SMOOTH",
"303 802 OFFCURVE",
"247 829 OFFCURVE",
"240 871 CURVE",
"190 871 LINE",
"190 810 OFFCURVE",
"275 760 OFFCURVE",
"380 760 CURVE SMOOTH"
);
}
);
};
components = (
{
alignment = -1;
name = A.big;
},
{
alignment = -1;
name = brevecomb_acutecomb;
transform = "{1, 0, 0, 1, 100, 0}";
}
);
layerId = "96BCCF85-5232-4835-A4EF-A1D5F093B6B0";
width = 760;
},
{
background = {
paths = (
{
closed = 1;
nodes = (
"507 180 LINE",
"254 180 LINE",
"180 0 LINE",
"30 0 LINE",
"336 700 LINE",
"424 700 LINE",
"730 0 LINE",
"581 0 LINE"
);
},
{
closed = 1;
nodes = (
"453 311 LINE",
"387 470 LINE",
"374 470 LINE",
"308 311 LINE"
);
},
{
closed = 1;
nodes = (
"519 760 OFFCURVE",
"630 818 OFFCURVE",
"630 890 CURVE",
"598 890 LINE",
"599 837 OFFCURVE",
"519 790 OFFCURVE",
"380 790 CURVE SMOOTH",
"241 790 OFFCURVE",
"163 837 OFFCURVE",
"163 890 CURVE",
"130 890 LINE",
"130 818 OFFCURVE",
"241 760 OFFCURVE",
"380 760 CURVE SMOOTH"
);
},
{
closed = 1;
nodes = (
"370 830 LINE",
"507 1036 LINE",
"507 1051 LINE",
"467 1051 LINE",
"350 830 LINE"
);
}
);
};
components = (
{
alignment = -1;
name = A.big;
},
{
alignment = -1;
name = brevecomb_acutecomb;
transform = "{1, 0, 0, 1, 100, 0}";
}
);
layerId = m002;
width = 760;
}
);
leftKerningGroup = A;
rightKerningGroup = A;
unicode = 1EAE;
},
{
glyphname = Abrevedotbelow;
lastChange = "2023-04-27 12:21:34 +0000";
layers = (
{
background = {
paths = (
{
closed = 1;
nodes = (
"507 180 LINE",
"254 180 LINE",
"180 0 LINE",
"30 0 LINE",
"336 700 LINE",
"424 700 LINE",
"730 0 LINE",
"581 0 LINE"
);
},
{
closed = 1;
nodes = (
"453 311 LINE",
"387 470 LINE",
"374 470 LINE",
"308 311 LINE"
);
},
{
closed = 1;
nodes = (
"486 750 OFFCURVE",
"570 800 OFFCURVE",
"570 861 CURVE",
"519 861 LINE",
"513 819 OFFCURVE",
"460 792 OFFCURVE",
"380 792 CURVE SMOOTH",
"303 792 OFFCURVE",
"247 819 OFFCURVE",
"240 861 CURVE",
"190 861 LINE",
"190 800 OFFCURVE",
"275 750 OFFCURVE",
"380 750 CURVE SMOOTH"
);
},
{
closed = 1;
nodes = (
"460 -46 LINE",
"460 -137 LINE",
"300 -137 LINE",
"300 -46 LINE"
);
}
);
};
components = (
{
alignment = -1;
name = A.big;
},
{
alignment = -1;
name = brevecomb;
transform = "{1, 0, 0, 1, 100, 10}";
},
{
alignment = -1;
name = dotbelowcomb;
transform = "{1, 0, 0, 1, 270, 0}";
}
);
layerId = "96BCCF85-5232-4835-A4EF-A1D5F093B6B0";
width = 760;
},
{
background = {
paths = (
{
closed = 1;
nodes = (
"507 180 LINE",
"254 180 LINE",
"180 0 LINE",
"30 0 LINE",
"336 700 LINE",
"424 700 LINE",
"730 0 LINE",
"581 0 LINE"
);
},
{
closed = 1;
nodes = (
"453 311 LINE",
"387 470 LINE",
"374 470 LINE",
"308 311 LINE"
);
},
{
closed = 1;
nodes = (
"519 760 OFFCURVE",
"630 818 OFFCURVE",
"630 890 CURVE",
"598 890 LINE",
"599 837 OFFCURVE",
"519 790 OFFCURVE",
"380 790 CURVE SMOOTH",
"241 790 OFFCURVE",
"163 837 OFFCURVE",
"163 890 CURVE",
"130 890 LINE",
"130 818 OFFCURVE",
"241 760 OFFCURVE",
"380 760 CURVE SMOOTH"
);
},
{
closed = 1;
nodes = (
"460 -46 LINE",
"460 -137 LINE",
"300 -137 LINE",
"300 -46 LINE"
);
}
);
};
components = (
{
alignment = -1;
name = A.big;
},
{
alignment = -1;
name = brevecomb;
transform = "{1, 0, 0, 1, 100, 1}";
},
{
alignment = -1;
name = dotbelowcomb;
transform = "{1, 0, 0, 1, 270, 0}";
}
);
layerId = m002;
width = 760;
}
);
leftKerningGroup = A;
rightKerningGroup = A;
unicode = 1EB6;
},
{
glyphname = Abrevegrave;
lastChange = "2023-04-27 11:52:18 +0000";
layers = (
{
background = {
paths = (
{
closed = 1;
nodes = (
"507 180 LINE",
"254 180 LINE",
"180 0 LINE",
"30 0 LINE",
"336 700 LINE",
"424 700 LINE",
"730 0 LINE",
"581 0 LINE"
);
},
{
closed = 1;
nodes = (
"453 311 LINE",
"387 470 LINE",
"374 470 LINE",
"308 311 LINE"
);
},
{
closed = 1;
nodes = (
"242 1006 LINE",
"223 968 LINE",
"438 868 LINE",
"460 904 LINE"
);
},
{
closed = 1;
nodes = (
"486 760 OFFCURVE",
"570 810 OFFCURVE",
"570 871 CURVE",
"519 871 LINE",
"513 829 OFFCURVE",
"460 802 OFFCURVE",
"380 802 CURVE SMOOTH",
"303 802 OFFCURVE",
"247 829 OFFCURVE",
"240 871 CURVE",
"190 871 LINE",
"190 810 OFFCURVE",
"275 760 OFFCURVE",
"380 760 CURVE SMOOTH"
);
}
);
};
components = (
{
alignment = -1;
name = A.big;
},
{
alignment = -1;
name = brevecomb_gravecomb;
transform = "{1, 0, 0, 1, 100, 0}";
}
);
layerId = "96BCCF85-5232-4835-A4EF-A1D5F093B6B0";
width = 760;
},
{
background = {
paths = (
{
closed = 1;
nodes = (
"507 180 LINE",
"254 180 LINE",
"180 0 LINE",
"30 0 LINE",
"336 700 LINE",
"424 700 LINE",
"730 0 LINE",
"581 0 LINE"
);
},
{
closed = 1;
nodes = (
"453 311 LINE",
"387 470 LINE",
"374 470 LINE",
"308 311 LINE"
);
},
{
closed = 1;
nodes = (
"519 760 OFFCURVE",
"630 818 OFFCURVE",
"630 890 CURVE",
"598 890 LINE",
"599 837 OFFCURVE",
"519 790 OFFCURVE",
"380 790 CURVE SMOOTH",
"241 790 OFFCURVE",
"163 837 OFFCURVE",
"163 890 CURVE",
"130 890 LINE",
"130 818 OFFCURVE",
"241 760 OFFCURVE",
"380 760 CURVE SMOOTH"
);
},
{
closed = 1;
nodes = (
"300 1051 LINE",
"260 1051 LINE",
"260 1036 LINE",
"397 830 LINE",
"417 830 LINE"
);
}
);
};
components = (
{
alignment = -1;
name = A.big;
},
{
alignment = -1;
name = brevecomb_gravecomb;
transform = "{1, 0, 0, 1, 100, 200}";
}
);
layerId = m002;
width = 760;
}
);
leftKerningGroup = A;
rightKerningGroup = A;
unicode = 1EB0;
},
{
glyphname = Abrevehookabove;
lastChange = "2023-04-27 11:52:18 +0000";
layers = (
{
background = {
paths = (
{
closed = 1;
nodes = (
"507 180 LINE",
"254 180 LINE",
"180 0 LINE",
"30 0 LINE",
"336 700 LINE",
"424 700 LINE",
"730 0 LINE",
"581 0 LINE"
);
},
{
closed = 1;
nodes = (
"453 311 LINE",
"387 470 LINE",
"374 470 LINE",
"308 311 LINE"
);
},
{
closed = 1;
nodes = (
"486 750 OFFCURVE",
"570 800 OFFCURVE",
"570 861 CURVE",
"519 861 LINE",
"513 819 OFFCURVE",
"460 792 OFFCURVE",
"380 792 CURVE SMOOTH",
"303 792 OFFCURVE",
"247 819 OFFCURVE",
"240 861 CURVE",
"190 861 LINE",
"190 800 OFFCURVE",
"275 750 OFFCURVE",
"380 750 CURVE SMOOTH"
);
},
{
closed = 1;
nodes = (
"407 848 LINE",
"407 893 OFFCURVE",
"496 861 OFFCURVE",
"496 936 CURVE SMOOTH",
"496 984 OFFCURVE",
"445 1014 OFFCURVE",
"380 1014 CURVE SMOOTH",
"314 1014 OFFCURVE",
"263 984 OFFCURVE",
"263 936 CURVE SMOOTH",
"263 926 LINE",
"313 926 LINE",
"313 934 LINE SMOOTH",
"313 962 OFFCURVE",
"352 969 OFFCURVE",
"380 969 CURVE SMOOTH",
"407 969 OFFCURVE",
"446 962 OFFCURVE",
"446 936 CURVE SMOOTH",
"446 897 OFFCURVE",
"352 920 OFFCURVE",
"352 848 CURVE"
);
}
);
};
components = (
{
alignment = -1;
name = A.big;
},
{
alignment = -1;
name = brevecomb_hookabovecomb;
transform = "{1, 0, 0, 1, 100, -10}";
}
);
layerId = "96BCCF85-5232-4835-A4EF-A1D5F093B6B0";
width = 760;
},
{
background = {
paths = (
{
closed = 1;
nodes = (
"507 180 LINE",
"254 180 LINE",
"180 0 LINE",
"30 0 LINE",
"336 700 LINE",
"424 700 LINE",
"730 0 LINE",
"581 0 LINE"
);
},
{
closed = 1;
nodes = (
"453 311 LINE",
"387 470 LINE",
"374 470 LINE",
"308 311 LINE"
);
},
{
closed = 1;
nodes = (
"519 760 OFFCURVE",
"630 818 OFFCURVE",
"630 890 CURVE",
"598 890 LINE",
"599 837 OFFCURVE",
"519 790 OFFCURVE",
"380 790 CURVE SMOOTH",
"241 790 OFFCURVE",
"163 837 OFFCURVE",
"163 890 CURVE",
"130 890 LINE",
"130 818 OFFCURVE",
"241 760 OFFCURVE",
"380 760 CURVE SMOOTH"
);
},
{
closed = 1;
nodes = (
"446 1005 LINE SMOOTH",
"466 1062 OFFCURVE",
"423 1108 OFFCURVE",
"375 1102 CURVE SMOOTH",
"324 1096 OFFCURVE",
"296 1046 OFFCURVE",
"315 994 CURVE",
"346 998 LINE",
"332 1043 OFFCURVE",
"355 1064 OFFCURVE",
"376 1066 CURVE SMOOTH",
"402 1069 OFFCURVE",
"429 1048 OFFCURVE",
"414 1005 CURVE SMOOTH",
"363 858 LINE",
"393 858 LINE"
);
}
);
};
components = (
{
alignment = -1;
name = A.big;
},
{
alignment = -1;
name = brevecomb_hookabovecomb;
transform = "{1, 0, 0, 1, 100, -19}";
}
);
layerId = m002;
width = 760;
}
);
leftKerningGroup = A;
rightKerningGroup = A;
unicode = 1EB2;
},
{
glyphname = Abrevetilde;
lastChange = "2023-04-27 11:52:18 +0000";
layers = (
{
background = {
paths = (
{
closed = 1;
nodes = (
"507 180 LINE",
"254 180 LINE",
"180 0 LINE",
"30 0 LINE",
"336 700 LINE",
"424 700 LINE",
"730 0 LINE",
"581 0 LINE"
);
},
{
closed = 1;
nodes = (
"453 311 LINE",
"387 470 LINE",
"374 470 LINE",
"308 311 LINE"
);
},
{
closed = 1;
nodes = (
"486 760 OFFCURVE",
"570 810 OFFCURVE",
"570 871 CURVE",
"519 871 LINE",
"513 829 OFFCURVE",
"460 802 OFFCURVE",
"380 802 CURVE SMOOTH",
"303 802 OFFCURVE",
"247 829 OFFCURVE",
"240 871 CURVE",
"190 871 LINE",
"190 810 OFFCURVE",
"275 760 OFFCURVE",
"380 760 CURVE SMOOTH"
);
},
{
closed = 1;
nodes = (
"240 908 LINE",
"243 941 OFFCURVE",
"261 973 OFFCURVE",
"302 976 CURVE SMOOTH",
"353 980 OFFCURVE",
"392 917 OFFCURVE",
"460 908 CURVE SMOOTH",
"526 899 OFFCURVE",
"566 932 OFFCURVE",
"566 1005 CURVE",
"520 1005 LINE",
"520 969 OFFCURVE",
"509 933 OFFCURVE",
"454 952 CURVE SMOOTH",
"406 969 OFFCURVE",
"366 1021 OFFCURVE",
"296 1016 CURVE SMOOTH",
"217 1010 OFFCURVE",
"194 944 OFFCURVE",
"194 908 CURVE"
);
}
);
};
components = (
{
alignment = -1;
name = A.big;
},
{
alignment = -1;
name = brevecomb_tildecomb;
transform = "{1, 0, 0, 1, 100, 0}";
}
);
layerId = "96BCCF85-5232-4835-A4EF-A1D5F093B6B0";
width = 760;
},
{
background = {
paths = (
{
closed = 1;
nodes = (
"507 180 LINE",
"254 180 LINE",
"180 0 LINE",
"30 0 LINE",
"336 700 LINE",
"424 700 LINE",
"730 0 LINE",
"581 0 LINE"
);
},
{
closed = 1;
nodes = (
"453 311 LINE",
"387 470 LINE",
"374 470 LINE",
"308 311 LINE"
);
},
{
closed = 1;
nodes = (
"519 760 OFFCURVE",
"630 818 OFFCURVE",
"630 890 CURVE",
"598 890 LINE",
"599 837 OFFCURVE",
"519 790 OFFCURVE",
"380 790 CURVE SMOOTH",
"241 790 OFFCURVE",
"163 837 OFFCURVE",
"163 890 CURVE",
"130 890 LINE",
"130 818 OFFCURVE",
"241 760 OFFCURVE",
"380 760 CURVE SMOOTH"
);
},
{
closed = 1;
nodes = (
"220 895 LINE",
"220 928 OFFCURVE",
"245 961 OFFCURVE",
"291 959 CURVE SMOOTH",
"350 956 OFFCURVE",
"407 903 OFFCURVE",
"482 895 CURVE SMOOTH",
"529 890 OFFCURVE",
"570 919 OFFCURVE",
"570 985 CURVE",
"540 985 LINE",
"540 956 OFFCURVE",
"537 913 OFFCURVE",
"469 923 CURVE SMOOTH",
"421 930 OFFCURVE",
"368 977 OFFCURVE",
"296 985 CURVE SMOOTH",
"225 993 OFFCURVE",
"190 931 OFFCURVE",
"190 895 CURVE"
);
}
);
};
components = (
{
alignment = -1;
name = A.big;
},
{
alignment = -1;
name = brevecomb_tildecomb;
transform = "{1, 0, 0, 1, 100, -19}";
}
);
layerId = m002;
width = 760;
}
);
leftKerningGroup = A;
rightKerningGroup = A;
unicode = 1EB4;
},
{
glyphname = Acircumflex;
lastChange = "2023-04-27 11:52:18 +0000";
layers = (
{
background = {
paths = (
{
closed = 1;
nodes = (
"507 180 LINE",
"254 180 LINE",
"180 0 LINE",
"30 0 LINE",
"336 700 LINE",
"424 700 LINE",
"730 0 LINE",
"581 0 LINE"
);
},
{
closed = 1;
nodes = (
"453 311 LINE",
"387 470 LINE",
"374 470 LINE",
"308 311 LINE"
);
},
{
closed = 1;
nodes = (
"370 792 LINE",
"390 792 LINE",
"572 700 LINE",
"593 738 LINE",
"380 845 LINE",
"167 738 LINE",
"188 700 LINE"
);
}
);
};
components = (
{
alignment = -1;
name = A.big;
},
{
alignment = -1;
name = circumflexcomb;
transform = "{1, 0, 0, 1, 77, -60}";
}
);
guideLines = (
{
position = "{642, 720}";
}
);
layerId = "96BCCF85-5232-4835-A4EF-A1D5F093B6B0";
width = 760;
},
{
background = {
paths = (
{
closed = 1;
nodes = (
"507 180 LINE",
"254 180 LINE",
"180 0 LINE",
"30 0 LINE",
"336 700 LINE",
"424 700 LINE",
"730 0 LINE",
"581 0 LINE"
);
},
{
closed = 1;
nodes = (
"453 311 LINE",
"387 470 LINE",
"374 470 LINE",
"308 311 LINE"
);
},
{
closed = 1;
nodes = (
"370 812 LINE",
"390 812 LINE",
"642 720 LINE",
"653 740 LINE",
"380 842 LINE",
"107 740 LINE",
"118 720 LINE"
);
}
);
};
components = (
{
alignment = -1;
name = A.big;
},
{
alignment = -1;
name = circumflexcomb;
transform = "{1, 0, 0, 1, 77, -40}";
}
);
guideLines = (
{
position = "{642, 720}";
}
);
layerId = m002;
width = 760;
}
);
leftKerningGroup = A;
rightKerningGroup = A;
unicode = 00C2;
},
{
glyphname = Acircumflexacute;
lastChange = "2023-04-27 11:52:18 +0000";
layers = (
{
background = {
paths = (
{
closed = 1;
nodes = (
"507 180 LINE",
"254 180 LINE",
"180 0 LINE",
"30 0 LINE",
"336 700 LINE",
"424 700 LINE",
"730 0 LINE",
"581 0 LINE"
);
},
{
closed = 1;
nodes = (
"453 311 LINE",
"387 470 LINE",
"374 470 LINE",
"308 311 LINE"
);
},
{
closed = 1;
nodes = (
"563 808 LINE",
"778 908 LINE",
"759 946 LINE",
"541 844 LINE"
);
},
{
closed = 1;
nodes = (
"370 792 LINE",
"390 792 LINE",
"572 700 LINE",
"593 738 LINE",
"380 845 LINE",
"167 738 LINE",
"188 700 LINE"
);
}
);
};
components = (
{
alignment = -1;
name = A.big;
},
{
alignment = -1;
name = circumflexcomb_acutecomb;
transform = "{1, 0, 0, 1, 77, -60}";
}
);
guideLines = (
{
position = "{642, 720}";
}
);
layerId = "96BCCF85-5232-4835-A4EF-A1D5F093B6B0";
width = 760;
},
{
background = {
paths = (
{
closed = 1;
nodes = (
"507 180 LINE",
"254 180 LINE",
"180 0 LINE",
"30 0 LINE",
"336 700 LINE",
"424 700 LINE",
"730 0 LINE",
"581 0 LINE"
);
},
{
closed = 1;
nodes = (
"453 311 LINE",
"387 470 LINE",
"374 470 LINE",
"308 311 LINE"
);
},
{
closed = 1;
nodes = (
"370 812 LINE",
"390 812 LINE",
"642 720 LINE",
"653 740 LINE",
"380 842 LINE",
"107 740 LINE",
"118 720 LINE"
);
},
{
closed = 1;
nodes = (
"516 842 LINE",
"653 1048 LINE",
"653 1063 LINE",
"613 1063 LINE",
"496 842 LINE"
);
}
);
};
components = (
{
alignment = -1;
name = A.big;
},
{
alignment = -1;
name = circumflexcomb_acutecomb;
transform = "{1, 0, 0, 1, 77, -40}";
}
);
guideLines = (
{
position = "{642, 720}";
}
);
layerId = m002;
width = 760;
}
);
leftKerningGroup = A;
rightKerningGroup = A;
unicode = 1EA4;
},
{
glyphname = Acircumflexdotbelow;
lastChange = "2023-04-27 11:52:18 +0000";
layers = (
{
background = {
paths = (
{
closed = 1;
nodes = (
"507 180 LINE",
"254 180 LINE",
"180 0 LINE",
"30 0 LINE",
"336 700 LINE",
"424 700 LINE",
"730 0 LINE",
"581 0 LINE"
);
},
{
closed = 1;
nodes = (
"453 311 LINE",
"387 470 LINE",
"374 470 LINE",
"308 311 LINE"
);
},
{
closed = 1;
nodes = (
"460 -46 LINE",
"460 -137 LINE",
"300 -137 LINE",
"300 -46 LINE"
);
},
{
closed = 1;
nodes = (
"370 792 LINE",
"390 792 LINE",
"572 700 LINE",
"593 738 LINE",
"380 845 LINE",
"167 738 LINE",
"188 700 LINE"
);
}
);
};
components = (
{
alignment = -1;
name = A.big;
},
{
alignment = -1;
name = dotbelowcomb;
transform = "{1, 0, 0, 1, 270, 0}";
},
{
alignment = -1;
name = circumflexcomb;
transform = "{1, 0, 0, 1, 77, -60}";
}
);
layerId = "96BCCF85-5232-4835-A4EF-A1D5F093B6B0";
width = 760;
},
{
background = {
paths = (
{
closed = 1;
nodes = (
"507 180 LINE",
"254 180 LINE",
"180 0 LINE",
"30 0 LINE",
"336 700 LINE",
"424 700 LINE",
"730 0 LINE",
"581 0 LINE"
);
},
{
closed = 1;
nodes = (
"453 311 LINE",
"387 470 LINE",
"374 470 LINE",
"308 311 LINE"
);
},
{
closed = 1;
nodes = (
"460 -46 LINE",
"460 -137 LINE",
"300 -137 LINE",
"300 -46 LINE"
);
},
{
closed = 1;
nodes = (
"370 812 LINE",
"390 812 LINE",
"642 720 LINE",
"653 740 LINE",
"380 842 LINE",
"107 740 LINE",
"118 720 LINE"
);
}
);
};
components = (
{
alignment = -1;
name = A.big;
},
{
alignment = -1;
name = dotbelowcomb;
transform = "{1, 0, 0, 1, 270, 0}";
},
{
alignment = -1;
name = circumflexcomb;
transform = "{1, 0, 0, 1, 77, -40}";
}
);
layerId = m002;
width = 760;
}
);
leftKerningGroup = A;
rightKerningGroup = A;
unicode = 1EAC;
},
{
glyphname = Acircumflexgrave;
lastChange = "2023-04-27 11:52:18 +0000";
layers = (
{
background = {
paths = (
{
closed = 1;
nodes = (
"507 180 LINE",
"254 180 LINE",
"180 0 LINE",
"30 0 LINE",
"336 700 LINE",
"424 700 LINE",
"730 0 LINE",
"581 0 LINE"
);
},
{
closed = 1;
nodes = (
"453 311 LINE",
"387 470 LINE",
"374 470 LINE",
"308 311 LINE"
);
},
{
closed = 1;
nodes = (
"431 938 LINE",
"411 901 LINE",
"627 800 LINE",
"648 837 LINE"
);
},
{
closed = 1;
nodes = (
"370 792 LINE",
"390 792 LINE",
"572 700 LINE",
"593 738 LINE",
"380 845 LINE",
"167 738 LINE",
"188 700 LINE"
);
}
);
};
components = (
{
alignment = -1;
name = A.big;
},
{
alignment = -1;
name = circumflexcomb_gravecomb;
transform = "{1, 0, 0, 1, 77, -60}";
}
);
guideLines = (
{
position = "{572, 720}";
}
);
layerId = "96BCCF85-5232-4835-A4EF-A1D5F093B6B0";
width = 760;
},
{
background = {
paths = (
{
closed = 1;
nodes = (
"507 180 LINE",
"254 180 LINE",
"180 0 LINE",
"30 0 LINE",
"336 700 LINE",
"424 700 LINE",
"730 0 LINE",
"581 0 LINE"
);
},
{
closed = 1;
nodes = (
"453 311 LINE",
"387 470 LINE",
"374 470 LINE",
"308 311 LINE"
);
},
{
closed = 1;
nodes = (
"370 812 LINE",
"390 812 LINE",
"642 720 LINE",
"653 740 LINE",
"380 842 LINE",
"107 740 LINE",
"118 720 LINE"
);
},
{
closed = 1;
nodes = (
"478 1041 LINE",
"438 1041 LINE",
"438 1026 LINE",
"575 820 LINE",
"595 820 LINE"
);
}
);
};
components = (
{
alignment = -1;
name = A.big;
},
{
alignment = -1;
name = circumflexcomb_gravecomb;
transform = "{1, 0, 0, 1, 77, -40}";
}
);
layerId = m002;
width = 760;
}
);
leftKerningGroup = A;
rightKerningGroup = A;
unicode = 1EA6;
},
{
glyphname = Acircumflexhookabove;
lastChange = "2023-04-27 11:52:18 +0000";
layers = (
{
background = {
paths = (
{
closed = 1;
nodes = (
"507 180 LINE",
"254 180 LINE",
"180 0 LINE",
"30 0 LINE",
"336 700 LINE",
"424 700 LINE",
"730 0 LINE",
"581 0 LINE"
);
},
{
closed = 1;
nodes = (
"453 311 LINE",
"387 470 LINE",
"374 470 LINE",
"308 311 LINE"
);
},
{
closed = 1;
nodes = (
"538 837 LINE",
"538 885 OFFCURVE",
"599 872 OFFCURVE",
"599 933 CURVE SMOOTH",
"599 973 OFFCURVE",
"561 1003 OFFCURVE",
"513 1003 CURVE SMOOTH",
"464 1003 OFFCURVE",
"426 972 OFFCURVE",
"426 933 CURVE",
"426 922 LINE",
"470 922 LINE",
"470 928 LINE SMOOTH",
"470 950 OFFCURVE",
"486 963 OFFCURVE",
"513 963 CURVE SMOOTH",
"540 963 OFFCURVE",
"555 950 OFFCURVE",
"555 933 CURVE SMOOTH",
"555 898 OFFCURVE",
"494 905 OFFCURVE",
"494 837 CURVE"
);
},
{
closed = 1;
nodes = (
"370 792 LINE",
"390 792 LINE",
"572 700 LINE",
"593 738 LINE",
"380 845 LINE",
"167 738 LINE",
"188 700 LINE"
);
}
);
};
components = (
{
alignment = -1;
name = A.big;
},
{
alignment = -1;
name = circumflexcomb_hookabovecomb;
transform = "{1, 0, 0, 1, 77, -60}";
}
);
layerId = "96BCCF85-5232-4835-A4EF-A1D5F093B6B0";
width = 760;
},
{
background = {
paths = (
{
closed = 1;
nodes = (
"507 180 LINE",
"254 180 LINE",
"180 0 LINE",
"30 0 LINE",
"336 700 LINE",
"424 700 LINE",
"730 0 LINE",
"581 0 LINE"
);
},
{
closed = 1;
nodes = (
"453 311 LINE",
"387 470 LINE",
"374 470 LINE",
"308 311 LINE"
);
},
{
closed = 1;
nodes = (
"370 812 LINE",
"390 812 LINE",
"642 720 LINE",
"653 740 LINE",
"380 842 LINE",
"107 740 LINE",
"118 720 LINE"
);
},
{
closed = 1;
nodes = (
"615 967 LINE SMOOTH",
"635 1024 OFFCURVE",
"592 1070 OFFCURVE",
"544 1064 CURVE SMOOTH",
"493 1058 OFFCURVE",
"465 1008 OFFCURVE",
"484 956 CURVE",
"515 960 LINE",
"501 1005 OFFCURVE",
"524 1026 OFFCURVE",
"545 1028 CURVE SMOOTH",
"571 1031 OFFCURVE",
"598 1010 OFFCURVE",
"583 967 CURVE SMOOTH",
"532 820 LINE",
"562 820 LINE"
);
}
);
};
components = (
{
alignment = -1;
name = A.big;
},
{
alignment = -1;
name = circumflexcomb_hookabovecomb;
transform = "{1, 0, 0, 1, 77, -40}";
}
);
layerId = m002;
width = 760;
}
);
leftKerningGroup = A;
rightKerningGroup = A;
unicode = 1EA8;
},
{
glyphname = Acircumflextilde;
lastChange = "2023-04-27 11:52:18 +0000";
layers = (
{
background = {
paths = (
{
closed = 1;
nodes = (
"507 180 LINE",
"254 180 LINE",
"180 0 LINE",
"30 0 LINE",
"336 700 LINE",
"424 700 LINE",
"730 0 LINE",
"581 0 LINE"
);
},
{
closed = 1;
nodes = (
"453 311 LINE",
"387 470 LINE",
"374 470 LINE",
"308 311 LINE"
);
},
{
closed = 1;
nodes = (
"370 792 LINE",
"390 792 LINE",
"572 700 LINE",
"593 738 LINE",
"380 845 LINE",
"167 738 LINE",
"188 700 LINE"
);
},
{
closed = 1;
nodes = (
"240 866 LINE",
"243 899 OFFCURVE",
"261 931 OFFCURVE",
"302 934 CURVE SMOOTH",
"353 938 OFFCURVE",
"392 875 OFFCURVE",
"460 866 CURVE SMOOTH",
"526 857 OFFCURVE",
"566 890 OFFCURVE",
"566 963 CURVE",
"520 963 LINE",
"520 927 OFFCURVE",
"509 891 OFFCURVE",
"454 910 CURVE SMOOTH",
"406 927 OFFCURVE",
"366 979 OFFCURVE",
"296 974 CURVE SMOOTH",
"217 968 OFFCURVE",
"194 902 OFFCURVE",
"194 866 CURVE"
);
}
);
};
components = (
{
alignment = -1;
name = A.big;
},
{
alignment = -1;
name = circumflexcomb_tildecomb;
transform = "{1, 0, 0, 1, 77, -60}";
}
);
layerId = "96BCCF85-5232-4835-A4EF-A1D5F093B6B0";
width = 760;
},
{
background = {
paths = (
{
closed = 1;
nodes = (
"507 180 LINE",
"254 180 LINE",
"180 0 LINE",
"30 0 LINE",
"336 700 LINE",
"424 700 LINE",
"730 0 LINE",
"581 0 LINE"
);
},
{
closed = 1;
nodes = (
"453 311 LINE",
"387 470 LINE",
"374 470 LINE",
"308 311 LINE"
);
},
{
closed = 1;
nodes = (
"370 812 LINE",
"390 812 LINE",
"642 720 LINE",
"653 740 LINE",
"380 842 LINE",
"107 740 LINE",
"118 720 LINE"
);
},
{
closed = 1;
nodes = (
"220 868 LINE",
"220 901 OFFCURVE",
"245 934 OFFCURVE",
"291 932 CURVE SMOOTH",
"350 929 OFFCURVE",
"407 876 OFFCURVE",
"482 868 CURVE SMOOTH",
"529 863 OFFCURVE",
"570 892 OFFCURVE",
"570 958 CURVE",
"540 958 LINE",
"540 929 OFFCURVE",
"537 886 OFFCURVE",
"469 896 CURVE SMOOTH",
"421 903 OFFCURVE",
"368 950 OFFCURVE",
"296 958 CURVE SMOOTH",
"225 966 OFFCURVE",
"190 904 OFFCURVE",
"190 868 CURVE"
);
}
);
};
components = (
{
alignment = -1;
name = A.big;
},
{
alignment = -1;
name = circumflexcomb_tildecomb;
transform = "{1, 0, 0, 1, 77, -40}";
}
);
layerId = m002;
width = 760;
}
);
leftKerningGroup = A;
rightKerningGroup = A;
unicode = 1EAA;
},
{
glyphname = Adieresis;
lastChange = "2023-04-27 11:52:18 +0000";
layers = (
{
background = {
paths = (
{
closed = 1;
nodes = (
"507 180 LINE",
"254 180 LINE",
"180 0 LINE",
"30 0 LINE",
"336 700 LINE",
"424 700 LINE",
"730 0 LINE",
"581 0 LINE"
);
},
{
closed = 1;
nodes = (
"453 311 LINE",
"387 470 LINE",
"374 470 LINE",
"308 311 LINE"
);
},
{
closed = 1;
nodes = (
"261 741 LINE",
"355 741 LINE",
"355 845 LINE",
"261 845 LINE"
);
},
{
closed = 1;
nodes = (
"409 741 LINE",
"503 741 LINE",
"503 845 LINE",
"409 845 LINE"
);
}
);
};
components = (
{
alignment = -1;
name = A.big;
},
{
alignment = -1;
name = dieresiscomb;
transform = "{1, 0, 0, 1, 217, -20}";
}
);
layerId = "96BCCF85-5232-4835-A4EF-A1D5F093B6B0";
width = 760;
},
{
background = {
paths = (
{
closed = 1;
nodes = (
"507 180 LINE",
"254 180 LINE",
"180 0 LINE",
"30 0 LINE",
"336 700 LINE",
"424 700 LINE",
"730 0 LINE",
"581 0 LINE"
);
},
{
closed = 1;
nodes = (
"453 311 LINE",
"387 470 LINE",
"374 470 LINE",
"308 311 LINE"
);
},
{
closed = 1;
nodes = (
"339 761 OFFCURVE",
"365 787 OFFCURVE",
"365 819 CURVE",
"365 852 OFFCURVE",
"339 877 OFFCURVE",
"306 877 CURVE",
"274 877 OFFCURVE",
"248 852 OFFCURVE",
"248 819 CURVE",
"248 787 OFFCURVE",
"274 761 OFFCURVE",
"306 761 CURVE"
);
},
{
closed = 1;
nodes = (
"487 761 OFFCURVE",
"513 787 OFFCURVE",
"513 819 CURVE",
"513 852 OFFCURVE",
"487 877 OFFCURVE",
"454 877 CURVE",
"422 877 OFFCURVE",
"396 852 OFFCURVE",
"396 819 CURVE",
"396 787 OFFCURVE",
"422 761 OFFCURVE",
"454 761 CURVE"
);
}
);
};
components = (
{
alignment = -1;
name = A.big;
},
{
alignment = -1;
name = dieresiscomb;
transform = "{1, 0, 0, 1, 217, 0}";
}
);
layerId = m002;
width = 760;
}
);
leftKerningGroup = A;
rightKerningGroup = A;
unicode = 00C4;
},
{
glyphname = Adotbelow;
lastChange = "2023-04-27 11:52:18 +0000";
layers = (
{
background = {
paths = (
{
closed = 1;
nodes = (
"507 180 LINE",
"254 180 LINE",
"180 0 LINE",
"30 0 LINE",
"336 700 LINE",
"424 700 LINE",
"730 0 LINE",
"581 0 LINE"
);
},
{
closed = 1;
nodes = (
"453 311 LINE",
"387 470 LINE",
"374 470 LINE",
"308 311 LINE"
);
},
{
closed = 1;
nodes = (
"460 -46 LINE",
"460 -137 LINE",
"300 -137 LINE",
"300 -46 LINE"
);
}
);
};
components = (
{
alignment = -1;
name = A.big;
},
{
alignment = -1;
name = dotbelowcomb;
transform = "{1, 0, 0, 1, 270, 0}";
}
);
layerId = "96BCCF85-5232-4835-A4EF-A1D5F093B6B0";
width = 760;
},
{
background = {
paths = (
{
closed = 1;
nodes = (
"507 180 LINE",
"254 180 LINE",
"180 0 LINE",
"30 0 LINE",
"336 700 LINE",
"424 700 LINE",
"730 0 LINE",
"581 0 LINE"
);
},
{
closed = 1;
nodes = (
"453 311 LINE",
"387 470 LINE",
"374 470 LINE",
"308 311 LINE"
);
},
{
closed = 1;
nodes = (
"460 -46 LINE",
"460 -137 LINE",
"300 -137 LINE",
"300 -46 LINE"
);
}
);
};
components = (
{
alignment = -1;
name = A.big;
},
{
alignment = -1;
name = dotbelowcomb;
transform = "{1, 0, 0, 1, 270, 0}";
}
);
layerId = m002;
width = 760;
}
);
leftKerningGroup = A;
rightKerningGroup = A;
unicode = 1EA0;
},
{
glyphname = Agrave;
lastChange = "2023-04-27 11:52:18 +0000";
layers = (
{
background = {
paths = (
{
closed = 1;
nodes = (
"507 180 LINE",
"254 180 LINE",
"180 0 LINE",
"30 0 LINE",
"336 700 LINE",
"424 700 LINE",
"730 0 LINE",
"581 0 LINE"
);
},
{
closed = 1;
nodes = (
"453 311 LINE",
"387 470 LINE",
"374 470 LINE",
"308 311 LINE"
);
},
{
closed = 1;
nodes = (
"207 848 LINE",
"199 805 LINE",
"553 740 LINE",
"561 783 LINE"
);
}
);
};
components = (
{
alignment = -1;
name = A.big;
},
{
alignment = -1;
name = gravecomb;
transform = "{1, 0, 0, 1, 169, -20}";
}
);
guideLines = (
{
angle = 90;
position = "{424, 700}";
},
{
angle = 90;
position = "{496, 788}";
},
{
position = "{406, 741}";
}
);
layerId = "96BCCF85-5232-4835-A4EF-A1D5F093B6B0";
width = 760;
},
{
background = {
paths = (
{
closed = 1;
nodes = (
"507 180 LINE",
"254 180 LINE",
"180 0 LINE",
"30 0 LINE",
"336 700 LINE",
"424 700 LINE",
"730 0 LINE",
"581 0 LINE"
);
},
{
closed = 1;
nodes = (
"453 311 LINE",
"387 470 LINE",
"374 470 LINE",
"308 311 LINE"
);
},
{
closed = 1;
nodes = (
"287 981 LINE",
"247 981 LINE",
"247 966 LINE",
"384 760 LINE",
"404 760 LINE"
);
}
);
};
components = (
{
alignment = -1;
name = A.big;
},
{
alignment = -1;
name = gravecomb;
transform = "{1, 0, 0, 1, 272, 200}";
}
);
guideLines = (
{
angle = 90;
position = "{424, 700}";
},
{
angle = 90;
position = "{496, 788}";
},
{
position = "{406, 741}";
}
);
layerId = m002;
width = 760;
}
);
leftKerningGroup = A;
rightKerningGroup = A;
unicode = 00C0;
},
{
glyphname = Ahookabove;
lastChange = "2023-04-27 11:52:18 +0000";
layers = (
{
background = {
paths = (
{
closed = 1;
nodes = (
"507 180 LINE",
"254 180 LINE",
"180 0 LINE",
"30 0 LINE",
"336 700 LINE",
"424 700 LINE",
"730 0 LINE",
"581 0 LINE"
);
},
{
closed = 1;
nodes = (
"453 311 LINE",
"387 470 LINE",
"374 470 LINE",
"308 311 LINE"
);
},
{
closed = 1;
nodes = (
"407 750 LINE",
"407 795 OFFCURVE",
"496 763 OFFCURVE",
"496 838 CURVE SMOOTH",
"496 886 OFFCURVE",
"445 916 OFFCURVE",
"380 916 CURVE SMOOTH",
"314 916 OFFCURVE",
"263 886 OFFCURVE",
"263 838 CURVE SMOOTH",
"263 828 LINE",
"313 828 LINE",
"313 836 LINE SMOOTH",
"313 864 OFFCURVE",
"352 871 OFFCURVE",
"380 871 CURVE SMOOTH",
"407 871 OFFCURVE",
"446 864 OFFCURVE",
"446 838 CURVE SMOOTH",
"446 799 OFFCURVE",
"352 822 OFFCURVE",
"352 750 CURVE"
);
}
);
};
components = (
{
alignment = -1;
name = A.big;
},
{
alignment = -1;
name = hookabovecomb;
transform = "{1, 0, 0, 1, 263, -40}";
}
);
layerId = "96BCCF85-5232-4835-A4EF-A1D5F093B6B0";
width = 760;
},
{
background = {
paths = (
{
closed = 1;
nodes = (
"507 180 LINE",
"254 180 LINE",
"180 0 LINE",
"30 0 LINE",
"336 700 LINE",
"424 700 LINE",
"730 0 LINE",
"581 0 LINE"
);
},
{
closed = 1;
nodes = (
"453 311 LINE",
"387 470 LINE",
"374 470 LINE",
"308 311 LINE"
);
},
{
closed = 1;
nodes = (
"446 907 LINE SMOOTH",
"466 964 OFFCURVE",
"423 1010 OFFCURVE",
"375 1004 CURVE SMOOTH",
"324 998 OFFCURVE",
"296 948 OFFCURVE",
"315 896 CURVE",
"346 900 LINE",
"332 945 OFFCURVE",
"355 966 OFFCURVE",
"376 968 CURVE SMOOTH",
"402 971 OFFCURVE",
"429 950 OFFCURVE",
"414 907 CURVE SMOOTH",
"363 760 LINE",
"393 760 LINE"
);
}
);
};
components = (
{
alignment = -1;
name = A.big;
},
{
alignment = -1;
name = hookabovecomb;
transform = "{1, 0, 0, 1, 279, -30}";
}
);
layerId = m002;
width = 760;
}
);
leftKerningGroup = A;
rightKerningGroup = A;
unicode = 1EA2;
},
{
glyphname = Amacron;
lastChange = "2023-04-27 11:52:18 +0000";
layers = (
{
background = {
paths = (
{
closed = 1;
nodes = (
"507 180 LINE",
"254 180 LINE",
"180 0 LINE",
"30 0 LINE",
"336 700 LINE",
"424 700 LINE",
"730 0 LINE",
"581 0 LINE"
);
},
{
closed = 1;
nodes = (
"453 311 LINE",
"387 470 LINE",
"374 470 LINE",
"308 311 LINE"
);
},
{
closed = 1;
nodes = (
"582 740 LINE",
"582 784 LINE",
"177 784 LINE",
"177 740 LINE"
);
}
);
};
components = (
{
alignment = -1;
name = A.big;
},
{
alignment = -1;
name = macroncomb;
transform = "{1, 0, 0, 1, 87, -20}";
}
);
layerId = "96BCCF85-5232-4835-A4EF-A1D5F093B6B0";
width = 760;
},
{
background = {
paths = (
{
closed = 1;
nodes = (
"507 180 LINE",
"254 180 LINE",
"180 0 LINE",
"30 0 LINE",
"336 700 LINE",
"424 700 LINE",
"730 0 LINE",
"581 0 LINE"
);
},
{
closed = 1;
nodes = (
"453 311 LINE",
"387 470 LINE",
"374 470 LINE",
"308 311 LINE"
);
},
{
closed = 1;
nodes = (
"642 760 LINE",
"642 790 LINE",
"117 790 LINE",
"117 760 LINE"
);
}
);
};
components = (
{
alignment = -1;
name = A.big;
},
{
alignment = -1;
name = macroncomb;
transform = "{1, 0, 0, 1, 87, 0}";
}
);
layerId = m002;
width = 760;
}
);
leftKerningGroup = A;
rightKerningGroup = A;
unicode = 0100;
},
{
glyphname = Aogonek;
lastChange = "2023-04-27 11:52:18 +0000";
layers = (
{
background = {
paths = (
{
closed = 1;
nodes = (
"507 180 LINE",
"254 180 LINE",
"180 0 LINE",
"30 0 LINE",
"336 700 LINE",
"424 700 LINE",
"730 0 LINE",
"581 0 LINE"
);
},
{
closed = 1;
nodes = (
"453 311 LINE",
"387 470 LINE",
"374 470 LINE",
"308 311 LINE"
);
},
{
closed = 1;
nodes = (
"645 0 LINE",
"645 -46 OFFCURVE",
"601 -46 OFFCURVE",
"601 -100 CURVE SMOOTH",
"601 -131 OFFCURVE",
"626 -167 OFFCURVE",
"669 -167 CURVE SMOOTH",
"723 -167 OFFCURVE",
"754 -111 OFFCURVE",
"735 -59 CURVE",
"704 -63 LINE",
"718 -108 OFFCURVE",
"698 -131 OFFCURVE",
"669 -131 CURVE SMOOTH",
"645 -131 OFFCURVE",
"631 -111 OFFCURVE",
"636 -88 CURVE SMOOTH",
"642 -61 OFFCURVE",
"677 -55 OFFCURVE",
"677 0 CURVE"
);
}
);
};
components = (
{
alignment = -1;
name = A.big;
},
{
alignment = -1;
name = ogonekcomb;
transform = "{1, 0, 0, 1, 571, 0}";
}
);
guideLines = (
{
angle = 112.3481;
position = "{581, 0}";
},
{
position = "{650, -167}";
},
{
angle = 112.3481;
position = "{730, 0}";
}
);
layerId = "96BCCF85-5232-4835-A4EF-A1D5F093B6B0";
width = 760;
},
{
background = {
paths = (
{
closed = 1;
nodes = (
"507 180 LINE",
"254 180 LINE",
"180 0 LINE",
"30 0 LINE",
"336 700 LINE",
"424 700 LINE",
"730 0 LINE",
"581 0 LINE"
);
},
{
closed = 1;
nodes = (
"453 311 LINE",
"387 470 LINE",
"374 470 LINE",
"308 311 LINE"
);
},
{
closed = 1;
nodes = (
"645 0 LINE",
"645 -46 OFFCURVE",
"601 -46 OFFCURVE",
"601 -100 CURVE SMOOTH",
"601 -131 OFFCURVE",
"626 -167 OFFCURVE",
"669 -167 CURVE SMOOTH",
"723 -167 OFFCURVE",
"754 -111 OFFCURVE",
"735 -59 CURVE",
"704 -63 LINE",
"718 -108 OFFCURVE",
"698 -131 OFFCURVE",
"669 -131 CURVE SMOOTH",
"645 -131 OFFCURVE",
"631 -111 OFFCURVE",
"636 -88 CURVE SMOOTH",
"642 -61 OFFCURVE",
"677 -55 OFFCURVE",
"677 0 CURVE"
);
}
);
};
components = (
{
alignment = -1;
name = A.big;
},
{
alignment = -1;
name = ogonekcomb;
transform = "{1, 0, 0, 1, 571, 0}";
}
);
guideLines = (
{
angle = 112.3481;
position = "{581, 0}";
},
{
position = "{650, -167}";
},
{
angle = 112.3481;
position = "{730, 0}";
}
);
layerId = m002;
width = 760;
}
);
leftKerningGroup = A;
rightKerningGroup = A;
unicode = 0104;
},
{
glyphname = Aring;
lastChange = "2023-04-27 11:52:18 +0000";
layers = (
{
background = {
paths = (
{
closed = 1;
nodes = (
"507 180 LINE",
"254 180 LINE",
"180 0 LINE",
"30 0 LINE",
"336 700 LINE",
"424 700 LINE",
"730 0 LINE",
"581 0 LINE"
);
},
{
closed = 1;
nodes = (
"453 311 LINE",
"387 470 LINE",
"374 470 LINE",
"308 311 LINE"
);
},
{
closed = 1;
nodes = (
"426 760 OFFCURVE",
"463 797 OFFCURVE",
"463 843 CURVE",
"463 889 OFFCURVE",
"426 926 OFFCURVE",
"380 926 CURVE",
"334 926 OFFCURVE",
"297 889 OFFCURVE",
"297 843 CURVE",
"297 797 OFFCURVE",
"334 760 OFFCURVE",
"380 760 CURVE"
);
},
{
closed = 1;
nodes = (
"352 795 OFFCURVE",
"332 815 OFFCURVE",
"332 842 CURVE",
"332 871 OFFCURVE",
"352 891 OFFCURVE",
"379 891 CURVE",
"408 891 OFFCURVE",
"428 871 OFFCURVE",
"428 842 CURVE",
"428 815 OFFCURVE",
"408 795 OFFCURVE",
"379 795 CURVE"
);
}
);
};
components = (
{
alignment = -1;
name = A.big;
},
{
alignment = -1;
name = ringcomb;
transform = "{1, 0, 0, 1, 267, 0}";
}
);
layerId = "96BCCF85-5232-4835-A4EF-A1D5F093B6B0";
width = 760;
},
{
background = {
paths = (
{
closed = 1;
nodes = (
"507 180 LINE",
"254 180 LINE",
"180 0 LINE",
"30 0 LINE",
"336 700 LINE",
"424 700 LINE",
"730 0 LINE",
"581 0 LINE"
);
},
{
closed = 1;
nodes = (
"453 311 LINE",
"387 470 LINE",
"374 470 LINE",
"308 311 LINE"
);
},
{
closed = 1;
nodes = (
"426 760 OFFCURVE",
"463 797 OFFCURVE",
"463 843 CURVE",
"463 889 OFFCURVE",
"426 926 OFFCURVE",
"380 926 CURVE",
"334 926 OFFCURVE",
"297 889 OFFCURVE",
"297 843 CURVE",
"297 797 OFFCURVE",
"334 760 OFFCURVE",
"380 760 CURVE"
);
},
{
closed = 1;
nodes = (
"347 785 OFFCURVE",
"322 810 OFFCURVE",
"322 842 CURVE",
"322 876 OFFCURVE",
"347 901 OFFCURVE",
"379 901 CURVE",
"413 901 OFFCURVE",
"438 876 OFFCURVE",
"438 842 CURVE",
"438 810 OFFCURVE",
"413 785 OFFCURVE",
"379 785 CURVE"
);
}
);
};
components = (
{
alignment = -1;
name = A.big;
},
{
alignment = -1;
name = ringcomb;
transform = "{1, 0, 0, 1, 267, 0}";
}
);
layerId = m002;
width = 760;
}
);
leftKerningGroup = A;
rightKerningGroup = A;
unicode = 00C5;
},
{
glyphname = Atilde;
lastChange = "2023-04-27 11:52:18 +0000";
layers = (
{
background = {
paths = (
{
closed = 1;
nodes = (
"507 180 LINE",
"254 180 LINE",
"180 0 LINE",
"30 0 LINE",
"336 700 LINE",
"424 700 LINE",
"730 0 LINE",
"581 0 LINE"
);
},
{
closed = 1;
nodes = (
"453 311 LINE",
"387 470 LINE",
"374 470 LINE",
"308 311 LINE"
);
},
{
closed = 1;
nodes = (
"240 748 LINE",
"243 781 OFFCURVE",
"261 813 OFFCURVE",
"302 816 CURVE SMOOTH",
"353 820 OFFCURVE",
"392 757 OFFCURVE",
"460 748 CURVE SMOOTH",
"526 739 OFFCURVE",
"566 772 OFFCURVE",
"566 845 CURVE",
"520 845 LINE",
"520 809 OFFCURVE",
"509 773 OFFCURVE",
"454 792 CURVE SMOOTH",
"406 809 OFFCURVE",
"366 861 OFFCURVE",
"296 856 CURVE SMOOTH",
"217 850 OFFCURVE",
"194 784 OFFCURVE",
"194 748 CURVE"
);
}
);
};
components = (
{
alignment = -1;
name = A.big;
},
{
alignment = -1;
name = tildecomb;
transform = "{1, 0, 0, 1, 160, -40}";
}
);
layerId = "96BCCF85-5232-4835-A4EF-A1D5F093B6B0";
width = 760;
},
{
background = {
paths = (
{
closed = 1;
nodes = (
"507 180 LINE",
"254 180 LINE",
"180 0 LINE",
"30 0 LINE",
"336 700 LINE",
"424 700 LINE",
"730 0 LINE",
"581 0 LINE"
);
},
{
closed = 1;
nodes = (
"453 311 LINE",
"387 470 LINE",
"374 470 LINE",
"308 311 LINE"
);
},
{
closed = 1;
nodes = (
"220 760 LINE",
"220 793 OFFCURVE",
"245 826 OFFCURVE",
"291 824 CURVE SMOOTH",
"350 821 OFFCURVE",
"407 768 OFFCURVE",
"482 760 CURVE SMOOTH",
"529 755 OFFCURVE",
"570 784 OFFCURVE",
"570 850 CURVE",
"540 850 LINE",
"540 821 OFFCURVE",
"537 778 OFFCURVE",
"469 788 CURVE SMOOTH",
"421 795 OFFCURVE",
"368 842 OFFCURVE",
"296 850 CURVE SMOOTH",
"225 858 OFFCURVE",
"190 796 OFFCURVE",
"190 760 CURVE"
);
}
);
};
components = (
{
alignment = -1;
name = A.big;
},
{
alignment = -1;
name = tildecomb;
transform = "{1, 0, 0, 1, 160, -28}";
}
);
layerId = m002;
width = 760;
}
);
leftKerningGroup = A;
rightKerningGroup = A;
unicode = 00C3;
},
{
glyphname = AE;
lastChange = "2023-04-27 11:52:59 +0000";
layers = (
{
anchors = (
{
name = bottom;
position = "{275, 0}";
},
{
name = top;
position = "{275, 700}";
}
);
background = {
paths = (
{
closed = 1;
nodes = (
"171 0 LINE",
"182 129 LINE",
"240 129 LINE",
"240 0 LINE",
"380 0 LINE",
"380 700 LINE",
"115 700 LINE",
"30 0 LINE"
);
},
{
closed = 1;
nodes = (
"220 570 LINE",
"240 570 LINE",
"240 279 LINE",
"195 279 LINE"
);
},
{
closed = 1;
nodes = (
"520 0 LINE",
"520 129 LINE",
"389 129 LINE",
"389 275 LINE",
"476 275 LINE",
"476 425 LINE",
"389 425 LINE",
"389 570 LINE",
"520 570 LINE",
"520 700 LINE",
"240 700 LINE",
"240 0 LINE"
);
}
);
};
guideLines = (
{
angle = 90;
position = "{240, -49}";
},
{
angle = 85.0867;
position = "{171, 0}";
}
);
layerId = "96BCCF85-5232-4835-A4EF-A1D5F093B6B0";
paths = (
{
closed = 1;
nodes = (
"171 0 LINE",
"182 129 LINE",
"240 129 LINE",
"240 0 LINE",
"380 0 LINE",
"380 700 LINE",
"115 700 LINE",
"30 0 LINE"
);
},
{
closed = 1;
nodes = (
"220 570 LINE",
"240 570 LINE",
"240 279 LINE",
"195 279 LINE"
);
},
{
closed = 1;
nodes = (
"520 0 LINE",
"520 129 LINE",
"389 129 LINE",
"389 275 LINE",
"476 275 LINE",
"476 425 LINE",
"389 425 LINE",
"389 570 LINE",
"520 570 LINE",
"520 700 LINE",
"240 700 LINE",
"240 0 LINE"
);
}
);
width = 550;
},
{
anchors = (
{
name = bottom;
position = "{275, 0}";
},
{
name = top;
position = "{275, 700}";
}
);
background = {
paths = (
{
closed = 1;
nodes = (
"171 0 LINE",
"182 129 LINE",
"240 129 LINE",
"240 0 LINE",
"380 0 LINE",
"380 700 LINE",
"115 700 LINE",
"30 0 LINE"
);
},
{
closed = 1;
nodes = (
"220 570 LINE",
"240 570 LINE",
"240 279 LINE",
"195 279 LINE"
);
},
{
closed = 1;
nodes = (
"520 0 LINE",
"520 129 LINE",
"389 129 LINE",
"389 275 LINE",
"476 275 LINE",
"476 425 LINE",
"389 425 LINE",
"389 570 LINE",
"520 570 LINE",
"520 700 LINE",
"240 700 LINE",
"240 0 LINE"
);
}
);
};
guideLines = (
{
angle = 90;
position = "{240, -49}";
},
{
angle = 85.0867;
position = "{171, 0}";
}
);
layerId = m002;
paths = (
{
closed = 1;
nodes = (
"171 0 LINE",
"182 129 LINE",
"240 129 LINE",
"240 0 LINE",
"380 0 LINE",
"380 700 LINE",
"115 700 LINE",
"30 0 LINE"
);
},
{
closed = 1;
nodes = (
"220 570 LINE",
"240 570 LINE",
"240 279 LINE",
"195 279 LINE"
);
},
{
closed = 1;
nodes = (
"520 0 LINE",
"520 129 LINE",
"389 129 LINE",
"389 275 LINE",
"476 275 LINE",
"476 425 LINE",
"389 425 LINE",
"389 570 LINE",
"520 570 LINE",
"520 700 LINE",
"240 700 LINE",
"240 0 LINE"
);
}
);
width = 550;
}
);
leftKerningGroup = a;
rightKerningGroup = e;
unicode = 00C6;
},
{
glyphname = B;
lastChange = "2023-04-27 11:52:59 +0000";
layers = (
{
anchors = (
{
name = bottom;
position = "{205, 0}";
},
{
name = center;
position = "{205, 350}";
},
{
name = top;
position = "{205, 700}";
}
);
background = {
paths = (
{
closed = 1;
nodes = (
"205 0 LINE",
"302 0 OFFCURVE",
"380 78 OFFCURVE",
"380 175 CURVE",
"380 263 LINE",
"380 313 OFFCURVE",
"345 368 OFFCURVE",
"290 389 CURVE",
"290 399 LINE",
"345 414 OFFCURVE",
"380 478 OFFCURVE",
"380 530 CURVE",
"380 627 OFFCURVE",
"302 700 OFFCURVE",
"205 700 CURVE",
"30 700 LINE",
"30 0 LINE"
);
},
{
closed = 1;
nodes = (
"179 311 LINE",
"186 311 LINE",
"210 311 OFFCURVE",
"230 281 OFFCURVE",
"230 243 CURVE",
"230 197 LINE",
"230 159 OFFCURVE",
"210 129 OFFCURVE",
"186 129 CURVE",
"179 129 LINE"
);
},
{
closed = 1;
nodes = (
"179 570 LINE",
"191 570 LINE",
"212 570 OFFCURVE",
"230 550 OFFCURVE",
"230 525 CURVE",
"230 500 OFFCURVE",
"212 481 OFFCURVE",
"191 481 CURVE",
"179 481 LINE"
);
}
);
};
components = (
{
alignment = -1;
name = b;
}
);
layerId = "96BCCF85-5232-4835-A4EF-A1D5F093B6B0";
width = 410;
},
{
anchors = (
{
name = bottom;
position = "{205, 0}";
},
{
name = center;
position = "{205, 350}";
},
{
name = top;
position = "{205, 700}";
}
);
background = {
paths = (
{
closed = 1;
nodes = (
"205 0 LINE",
"302 0 OFFCURVE",
"380 78 OFFCURVE",
"380 175 CURVE",
"380 263 LINE",
"380 313 OFFCURVE",
"345 368 OFFCURVE",
"290 389 CURVE",
"290 399 LINE",
"345 414 OFFCURVE",
"380 478 OFFCURVE",
"380 530 CURVE",
"380 627 OFFCURVE",
"302 700 OFFCURVE",
"205 700 CURVE",
"30 700 LINE",
"30 0 LINE"
);
},
{
closed = 1;
nodes = (
"179 311 LINE",
"186 311 LINE",
"210 311 OFFCURVE",
"230 281 OFFCURVE",
"230 243 CURVE",
"230 197 LINE",
"230 159 OFFCURVE",
"210 129 OFFCURVE",
"186 129 CURVE",
"179 129 LINE"
);
},
{
closed = 1;
nodes = (
"179 570 LINE",
"191 570 LINE",
"212 570 OFFCURVE",
"230 550 OFFCURVE",
"230 525 CURVE",
"230 500 OFFCURVE",
"212 481 OFFCURVE",
"191 481 CURVE",
"179 481 LINE"
);
}
);
};
components = (
{
alignment = -1;
name = b;
}
);
layerId = m002;
width = 410;
}
);
leftKerningGroup = H;
leftMetricsKey = B;
rightKerningGroup = o;
unicode = 0042;
},
{
glyphname = C;
lastChange = "2023-04-27 11:52:59 +0000";
layers = (
{
anchors = (
{
name = bottom;
position = "{210, 0}";
},
{
name = top;
position = "{210, 700}";
}
);
background = {
paths = (
{
closed = 1;
nodes = (
"307 -10 OFFCURVE",
"385 68 OFFCURVE",
"385 165 CURVE",
"385 275 LINE",
"237 275 LINE",
"237 155 LINE",
"237 141 OFFCURVE",
"225 129 OFFCURVE",
"210 129 CURVE",
"196 129 OFFCURVE",
"184 141 OFFCURVE",
"184 155 CURVE",
"184 544 LINE",
"184 558 OFFCURVE",
"196 570 OFFCURVE",
"210 570 CURVE",
"225 570 OFFCURVE",
"237 558 OFFCURVE",
"237 544 CURVE",
"237 425 LINE",
"385 425 LINE",
"385 535 LINE",
"385 632 OFFCURVE",
"307 710 OFFCURVE",
"210 710 CURVE",
"113 710 OFFCURVE",
"35 632 OFFCURVE",
"35 535 CURVE",
"35 165 LINE",
"35 68 OFFCURVE",
"113 -10 OFFCURVE",
"210 -10 CURVE"
);
}
);
};
components = (
{
alignment = -1;
name = c;
}
);
layerId = "96BCCF85-5232-4835-A4EF-A1D5F093B6B0";
width = 420;
},
{
anchors = (
{
name = bottom;
position = "{210, 0}";
},
{
name = top;
position = "{210, 700}";
}
);
background = {
paths = (
{
closed = 1;
nodes = (
"307 -10 OFFCURVE",
"385 68 OFFCURVE",
"385 165 CURVE",
"385 275 LINE",
"237 275 LINE",
"237 155 LINE",
"237 141 OFFCURVE",
"225 129 OFFCURVE",
"210 129 CURVE",
"196 129 OFFCURVE",
"184 141 OFFCURVE",
"184 155 CURVE",
"184 544 LINE",
"184 558 OFFCURVE",
"196 570 OFFCURVE",
"210 570 CURVE",
"225 570 OFFCURVE",
"237 558 OFFCURVE",
"237 544 CURVE",
"237 425 LINE",
"385 425 LINE",
"385 535 LINE",
"385 632 OFFCURVE",
"307 710 OFFCURVE",
"210 710 CURVE",
"113 710 OFFCURVE",
"35 632 OFFCURVE",
"35 535 CURVE",
"35 165 LINE",
"35 68 OFFCURVE",
"113 -10 OFFCURVE",
"210 -10 CURVE"
);
}
);
};
components = (
{
alignment = -1;
name = c;
}
);
layerId = m002;
width = 420;
}
);
leftKerningGroup = o;
rightKerningGroup = o;
unicode = 0043;
},
{
glyphname = Cacute;
lastChange = "2023-04-27 11:52:18 +0000";
layers = (
{
background = {
paths = (
{
closed = 1;
nodes = (
"577 184 OFFCURVE",
"496 122 OFFCURVE",
"390 122 CURVE SMOOTH",
"255 122 OFFCURVE",
"160 220 OFFCURVE",
"160 350 CURVE SMOOTH",
"160 482 OFFCURVE",
"255 580 OFFCURVE",
"390 580 CURVE SMOOTH",
"496 580 OFFCURVE",
"578 517 OFFCURVE",
"607 425 CURVE",
"743 425 LINE",
"708 598 OFFCURVE",
"565 710 OFFCURVE",
"390 710 CURVE SMOOTH",
"180 710 OFFCURVE",
"30 554 OFFCURVE",
"30 350 CURVE SMOOTH",
"30 146 OFFCURVE",
"180 -10 OFFCURVE",
"390 -10 CURVE SMOOTH",
"589 -10 OFFCURVE",
"717 129 OFFCURVE",
"743 275 CURVE",
"607 275 LINE"
);
},
{
closed = 1;
nodes = (
"214 740 LINE",
"568 805 LINE",
"560 848 LINE",
"206 783 LINE"
);
}
);
};
components = (
{
alignment = -1;
name = C.big;
},
{
alignment = -1;
name = acutecomb;
transform = "{1, 0, 0, 1, 176, -20}";
}
);
guideLines = (
{
position = "{782, 425}";
},
{
position = "{781, 275}";
},
{
position = "{779, 500}";
},
{
position = "{781, 200}";
}
);
layerId = "96BCCF85-5232-4835-A4EF-A1D5F093B6B0";
width = 773;
},
{
background = {
paths = (
{
closed = 1;
nodes = (
"577 184 OFFCURVE",
"496 122 OFFCURVE",
"390 122 CURVE SMOOTH",
"255 122 OFFCURVE",
"160 220 OFFCURVE",
"160 350 CURVE SMOOTH",
"160 482 OFFCURVE",
"255 580 OFFCURVE",
"390 580 CURVE SMOOTH",
"496 580 OFFCURVE",
"578 517 OFFCURVE",
"607 425 CURVE",
"743 425 LINE",
"708 598 OFFCURVE",
"565 710 OFFCURVE",
"390 710 CURVE SMOOTH",
"180 710 OFFCURVE",
"30 554 OFFCURVE",
"30 350 CURVE SMOOTH",
"30 146 OFFCURVE",
"180 -10 OFFCURVE",
"390 -10 CURVE SMOOTH",
"589 -10 OFFCURVE",
"717 129 OFFCURVE",
"743 275 CURVE",
"607 275 LINE"
);
},
{
closed = 1;
nodes = (
"390 760 LINE",
"527 966 LINE",
"527 981 LINE",
"487 981 LINE",
"370 760 LINE"
);
}
);
};
components = (
{
alignment = -1;
name = C.big;
},
{
alignment = -1;
name = acutecomb;
transform = "{1, 0, 0, 1, 340, 0}";
}
);
guideLines = (
{
position = "{782, 425}";
},
{
position = "{781, 275}";
},
{
position = "{779, 500}";
},
{
position = "{781, 200}";
}
);
layerId = m002;
width = 773;
}
);
leftKerningGroup = O;
rightKerningGroup = O;
unicode = 0106;
},
{
glyphname = Ccaron;
lastChange = "2023-04-27 11:52:18 +0000";
layers = (
{
background = {
paths = (
{
closed = 1;
nodes = (
"577 184 OFFCURVE",
"496 122 OFFCURVE",
"390 122 CURVE SMOOTH",
"255 122 OFFCURVE",
"160 220 OFFCURVE",
"160 350 CURVE SMOOTH",
"160 482 OFFCURVE",
"255 580 OFFCURVE",
"390 580 CURVE SMOOTH",
"496 580 OFFCURVE",
"578 517 OFFCURVE",
"607 425 CURVE",
"743 425 LINE",
"708 598 OFFCURVE",
"565 710 OFFCURVE",
"390 710 CURVE SMOOTH",
"180 710 OFFCURVE",
"30 554 OFFCURVE",
"30 350 CURVE SMOOTH",
"30 146 OFFCURVE",
"180 -10 OFFCURVE",
"390 -10 CURVE SMOOTH",
"589 -10 OFFCURVE",
"717 129 OFFCURVE",
"743 275 CURVE",
"607 275 LINE"
);
},
{
closed = 1;
nodes = (
"173 844 LINE",
"386 737 LINE",
"599 844 LINE",
"578 882 LINE",
"396 790 LINE",
"376 790 LINE",
"194 882 LINE"
);
}
);
};
components = (
{
alignment = -1;
name = C.big;
},
{
alignment = -1;
name = caroncomb;
transform = "{1, 0, 0, 1, 83, 0}";
}
);
layerId = "96BCCF85-5232-4835-A4EF-A1D5F093B6B0";
width = 773;
},
{
background = {
paths = (
{
closed = 1;
nodes = (
"577 184 OFFCURVE",
"496 122 OFFCURVE",
"390 122 CURVE SMOOTH",
"255 122 OFFCURVE",
"160 220 OFFCURVE",
"160 350 CURVE SMOOTH",
"160 482 OFFCURVE",
"255 580 OFFCURVE",
"390 580 CURVE SMOOTH",
"496 580 OFFCURVE",
"578 517 OFFCURVE",
"607 425 CURVE",
"743 425 LINE",
"708 598 OFFCURVE",
"565 710 OFFCURVE",
"390 710 CURVE SMOOTH",
"180 710 OFFCURVE",
"30 554 OFFCURVE",
"30 350 CURVE SMOOTH",
"30 146 OFFCURVE",
"180 -10 OFFCURVE",
"390 -10 CURVE SMOOTH",
"589 -10 OFFCURVE",
"717 129 OFFCURVE",
"743 275 CURVE",
"607 275 LINE"
);
},
{
closed = 1;
nodes = (
"113 862 LINE",
"386 760 LINE",
"659 862 LINE",
"648 882 LINE",
"396 790 LINE",
"376 790 LINE",
"124 882 LINE"
);
}
);
};
components = (
{
alignment = -1;
name = C.big;
},
{
alignment = -1;
name = caroncomb;
transform = "{1, 0, 0, 1, 83, 0}";
}
);
layerId = m002;
width = 773;
}
);
leftKerningGroup = O;
rightKerningGroup = O;
unicode = 010C;
},
{
glyphname = Ccedilla;
lastChange = "2023-04-27 11:52:18 +0000";
layers = (
{
background = {
paths = (
{
closed = 1;
nodes = (
"577 184 OFFCURVE",
"496 122 OFFCURVE",
"390 122 CURVE SMOOTH",
"255 122 OFFCURVE",
"160 220 OFFCURVE",
"160 350 CURVE SMOOTH",
"160 482 OFFCURVE",
"255 580 OFFCURVE",
"390 580 CURVE SMOOTH",
"496 580 OFFCURVE",
"578 517 OFFCURVE",
"607 425 CURVE",
"743 425 LINE",
"708 598 OFFCURVE",
"565 710 OFFCURVE",
"390 710 CURVE SMOOTH",
"180 710 OFFCURVE",
"30 554 OFFCURVE",
"30 350 CURVE SMOOTH",
"30 146 OFFCURVE",
"180 -10 OFFCURVE",
"390 -10 CURVE SMOOTH",
"589 -10 OFFCURVE",
"717 129 OFFCURVE",
"743 275 CURVE",
"607 275 LINE"
);
},
{
closed = 1;
nodes = (
"381 -55 OFFCURVE",
"416 -61 OFFCURVE",
"422 -88 CURVE SMOOTH",
"427 -111 OFFCURVE",
"413 -131 OFFCURVE",
"389 -131 CURVE SMOOTH",
"360 -131 OFFCURVE",
"340 -108 OFFCURVE",
"354 -63 CURVE",
"323 -59 LINE",
"304 -111 OFFCURVE",
"335 -167 OFFCURVE",
"389 -167 CURVE SMOOTH",
"432 -167 OFFCURVE",
"457 -131 OFFCURVE",
"457 -100 CURVE SMOOTH",
"457 -46 OFFCURVE",
"413 -46 OFFCURVE",
"413 0 CURVE",
"381 0 LINE"
);
}
);
};
components = (
{
alignment = -1;
name = C.big;
},
{
alignment = -1;
name = cedillacomb;
transform = "{1, 0, 0, 1, 287, 0}";
}
);
layerId = "96BCCF85-5232-4835-A4EF-A1D5F093B6B0";
width = 773;
},
{
background = {
paths = (
{
closed = 1;
nodes = (
"577 184 OFFCURVE",
"496 122 OFFCURVE",
"390 122 CURVE SMOOTH",
"255 122 OFFCURVE",
"160 220 OFFCURVE",
"160 350 CURVE SMOOTH",
"160 482 OFFCURVE",
"255 580 OFFCURVE",
"390 580 CURVE SMOOTH",
"496 580 OFFCURVE",
"578 517 OFFCURVE",
"607 425 CURVE",
"743 425 LINE",
"708 598 OFFCURVE",
"565 710 OFFCURVE",
"390 710 CURVE SMOOTH",
"180 710 OFFCURVE",
"30 554 OFFCURVE",
"30 350 CURVE SMOOTH",
"30 146 OFFCURVE",
"180 -10 OFFCURVE",
"390 -10 CURVE SMOOTH",
"589 -10 OFFCURVE",
"717 129 OFFCURVE",
"743 275 CURVE",
"607 275 LINE"
);
},
{
closed = 1;
nodes = (
"381 -55 OFFCURVE",
"416 -61 OFFCURVE",
"422 -88 CURVE SMOOTH",
"427 -111 OFFCURVE",
"413 -131 OFFCURVE",
"389 -131 CURVE SMOOTH",
"360 -131 OFFCURVE",
"340 -108 OFFCURVE",
"354 -63 CURVE",
"323 -59 LINE",
"304 -111 OFFCURVE",
"335 -167 OFFCURVE",
"389 -167 CURVE SMOOTH",
"432 -167 OFFCURVE",
"457 -131 OFFCURVE",
"457 -100 CURVE SMOOTH",
"457 -46 OFFCURVE",
"413 -46 OFFCURVE",
"413 0 CURVE",
"381 0 LINE"
);
}
);
};
components = (
{
alignment = -1;
name = C.big;
},
{
alignment = -1;
name = cedillacomb;
transform = "{1, 0, 0, 1, 287, 0}";
}
);
layerId = m002;
width = 773;
}
);
leftKerningGroup = O;
rightKerningGroup = O;
unicode = 00C7;
},
{
glyphname = Cdotaccent;
lastChange = "2023-04-27 11:52:18 +0000";
layers = (
{
background = {
paths = (
{
closed = 1;
nodes = (
"577 184 OFFCURVE",
"496 122 OFFCURVE",
"390 122 CURVE SMOOTH",
"255 122 OFFCURVE",
"160 220 OFFCURVE",
"160 350 CURVE SMOOTH",
"160 482 OFFCURVE",
"255 580 OFFCURVE",
"390 580 CURVE SMOOTH",
"496 580 OFFCURVE",
"578 517 OFFCURVE",
"607 425 CURVE",
"743 425 LINE",
"708 598 OFFCURVE",
"565 710 OFFCURVE",
"390 710 CURVE SMOOTH",
"180 710 OFFCURVE",
"30 554 OFFCURVE",
"30 350 CURVE SMOOTH",
"30 146 OFFCURVE",
"180 -10 OFFCURVE",
"390 -10 CURVE SMOOTH",
"589 -10 OFFCURVE",
"717 129 OFFCURVE",
"743 275 CURVE",
"607 275 LINE"
);
},
{
closed = 1;
nodes = (
"341 761 LINE",
"435 761 LINE",
"435 865 LINE",
"341 865 LINE"
);
}
);
};
components = (
{
alignment = -1;
name = C.big;
},
{
alignment = -1;
name = dotaccentcomb;
transform = "{1, 0, 0, 1, 297, 0}";
}
);
layerId = "96BCCF85-5232-4835-A4EF-A1D5F093B6B0";
width = 773;
},
{
background = {
paths = (
{
closed = 1;
nodes = (
"577 184 OFFCURVE",
"496 122 OFFCURVE",
"390 122 CURVE SMOOTH",
"255 122 OFFCURVE",
"160 220 OFFCURVE",
"160 350 CURVE SMOOTH",
"160 482 OFFCURVE",
"255 580 OFFCURVE",
"390 580 CURVE SMOOTH",
"496 580 OFFCURVE",
"578 517 OFFCURVE",
"607 425 CURVE",
"743 425 LINE",
"708 598 OFFCURVE",
"565 710 OFFCURVE",
"390 710 CURVE SMOOTH",
"180 710 OFFCURVE",
"30 554 OFFCURVE",
"30 350 CURVE SMOOTH",
"30 146 OFFCURVE",
"180 -10 OFFCURVE",
"390 -10 CURVE SMOOTH",
"589 -10 OFFCURVE",
"717 129 OFFCURVE",
"743 275 CURVE",
"607 275 LINE"
);
},
{
closed = 1;
nodes = (
"419 761 OFFCURVE",
"445 787 OFFCURVE",
"445 819 CURVE",
"445 852 OFFCURVE",
"419 877 OFFCURVE",
"386 877 CURVE",
"354 877 OFFCURVE",
"328 852 OFFCURVE",
"328 819 CURVE",
"328 787 OFFCURVE",
"354 761 OFFCURVE",
"386 761 CURVE"
);
}
);
};
components = (
{
alignment = -1;
name = C.big;
},
{
alignment = -1;
name = dotaccentcomb;
transform = "{1, 0, 0, 1, 297, 0}";
}
);
layerId = m002;
width = 773;
}
);
leftKerningGroup = O;
rightKerningGroup = O;
unicode = 010A;
},
{
glyphname = D;
lastChange = "2023-04-27 11:52:59 +0000";
layers = (
{
anchors = (
{
name = bottom;
position = "{207, 0}";
},
{
name = center;
position = "{207, 350}";
},
{
name = top;
position = "{207, 700}";
}
);
background = {
paths = (
{
closed = 1;
nodes = (
"205 0 LINE",
"302 0 OFFCURVE",
"380 78 OFFCURVE",
"380 175 CURVE",
"380 525 LINE",
"380 622 OFFCURVE",
"302 700 OFFCURVE",
"205 700 CURVE",
"30 700 LINE",
"30 0 LINE"
);
},
{
closed = 1;
nodes = (
"179 570 LINE",
"207 570 LINE",
"220 570 OFFCURVE",
"230 559 OFFCURVE",
"230 547 CURVE",
"230 152 LINE",
"230 140 OFFCURVE",
"220 129 OFFCURVE",
"207 129 CURVE",
"179 129 LINE"
);
}
);
};
components = (
{
alignment = -1;
name = d;
}
);
layerId = "96BCCF85-5232-4835-A4EF-A1D5F093B6B0";
width = 414;
},
{
anchors = (
{
name = bottom;
position = "{207, 0}";
},
{
name = center;
position = "{207, 350}";
},
{
name = top;
position = "{207, 700}";
}
);
background = {
paths = (
{
closed = 1;
nodes = (
"205 0 LINE",
"302 0 OFFCURVE",
"380 78 OFFCURVE",
"380 175 CURVE",
"380 525 LINE",
"380 622 OFFCURVE",
"302 700 OFFCURVE",
"205 700 CURVE",
"30 700 LINE",
"30 0 LINE"
);
},
{
closed = 1;
nodes = (
"179 570 LINE",
"207 570 LINE",
"220 570 OFFCURVE",
"230 559 OFFCURVE",
"230 547 CURVE",
"230 152 LINE",
"230 140 OFFCURVE",
"220 129 OFFCURVE",
"207 129 CURVE",
"179 129 LINE"
);
}
);
};
components = (
{
alignment = -1;
name = d;
}
);
layerId = m002;
width = 414;
}
);
leftKerningGroup = H;
leftMetricsKey = B;
rightKerningGroup = o;
unicode = 0044;
},
{
glyphname = Dcaron;
lastChange = "2023-04-27 11:52:18 +0000";
layers = (
{
background = {
paths = (
{
closed = 1;
nodes = (
"292 0 LINE",
"485 0 OFFCURVE",
"642 157 OFFCURVE",
"642 350 CURVE",
"642 543 OFFCURVE",
"485 700 OFFCURVE",
"292 700 CURVE",
"30 700 LINE",
"30 0 LINE"
);
},
{
closed = 1;
nodes = (
"177 570 LINE",
"275 570 LINE",
"396 570 OFFCURVE",
"494 471 OFFCURVE",
"494 350 CURVE",
"494 229 OFFCURVE",
"396 131 OFFCURVE",
"275 131 CURVE",
"177 131 LINE"
);
},
{
closed = 1;
nodes = (
"90 844 LINE",
"303 737 LINE",
"516 844 LINE",
"495 882 LINE",
"313 790 LINE",
"293 790 LINE",
"111 882 LINE"
);
}
);
};
components = (
{
alignment = -1;
name = caron;
}
);
layerId = "96BCCF85-5232-4835-A4EF-A1D5F093B6B0";
paths = (
{
closed = 1;
nodes = (
"292 0 LINE",
"485 0 OFFCURVE",
"642 157 OFFCURVE",
"642 350 CURVE",
"642 543 OFFCURVE",
"485 700 OFFCURVE",
"292 700 CURVE",
"30 700 LINE",
"30 0 LINE"
);
},
{
closed = 1;
nodes = (
"177 570 LINE",
"275 570 LINE",
"396 570 OFFCURVE",
"494 471 OFFCURVE",
"494 350 CURVE",
"494 229 OFFCURVE",
"396 131 OFFCURVE",
"275 131 CURVE",
"177 131 LINE"
);
}
);
width = 672;
},
{
background = {
paths = (
{
closed = 1;
nodes = (
"292 0 LINE",
"485 0 OFFCURVE",
"642 157 OFFCURVE",
"642 350 CURVE",
"642 543 OFFCURVE",
"485 700 OFFCURVE",
"292 700 CURVE",
"30 700 LINE",
"30 0 LINE"
);
},
{
closed = 1;
nodes = (
"177 570 LINE",
"275 570 LINE",
"396 570 OFFCURVE",
"494 471 OFFCURVE",
"494 350 CURVE",
"494 229 OFFCURVE",
"396 131 OFFCURVE",
"275 131 CURVE",
"177 131 LINE"
);
},
{
closed = 1;
nodes = (
"30 862 LINE",
"303 760 LINE",
"576 862 LINE",
"565 882 LINE",
"313 790 LINE",
"293 790 LINE",
"41 882 LINE"
);
}
);
};
components = (
{
alignment = -1;
name = caron;
}
);
layerId = m002;
paths = (
{
closed = 1;
nodes = (
"292 0 LINE",
"485 0 OFFCURVE",
"642 157 OFFCURVE",
"642 350 CURVE",
"642 543 OFFCURVE",
"485 700 OFFCURVE",
"292 700 CURVE",
"30 700 LINE",
"30 0 LINE"
);
},
{
closed = 1;
nodes = (
"177 570 LINE",
"275 570 LINE",
"396 570 OFFCURVE",
"494 471 OFFCURVE",
"494 350 CURVE",
"494 229 OFFCURVE",
"396 131 OFFCURVE",
"275 131 CURVE",
"177 131 LINE"
);
}
);
width = 672;
}
);
leftKerningGroup = H;
rightKerningGroup = O;
unicode = 010E;
},
{
glyphname = Dcroat;
lastChange = "2023-04-27 11:52:18 +0000";
layers = (
{
background = {
paths = (
{
closed = 1;
nodes = (
"380 0 LINE",
"573 0 OFFCURVE",
"730 157 OFFCURVE",
"730 350 CURVE",
"730 543 OFFCURVE",
"573 700 OFFCURVE",
"380 700 CURVE",
"118 700 LINE",
"118 385 LINE",
"30 385 LINE",
"30 315 LINE",
"118 315 LINE",
"118 0 LINE"
);
},
{
closed = 1;
nodes = (
"263 315 LINE",
"387 315 LINE",
"387 385 LINE",
"263 385 LINE",
"263 570 LINE",
"361 570 LINE",
"482 570 OFFCURVE",
"580 471 OFFCURVE",
"580 350 CURVE",
"580 229 OFFCURVE",
"482 131 OFFCURVE",
"361 131 CURVE",
"263 131 LINE"
);
}
);
};
components = (
{
alignment = -1;
name = dcroat;
}
);
guideLines = (
{
angle = 90;
position = "{675, 362}";
}
);
layerId = "96BCCF85-5232-4835-A4EF-A1D5F093B6B0";
width = 760;
},
{
background = {
paths = (
{
closed = 1;
nodes = (
"380 0 LINE",
"573 0 OFFCURVE",
"730 157 OFFCURVE",
"730 350 CURVE",
"730 543 OFFCURVE",
"573 700 OFFCURVE",
"380 700 CURVE",
"118 700 LINE",
"118 385 LINE",
"30 385 LINE",
"30 315 LINE",
"118 315 LINE",
"118 0 LINE"
);
},
{
closed = 1;
nodes = (
"263 315 LINE",
"387 315 LINE",
"387 385 LINE",
"263 385 LINE",
"263 570 LINE",
"361 570 LINE",
"482 570 OFFCURVE",
"580 471 OFFCURVE",
"580 350 CURVE",
"580 229 OFFCURVE",
"482 131 OFFCURVE",
"361 131 CURVE",
"263 131 LINE"
);
}
);
};
components = (
{
alignment = -1;
name = dcroat;
}
);
guideLines = (
{
angle = 90;
position = "{675, 362}";
}
);
layerId = m002;
width = 760;
}
);
leftKerningGroup = Dcroat;
rightKerningGroup = O;
unicode = 0110;
},
{
glyphname = Eth;
lastChange = "2023-04-27 11:52:18 +0000";
layers = (
{
background = {
paths = (
{
closed = 1;
nodes = (
"380 0 LINE",
"573 0 OFFCURVE",
"730 157 OFFCURVE",
"730 350 CURVE",
"730 543 OFFCURVE",
"573 700 OFFCURVE",
"380 700 CURVE",
"118 700 LINE",
"118 385 LINE",
"30 385 LINE",
"30 315 LINE",
"118 315 LINE",
"118 0 LINE"
);
},
{
closed = 1;
nodes = (
"263 315 LINE",
"387 315 LINE",
"387 385 LINE",
"263 385 LINE",
"263 570 LINE",
"361 570 LINE",
"482 570 OFFCURVE",
"580 471 OFFCURVE",
"580 350 CURVE",
"580 229 OFFCURVE",
"482 131 OFFCURVE",
"361 131 CURVE",
"263 131 LINE"
);
}
);
};
components = (
{
alignment = -1;
name = Dcroat;
}
);
layerId = "96BCCF85-5232-4835-A4EF-A1D5F093B6B0";
width = 760;
},
{
background = {
paths = (
{
closed = 1;
nodes = (
"380 0 LINE",
"573 0 OFFCURVE",
"730 157 OFFCURVE",
"730 350 CURVE",
"730 543 OFFCURVE",
"573 700 OFFCURVE",
"380 700 CURVE",
"118 700 LINE",
"118 385 LINE",
"30 385 LINE",
"30 315 LINE",
"118 315 LINE",
"118 0 LINE"
);
},
{
closed = 1;
nodes = (
"263 315 LINE",
"387 315 LINE",
"387 385 LINE",
"263 385 LINE",
"263 570 LINE",
"361 570 LINE",
"482 570 OFFCURVE",
"580 471 OFFCURVE",
"580 350 CURVE",
"580 229 OFFCURVE",
"482 131 OFFCURVE",
"361 131 CURVE",
"263 131 LINE"
);
}
);
};
components = (
{
alignment = -1;
name = Dcroat;
}
);
layerId = m002;
width = 760;
}
);
leftKerningGroup = Dcroat;
rightKerningGroup = O;
unicode = 00D0;
},
{
glyphname = E;
lastChange = "2023-04-27 11:52:59 +0000";
layers = (
{
anchors = (
{
name = bottom;
position = "{170, 0}";
},
{
name = ogonek;
position = "{306, 10}";
},
{
name = top;
position = "{170, 700}";
},
{
name = topleft;
position = "{20, 700}";
}
);
background = {
paths = (
{
closed = 1;
nodes = (
"310 0 LINE",
"310 129 LINE",
"179 129 LINE",
"179 275 LINE",
"266 275 LINE",
"266 425 LINE",
"179 425 LINE",
"179 570 LINE",
"310 570 LINE",
"310 700 LINE",
"30 700 LINE",
"30 0 LINE"
);
}
);
};
layerId = "96BCCF85-5232-4835-A4EF-A1D5F093B6B0";
paths = (
{
closed = 1;
nodes = (
"310 0 LINE",
"310 129 LINE",
"179 129 LINE",
"179 275 LINE",
"266 275 LINE",
"266 425 LINE",
"179 425 LINE",
"179 570 LINE",
"310 570 LINE",
"310 700 LINE",
"30 700 LINE",
"30 0 LINE"
);
}
);
width = 340;
},
{
anchors = (
{
name = bottom;
position = "{170, 0}";
},
{
name = ogonek;
position = "{306, 10}";
},
{
name = top;
position = "{170, 700}";
},
{
name = topleft;
position = "{20, 700}";
}
);
background = {
paths = (
{
closed = 1;
nodes = (
"310 0 LINE",
"310 129 LINE",
"179 129 LINE",
"179 275 LINE",
"266 275 LINE",
"266 425 LINE",
"179 425 LINE",
"179 570 LINE",
"310 570 LINE",
"310 700 LINE",
"30 700 LINE",
"30 0 LINE"
);
}
);
};
layerId = m002;
paths = (
{
closed = 1;
nodes = (
"310 0 LINE",
"310 129 LINE",
"179 129 LINE",
"179 275 LINE",
"266 275 LINE",
"266 425 LINE",
"179 425 LINE",
"179 570 LINE",
"310 570 LINE",
"310 700 LINE",
"30 700 LINE",
"30 0 LINE"
);
}
);
width = 340;
}
);
leftKerningGroup = H;
leftMetricsKey = B;
rightKerningGroup = e;
unicode = 0045;
},
{
glyphname = Eacute;
lastChange = "2023-04-27 11:52:18 +0000";
layers = (
{
background = {
paths = (
{
closed = 1;
nodes = (
"180 570 LINE",
"180 425 LINE",
"573 425 LINE",
"573 275 LINE",
"180 275 LINE",
"180 129 LINE",
"660 129 LINE",
"660 0 LINE",
"30 0 LINE",
"30 700 LINE",
"660 700 LINE",
"660 570 LINE"
);
},
{
closed = 1;
nodes = (
"172 750 LINE",
"526 815 LINE",
"518 858 LINE",
"164 793 LINE"
);
}
);
};
components = (
{
alignment = -1;
name = E.big;
},
{
alignment = -1;
name = acutecomb;
transform = "{1, 0, 0, 1, 134, -10}";
}
);
guideLines = (
{
angle = 90;
position = "{345, 703}";
}
);
layerId = "96BCCF85-5232-4835-A4EF-A1D5F093B6B0";
width = 690;
},
{
background = {
paths = (
{
closed = 1;
nodes = (
"180 570 LINE",
"180 425 LINE",
"573 425 LINE",
"573 275 LINE",
"180 275 LINE",
"180 129 LINE",
"660 129 LINE",
"660 0 LINE",
"30 0 LINE",
"30 700 LINE",
"660 700 LINE",
"660 570 LINE"
);
},
{
closed = 1;
nodes = (
"345 760 LINE",
"482 966 LINE",
"482 981 LINE",
"442 981 LINE",
"325 760 LINE"
);
}
);
};
components = (
{
alignment = -1;
name = E.big;
},
{
alignment = -1;
name = acutecomb;
transform = "{1, 0, 0, 1, 295, 0}";
}
);
guideLines = (
{
angle = 90;
position = "{345, 703}";
}
);
layerId = m002;
width = 690;
}
);
leftKerningGroup = H;
leftMetricsKey = B;
rightKerningGroup = E;
unicode = 00C9;
},
{
glyphname = Ecaron;
lastChange = "2023-04-27 11:52:18 +0000";
layers = (
{
background = {
paths = (
{
closed = 1;
nodes = (
"180 570 LINE",
"180 425 LINE",
"573 425 LINE",
"573 275 LINE",
"180 275 LINE",
"180 129 LINE",
"660 129 LINE",
"660 0 LINE",
"30 0 LINE",
"30 700 LINE",
"660 700 LINE",
"660 570 LINE"
);
},
{
closed = 1;
nodes = (
"132 844 LINE",
"345 737 LINE",
"558 844 LINE",
"537 882 LINE",
"355 790 LINE",
"335 790 LINE",
"153 882 LINE"
);
}
);
};
components = (
{
alignment = -1;
name = E.big;
},
{
alignment = -1;
name = caroncomb;
transform = "{1, 0, 0, 1, 42, 0}";
}
);
layerId = "96BCCF85-5232-4835-A4EF-A1D5F093B6B0";
width = 690;
},
{
background = {
paths = (
{
closed = 1;
nodes = (
"180 570 LINE",
"180 425 LINE",
"573 425 LINE",
"573 275 LINE",
"180 275 LINE",
"180 129 LINE",
"660 129 LINE",
"660 0 LINE",
"30 0 LINE",
"30 700 LINE",
"660 700 LINE",
"660 570 LINE"
);
},
{
closed = 1;
nodes = (
"72 862 LINE",
"345 760 LINE",
"618 862 LINE",
"607 882 LINE",
"355 790 LINE",
"335 790 LINE",
"83 882 LINE"
);
}
);
};
components = (
{
alignment = -1;
name = E.big;
},
{
alignment = -1;
name = caroncomb;
transform = "{1, 0, 0, 1, 42, 0}";
}
);
layerId = m002;
width = 690;
}
);
leftKerningGroup = H;
rightKerningGroup = E;
unicode = 011A;
},
{
glyphname = Ecircumflex;
lastChange = "2023-04-27 11:52:18 +0000";
layers = (
{
background = {
paths = (
{
closed = 1;
nodes = (
"180 570 LINE",
"180 425 LINE",
"573 425 LINE",
"573 275 LINE",
"180 275 LINE",
"180 129 LINE",
"660 129 LINE",
"660 0 LINE",
"30 0 LINE",
"30 700 LINE",
"660 700 LINE",
"660 570 LINE"
);
},
{
closed = 1;
nodes = (
"335 832 LINE",
"355 832 LINE",
"537 740 LINE",
"558 778 LINE",
"345 885 LINE",
"132 778 LINE",
"153 740 LINE"
);
}
);
};
components = (
{
alignment = -1;
name = E.big;
},
{
alignment = -1;
name = circumflexcomb;
transform = "{1, 0, 0, 1, 42, -20}";
}
);
layerId = "96BCCF85-5232-4835-A4EF-A1D5F093B6B0";
width = 690;
},
{
background = {
paths = (
{
closed = 1;
nodes = (
"180 570 LINE",
"180 425 LINE",
"573 425 LINE",
"573 275 LINE",
"180 275 LINE",
"180 129 LINE",
"660 129 LINE",
"660 0 LINE",
"30 0 LINE",
"30 700 LINE",
"660 700 LINE",
"660 570 LINE"
);
},
{
closed = 1;
nodes = (
"335 832 LINE",
"355 832 LINE",
"607 740 LINE",
"618 760 LINE",
"345 862 LINE",
"72 760 LINE",
"83 740 LINE"
);
}
);
};
components = (
{
alignment = -1;
name = E.big;
},
{
alignment = -1;
name = circumflexcomb;
transform = "{1, 0, 0, 1, 42, -20}";
}
);
layerId = m002;
width = 690;
}
);
leftKerningGroup = H;
leftMetricsKey = B;
rightKerningGroup = E;
unicode = 00CA;
},
{
glyphname = Ecircumflexacute;
lastChange = "2023-04-27 11:52:18 +0000";
layers = (
{
background = {
paths = (
{
closed = 1;
nodes = (
"180 570 LINE",
"180 425 LINE",
"573 425 LINE",
"573 275 LINE",
"180 275 LINE",
"180 129 LINE",
"660 129 LINE",
"660 0 LINE",
"30 0 LINE",
"30 700 LINE",
"660 700 LINE",
"660 570 LINE"
);
},
{
closed = 1;
nodes = (
"528 848 LINE",
"743 948 LINE",
"724 986 LINE",
"506 884 LINE"
);
},
{
closed = 1;
nodes = (
"335 832 LINE",
"355 832 LINE",
"537 740 LINE",
"558 778 LINE",
"345 885 LINE",
"132 778 LINE",
"153 740 LINE"
);
}
);
};
components = (
{
alignment = -1;
name = E.big;
},
{
alignment = -1;
name = circumflexcomb_acutecomb;
transform = "{1, 0, 0, 1, 42, -20}";
}
);
layerId = "96BCCF85-5232-4835-A4EF-A1D5F093B6B0";
width = 690;
},
{
background = {
paths = (
{
closed = 1;
nodes = (
"180 570 LINE",
"180 425 LINE",
"573 425 LINE",
"573 275 LINE",
"180 275 LINE",
"180 129 LINE",
"660 129 LINE",
"660 0 LINE",
"30 0 LINE",
"30 700 LINE",
"660 700 LINE",
"660 570 LINE"
);
},
{
closed = 1;
nodes = (
"335 832 LINE",
"355 832 LINE",
"607 740 LINE",
"618 760 LINE",
"345 862 LINE",
"72 760 LINE",
"83 740 LINE"
);
},
{
closed = 1;
nodes = (
"481 862 LINE",
"618 1068 LINE",
"618 1083 LINE",
"578 1083 LINE",
"461 862 LINE"
);
}
);
};
components = (
{
alignment = -1;
name = E.big;
},
{
alignment = -1;
name = circumflexcomb_acutecomb;
transform = "{1, 0, 0, 1, 42, -20}";
}
);
layerId = m002;
width = 690;
}
);
leftKerningGroup = H;
leftMetricsKey = B;
rightKerningGroup = E;
unicode = 1EBE;
},
{
glyphname = Ecircumflexdotbelow;
lastChange = "2023-04-27 11:52:18 +0000";
layers = (
{
background = {
paths = (
{
closed = 1;
nodes = (
"180 570 LINE",
"180 425 LINE",
"573 425 LINE",
"573 275 LINE",
"180 275 LINE",
"180 129 LINE",
"660 129 LINE",
"660 0 LINE",
"30 0 LINE",
"30 700 LINE",
"660 700 LINE",
"660 570 LINE"
);
},
{
closed = 1;
nodes = (
"425 -46 LINE",
"425 -137 LINE",
"265 -137 LINE",
"265 -46 LINE"
);
},
{
closed = 1;
nodes = (
"335 832 LINE",
"355 832 LINE",
"537 740 LINE",
"558 778 LINE",
"345 885 LINE",
"132 778 LINE",
"153 740 LINE"
);
}
);
};
components = (
{
alignment = -1;
name = E.big;
},
{
alignment = -1;
name = dotbelowcomb;
transform = "{1, 0, 0, 1, 235, 0}";
},
{
alignment = -1;
name = circumflexcomb;
transform = "{1, 0, 0, 1, 42, -20}";
}
);
layerId = "96BCCF85-5232-4835-A4EF-A1D5F093B6B0";
width = 690;
},
{
background = {
paths = (
{
closed = 1;
nodes = (
"180 570 LINE",
"180 425 LINE",
"573 425 LINE",
"573 275 LINE",
"180 275 LINE",
"180 129 LINE",
"660 129 LINE",
"660 0 LINE",
"30 0 LINE",
"30 700 LINE",
"660 700 LINE",
"660 570 LINE"
);
},
{
closed = 1;
nodes = (
"425 -46 LINE",
"425 -137 LINE",
"265 -137 LINE",
"265 -46 LINE"
);
},
{
closed = 1;
nodes = (
"335 832 LINE",
"355 832 LINE",
"607 740 LINE",
"618 760 LINE",
"345 862 LINE",
"72 760 LINE",
"83 740 LINE"
);
}
);
};
components = (
{
alignment = -1;
name = E.big;
},
{
alignment = -1;
name = dotbelowcomb;
transform = "{1, 0, 0, 1, 235, 0}";
},
{
alignment = -1;
name = circumflexcomb;
transform = "{1, 0, 0, 1, 42, -20}";
}
);
layerId = m002;
width = 690;
}
);
leftKerningGroup = H;
leftMetricsKey = B;
rightKerningGroup = E;
unicode = 1EC6;
},
{
glyphname = Ecircumflexgrave;
lastChange = "2023-04-27 11:52:18 +0000";
layers = (
{
background = {
paths = (
{
closed = 1;
nodes = (
"180 570 LINE",
"180 425 LINE",
"573 425 LINE",
"573 275 LINE",
"180 275 LINE",
"180 129 LINE",
"660 129 LINE",
"660 0 LINE",
"30 0 LINE",
"30 700 LINE",
"660 700 LINE",
"660 570 LINE"
);
},
{
closed = 1;
nodes = (
"396 978 LINE",
"376 941 LINE",
"592 840 LINE",
"613 877 LINE"
);
},
{
closed = 1;
nodes = (
"335 832 LINE",
"355 832 LINE",
"537 740 LINE",
"558 778 LINE",
"345 885 LINE",
"132 778 LINE",
"153 740 LINE"
);
}
);
};
components = (
{
alignment = -1;
name = E.big;
},
{
alignment = -1;
name = circumflexcomb_gravecomb;
transform = "{1, 0, 0, 1, 42, -20}";
}
);
layerId = "96BCCF85-5232-4835-A4EF-A1D5F093B6B0";
width = 690;
},
{
background = {
paths = (
{
closed = 1;
nodes = (
"180 570 LINE",
"180 425 LINE",
"573 425 LINE",
"573 275 LINE",
"180 275 LINE",
"180 129 LINE",
"660 129 LINE",
"660 0 LINE",
"30 0 LINE",
"30 700 LINE",
"660 700 LINE",
"660 570 LINE"
);
},
{
closed = 1;
nodes = (
"335 832 LINE",
"355 832 LINE",
"607 740 LINE",
"618 760 LINE",
"345 862 LINE",
"72 760 LINE",
"83 740 LINE"
);
},
{
closed = 1;
nodes = (
"443 1061 LINE",
"403 1061 LINE",
"403 1046 LINE",
"540 840 LINE",
"560 840 LINE"
);
}
);
};
components = (
{
alignment = -1;
name = E.big;
},
{
alignment = -1;
name = circumflexcomb_gravecomb;
transform = "{1, 0, 0, 1, 42, -20}";
}
);
layerId = m002;
width = 690;
}
);
leftKerningGroup = H;
leftMetricsKey = B;
rightKerningGroup = E;
unicode = 1EC0;
},
{
glyphname = Ecircumflexhookabove;
lastChange = "2023-04-27 11:52:18 +0000";
layers = (
{
background = {
paths = (
{
closed = 1;
nodes = (
"180 570 LINE",
"180 425 LINE",
"573 425 LINE",
"573 275 LINE",
"180 275 LINE",
"180 129 LINE",
"660 129 LINE",
"660 0 LINE",
"30 0 LINE",
"30 700 LINE",
"660 700 LINE",
"660 570 LINE"
);
},
{
closed = 1;
nodes = (
"503 877 LINE",
"503 925 OFFCURVE",
"564 912 OFFCURVE",
"564 973 CURVE SMOOTH",
"564 1013 OFFCURVE",
"526 1043 OFFCURVE",
"478 1043 CURVE SMOOTH",
"429 1043 OFFCURVE",
"391 1012 OFFCURVE",
"391 973 CURVE",
"391 962 LINE",
"435 962 LINE",
"435 968 LINE SMOOTH",
"435 990 OFFCURVE",
"451 1003 OFFCURVE",
"478 1003 CURVE SMOOTH",
"505 1003 OFFCURVE",
"520 990 OFFCURVE",
"520 973 CURVE SMOOTH",
"520 938 OFFCURVE",
"459 945 OFFCURVE",
"459 877 CURVE"
);
},
{
closed = 1;
nodes = (
"335 832 LINE",
"355 832 LINE",
"537 740 LINE",
"558 778 LINE",
"345 885 LINE",
"132 778 LINE",
"153 740 LINE"
);
}
);
};
components = (
{
alignment = -1;
name = E.big;
},
{
alignment = -1;
name = circumflexcomb_hookabovecomb;
transform = "{1, 0, 0, 1, 42, -20}";
}
);
layerId = "96BCCF85-5232-4835-A4EF-A1D5F093B6B0";
width = 690;
},
{
background = {
paths = (
{
closed = 1;
nodes = (
"180 570 LINE",
"180 425 LINE",
"573 425 LINE",
"573 275 LINE",
"180 275 LINE",
"180 129 LINE",
"660 129 LINE",
"660 0 LINE",
"30 0 LINE",
"30 700 LINE",
"660 700 LINE",
"660 570 LINE"
);
},
{
closed = 1;
nodes = (
"335 832 LINE",
"355 832 LINE",
"607 740 LINE",
"618 760 LINE",
"345 862 LINE",
"72 760 LINE",
"83 740 LINE"
);
},
{
closed = 1;
nodes = (
"580 987 LINE SMOOTH",
"600 1044 OFFCURVE",
"557 1090 OFFCURVE",
"509 1084 CURVE SMOOTH",
"458 1078 OFFCURVE",
"430 1028 OFFCURVE",
"449 976 CURVE",
"480 980 LINE",
"466 1025 OFFCURVE",
"489 1046 OFFCURVE",
"510 1048 CURVE SMOOTH",
"536 1051 OFFCURVE",
"563 1030 OFFCURVE",
"548 987 CURVE SMOOTH",
"497 840 LINE",
"527 840 LINE"
);
}
);
};
components = (
{
alignment = -1;
name = E.big;
},
{
alignment = -1;
name = circumflexcomb_hookabovecomb;
transform = "{1, 0, 0, 1, 42, -20}";
}
);
layerId = m002;
width = 690;
}
);
leftKerningGroup = H;
leftMetricsKey = B;
rightKerningGroup = E;
unicode = 1EC2;
},
{
glyphname = Ecircumflextilde;
lastChange = "2023-04-27 11:52:18 +0000";
layers = (
{
background = {
paths = (
{
closed = 1;
nodes = (
"180 570 LINE",
"180 425 LINE",
"573 425 LINE",
"573 275 LINE",
"180 275 LINE",
"180 129 LINE",
"660 129 LINE",
"660 0 LINE",
"30 0 LINE",
"30 700 LINE",
"660 700 LINE",
"660 570 LINE"
);
},
{
closed = 1;
nodes = (
"335 832 LINE",
"355 832 LINE",
"537 740 LINE",
"558 778 LINE",
"345 885 LINE",
"132 778 LINE",
"153 740 LINE"
);
},
{
closed = 1;
nodes = (
"205 906 LINE",
"208 939 OFFCURVE",
"226 971 OFFCURVE",
"267 974 CURVE SMOOTH",
"318 978 OFFCURVE",
"357 915 OFFCURVE",
"425 906 CURVE SMOOTH",
"491 897 OFFCURVE",
"531 930 OFFCURVE",
"531 1003 CURVE",
"485 1003 LINE",
"485 967 OFFCURVE",
"474 931 OFFCURVE",
"419 950 CURVE SMOOTH",
"371 967 OFFCURVE",
"331 1019 OFFCURVE",
"261 1014 CURVE SMOOTH",
"182 1008 OFFCURVE",
"159 942 OFFCURVE",
"159 906 CURVE"
);
}
);
};
components = (
{
alignment = -1;
name = E.big;
},
{
alignment = -1;
name = circumflexcomb_tildecomb;
transform = "{1, 0, 0, 1, 42, -20}";
}
);
layerId = "96BCCF85-5232-4835-A4EF-A1D5F093B6B0";
width = 690;
},
{
background = {
paths = (
{
closed = 1;
nodes = (
"180 570 LINE",
"180 425 LINE",
"573 425 LINE",
"573 275 LINE",
"180 275 LINE",
"180 129 LINE",
"660 129 LINE",
"660 0 LINE",
"30 0 LINE",
"30 700 LINE",
"660 700 LINE",
"660 570 LINE"
);
},
{
closed = 1;
nodes = (
"335 832 LINE",
"355 832 LINE",
"607 740 LINE",
"618 760 LINE",
"345 862 LINE",
"72 760 LINE",
"83 740 LINE"
);
},
{
closed = 1;
nodes = (
"185 888 LINE",
"185 921 OFFCURVE",
"210 954 OFFCURVE",
"256 952 CURVE SMOOTH",
"315 949 OFFCURVE",
"372 896 OFFCURVE",
"447 888 CURVE SMOOTH",
"494 883 OFFCURVE",
"535 912 OFFCURVE",
"535 978 CURVE",
"505 978 LINE",
"505 949 OFFCURVE",
"502 906 OFFCURVE",
"434 916 CURVE SMOOTH",
"386 923 OFFCURVE",
"333 970 OFFCURVE",
"261 978 CURVE SMOOTH",
"190 986 OFFCURVE",
"155 924 OFFCURVE",
"155 888 CURVE"
);
}
);
};
components = (
{
alignment = -1;
name = E.big;
},
{
alignment = -1;
name = circumflexcomb_tildecomb;
transform = "{1, 0, 0, 1, 42, -20}";
}
);
layerId = m002;
width = 690;
}
);
leftKerningGroup = H;
leftMetricsKey = B;
rightKerningGroup = E;
unicode = 1EC4;
},
{
glyphname = Edieresis;
lastChange = "2023-04-27 11:52:18 +0000";
layers = (
{
background = {
paths = (
{
closed = 1;
nodes = (
"180 570 LINE",
"180 425 LINE",
"573 425 LINE",
"573 275 LINE",
"180 275 LINE",
"180 129 LINE",
"660 129 LINE",
"660 0 LINE",
"30 0 LINE",
"30 700 LINE",
"660 700 LINE",
"660 570 LINE"
);
},
{
closed = 1;
nodes = (
"226 761 LINE",
"320 761 LINE",
"320 865 LINE",
"226 865 LINE"
);
},
{
closed = 1;
nodes = (
"374 761 LINE",
"468 761 LINE",
"468 865 LINE",
"374 865 LINE"
);
}
);
};
components = (
{
alignment = -1;
name = E.big;
},
{
alignment = -1;
name = dieresiscomb;
transform = "{1, 0, 0, 1, 182, 0}";
}
);
layerId = "96BCCF85-5232-4835-A4EF-A1D5F093B6B0";
width = 690;
},
{
background = {
paths = (
{
closed = 1;
nodes = (
"180 570 LINE",
"180 425 LINE",
"573 425 LINE",
"573 275 LINE",
"180 275 LINE",
"180 129 LINE",
"660 129 LINE",
"660 0 LINE",
"30 0 LINE",
"30 700 LINE",
"660 700 LINE",
"660 570 LINE"
);
},
{
closed = 1;
nodes = (
"304 761 OFFCURVE",
"330 787 OFFCURVE",
"330 819 CURVE",
"330 852 OFFCURVE",
"304 877 OFFCURVE",
"271 877 CURVE",
"239 877 OFFCURVE",
"213 852 OFFCURVE",
"213 819 CURVE",
"213 787 OFFCURVE",
"239 761 OFFCURVE",
"271 761 CURVE"
);
},
{
closed = 1;
nodes = (
"452 761 OFFCURVE",
"478 787 OFFCURVE",
"478 819 CURVE",
"478 852 OFFCURVE",
"452 877 OFFCURVE",
"419 877 CURVE",
"387 877 OFFCURVE",
"361 852 OFFCURVE",
"361 819 CURVE",
"361 787 OFFCURVE",
"387 761 OFFCURVE",
"419 761 CURVE"
);
}
);
};
components = (
{
alignment = -1;
name = E.big;
},
{
alignment = -1;
name = dieresiscomb;
transform = "{1, 0, 0, 1, 182, 0}";
}
);
layerId = m002;
width = 690;
}
);
leftKerningGroup = H;
rightKerningGroup = E;
unicode = 00CB;
},
{
glyphname = Edotaccent;
lastChange = "2023-04-27 11:52:18 +0000";
layers = (
{
background = {
paths = (
{
closed = 1;
nodes = (
"180 570 LINE",
"180 425 LINE",
"573 425 LINE",
"573 275 LINE",
"180 275 LINE",
"180 129 LINE",
"660 129 LINE",
"660 0 LINE",
"30 0 LINE",
"30 700 LINE",
"660 700 LINE",
"660 570 LINE"
);
},
{
closed = 1;
nodes = (
"300 761 LINE",
"394 761 LINE",
"394 865 LINE",
"300 865 LINE"
);
}
);
};
components = (
{
alignment = -1;
name = E.big;
},
{
alignment = -1;
name = dotaccentcomb;
transform = "{1, 0, 0, 1, 256, 0}";
}
);
layerId = "96BCCF85-5232-4835-A4EF-A1D5F093B6B0";
width = 690;
},
{
background = {
paths = (
{
closed = 1;
nodes = (
"180 570 LINE",
"180 425 LINE",
"573 425 LINE",
"573 275 LINE",
"180 275 LINE",
"180 129 LINE",
"660 129 LINE",
"660 0 LINE",
"30 0 LINE",
"30 700 LINE",
"660 700 LINE",
"660 570 LINE"
);
},
{
closed = 1;
nodes = (
"378 761 OFFCURVE",
"404 787 OFFCURVE",
"404 819 CURVE",
"404 852 OFFCURVE",
"378 877 OFFCURVE",
"345 877 CURVE",
"313 877 OFFCURVE",
"287 852 OFFCURVE",
"287 819 CURVE",
"287 787 OFFCURVE",
"313 761 OFFCURVE",
"345 761 CURVE"
);
}
);
};
components = (
{
alignment = -1;
name = E.big;
},
{
alignment = -1;
name = dotaccentcomb;
transform = "{1, 0, 0, 1, 256, 0}";
}
);
layerId = m002;
width = 690;
}
);
leftKerningGroup = H;
rightKerningGroup = E;
unicode = 0116;
},
{
glyphname = Edotbelow;
lastChange = "2023-04-27 11:52:18 +0000";
layers = (
{
background = {
paths = (
{
closed = 1;
nodes = (
"180 570 LINE",
"180 425 LINE",
"573 425 LINE",
"573 275 LINE",
"180 275 LINE",
"180 129 LINE",
"660 129 LINE",
"660 0 LINE",
"30 0 LINE",
"30 700 LINE",
"660 700 LINE",
"660 570 LINE"
);
},
{
closed = 1;
nodes = (
"425 -46 LINE",
"425 -137 LINE",
"265 -137 LINE",
"265 -46 LINE"
);
}
);
};
components = (
{
alignment = -1;
name = E.big;
},
{
alignment = -1;
name = dotbelowcomb;
transform = "{1, 0, 0, 1, 235, 0}";
}
);
layerId = "96BCCF85-5232-4835-A4EF-A1D5F093B6B0";
width = 690;
},
{
background = {
paths = (
{
closed = 1;
nodes = (
"180 570 LINE",
"180 425 LINE",
"573 425 LINE",
"573 275 LINE",
"180 275 LINE",
"180 129 LINE",
"660 129 LINE",
"660 0 LINE",
"30 0 LINE",
"30 700 LINE",
"660 700 LINE",
"660 570 LINE"
);
},
{
closed = 1;
nodes = (
"425 -46 LINE",
"425 -137 LINE",
"265 -137 LINE",
"265 -46 LINE"
);
}
);
};
components = (
{
alignment = -1;
name = E.big;
},
{
alignment = -1;
name = dotbelowcomb;
transform = "{1, 0, 0, 1, 235, 0}";
}
);
layerId = m002;
width = 690;
}
);
leftKerningGroup = H;
leftMetricsKey = B;
rightKerningGroup = E;
unicode = 1EB8;
},
{
glyphname = Egrave;
lastChange = "2023-04-27 11:52:18 +0000";
layers = (
{
background = {
paths = (
{
closed = 1;
nodes = (
"180 570 LINE",
"180 425 LINE",
"573 425 LINE",
"573 275 LINE",
"180 275 LINE",
"180 129 LINE",
"660 129 LINE",
"660 0 LINE",
"30 0 LINE",
"30 700 LINE",
"660 700 LINE",
"660 570 LINE"
);
},
{
closed = 1;
nodes = (
"172 858 LINE",
"164 815 LINE",
"518 750 LINE",
"526 793 LINE"
);
}
);
};
components = (
{
alignment = -1;
name = E.big;
},
{
alignment = -1;
name = gravecomb;
transform = "{1, 0, 0, 1, 134, -10}";
}
);
layerId = "96BCCF85-5232-4835-A4EF-A1D5F093B6B0";
width = 690;
},
{
background = {
paths = (
{
closed = 1;
nodes = (
"180 570 LINE",
"180 425 LINE",
"573 425 LINE",
"573 275 LINE",
"180 275 LINE",
"180 129 LINE",
"660 129 LINE",
"660 0 LINE",
"30 0 LINE",
"30 700 LINE",
"660 700 LINE",
"660 570 LINE"
);
},
{
closed = 1;
nodes = (
"307 981 LINE",
"267 981 LINE",
"267 966 LINE",
"404 760 LINE",
"424 760 LINE"
);
}
);
};
components = (
{
alignment = -1;
name = E.big;
},
{
alignment = -1;
name = gravecomb;
transform = "{1, 0, 0, 1, 237, 0}";
}
);
layerId = m002;
width = 690;
}
);
leftKerningGroup = H;
leftMetricsKey = B;
rightKerningGroup = E;
unicode = 00C8;
},
{
glyphname = Ehookabove;
lastChange = "2023-04-27 11:52:18 +0000";
layers = (
{
background = {
paths = (
{
closed = 1;
nodes = (
"180 570 LINE",
"180 425 LINE",
"573 425 LINE",
"573 275 LINE",
"180 275 LINE",
"180 129 LINE",
"660 129 LINE",
"660 0 LINE",
"30 0 LINE",
"30 700 LINE",
"660 700 LINE",
"660 570 LINE"
);
},
{
closed = 1;
nodes = (
"388 760 LINE",
"388 805 OFFCURVE",
"477 773 OFFCURVE",
"477 848 CURVE SMOOTH",
"477 896 OFFCURVE",
"426 926 OFFCURVE",
"361 926 CURVE SMOOTH",
"295 926 OFFCURVE",
"244 896 OFFCURVE",
"244 848 CURVE SMOOTH",
"244 838 LINE",
"294 838 LINE",
"294 846 LINE SMOOTH",
"294 874 OFFCURVE",
"333 881 OFFCURVE",
"361 881 CURVE SMOOTH",
"388 881 OFFCURVE",
"427 874 OFFCURVE",
"427 848 CURVE SMOOTH",
"427 809 OFFCURVE",
"333 832 OFFCURVE",
"333 760 CURVE"
);
}
);
};
components = (
{
alignment = -1;
name = E.big;
},
{
alignment = -1;
name = hookabovecomb;
transform = "{1, 0, 0, 1, 244, -30}";
}
);
layerId = "96BCCF85-5232-4835-A4EF-A1D5F093B6B0";
width = 690;
},
{
background = {
paths = (
{
closed = 1;
nodes = (
"180 570 LINE",
"180 425 LINE",
"573 425 LINE",
"573 275 LINE",
"180 275 LINE",
"180 129 LINE",
"660 129 LINE",
"660 0 LINE",
"30 0 LINE",
"30 700 LINE",
"660 700 LINE",
"660 570 LINE"
);
},
{
closed = 1;
nodes = (
"411 907 LINE SMOOTH",
"431 964 OFFCURVE",
"388 1010 OFFCURVE",
"340 1004 CURVE SMOOTH",
"289 998 OFFCURVE",
"261 948 OFFCURVE",
"280 896 CURVE",
"311 900 LINE",
"297 945 OFFCURVE",
"320 966 OFFCURVE",
"341 968 CURVE SMOOTH",
"367 971 OFFCURVE",
"394 950 OFFCURVE",
"379 907 CURVE SMOOTH",
"328 760 LINE",
"358 760 LINE"
);
}
);
};
components = (
{
alignment = -1;
name = E.big;
},
{
alignment = -1;
name = hookabovecomb;
transform = "{1, 0, 0, 1, 244, -30}";
}
);
layerId = m002;
width = 690;
}
);
leftKerningGroup = H;
leftMetricsKey = B;
rightKerningGroup = E;
unicode = 1EBA;
},
{
glyphname = Emacron;
lastChange = "2023-04-27 11:52:18 +0000";
layers = (
{
background = {
paths = (
{
closed = 1;
nodes = (
"180 570 LINE",
"180 425 LINE",
"573 425 LINE",
"573 275 LINE",
"180 275 LINE",
"180 129 LINE",
"660 129 LINE",
"660 0 LINE",
"30 0 LINE",
"30 700 LINE",
"660 700 LINE",
"660 570 LINE"
);
},
{
closed = 1;
nodes = (
"547 760 LINE",
"547 804 LINE",
"142 804 LINE",
"142 760 LINE"
);
}
);
};
components = (
{
alignment = -1;
name = E.big;
},
{
alignment = -1;
name = macroncomb;
transform = "{1, 0, 0, 1, 52, 0}";
}
);
layerId = "96BCCF85-5232-4835-A4EF-A1D5F093B6B0";
width = 690;
},
{
background = {
paths = (
{
closed = 1;
nodes = (
"180 570 LINE",
"180 425 LINE",
"573 425 LINE",
"573 275 LINE",
"180 275 LINE",
"180 129 LINE",
"660 129 LINE",
"660 0 LINE",
"30 0 LINE",
"30 700 LINE",
"660 700 LINE",
"660 570 LINE"
);
},
{
closed = 1;
nodes = (
"607 760 LINE",
"607 790 LINE",
"82 790 LINE",
"82 760 LINE"
);
}
);
};
components = (
{
alignment = -1;
name = E.big;
},
{
alignment = -1;
name = macroncomb;
transform = "{1, 0, 0, 1, 52, 0}";
}
);
layerId = m002;
width = 690;
}
);
leftKerningGroup = H;
rightKerningGroup = E;
unicode = 0112;
},
{
glyphname = Eogonek;
lastChange = "2023-04-27 11:52:18 +0000";
layers = (
{
background = {
paths = (
{
closed = 1;
nodes = (
"180 570 LINE",
"180 425 LINE",
"573 425 LINE",
"573 275 LINE",
"180 275 LINE",
"180 129 LINE",
"660 129 LINE",
"660 0 LINE",
"30 0 LINE",
"30 700 LINE",
"660 700 LINE",
"660 570 LINE"
);
},
{
closed = 1;
nodes = (
"319 0 LINE",
"319 -46 OFFCURVE",
"275 -46 OFFCURVE",
"275 -100 CURVE SMOOTH",
"275 -131 OFFCURVE",
"300 -167 OFFCURVE",
"343 -167 CURVE SMOOTH",
"397 -167 OFFCURVE",
"428 -111 OFFCURVE",
"409 -59 CURVE",
"378 -63 LINE",
"392 -108 OFFCURVE",
"372 -131 OFFCURVE",
"343 -131 CURVE SMOOTH",
"319 -131 OFFCURVE",
"305 -111 OFFCURVE",
"310 -88 CURVE SMOOTH",
"316 -61 OFFCURVE",
"351 -55 OFFCURVE",
"351 0 CURVE"
);
}
);
};
components = (
{
alignment = -1;
name = E.big;
},
{
alignment = -1;
name = ogonekcomb;
transform = "{1, 0, 0, 1, 245, 0}";
}
);
guideLines = (
{
position = "{343, -167}";
}
);
layerId = "96BCCF85-5232-4835-A4EF-A1D5F093B6B0";
width = 690;
},
{
background = {
paths = (
{
closed = 1;
nodes = (
"180 570 LINE",
"180 425 LINE",
"573 425 LINE",
"573 275 LINE",
"180 275 LINE",
"180 129 LINE",
"660 129 LINE",
"660 0 LINE",
"30 0 LINE",
"30 700 LINE",
"660 700 LINE",
"660 570 LINE"
);
},
{
closed = 1;
nodes = (
"319 0 LINE",
"319 -46 OFFCURVE",
"275 -46 OFFCURVE",
"275 -100 CURVE SMOOTH",
"275 -131 OFFCURVE",
"300 -167 OFFCURVE",
"343 -167 CURVE SMOOTH",
"397 -167 OFFCURVE",
"428 -111 OFFCURVE",
"409 -59 CURVE",
"378 -63 LINE",
"392 -108 OFFCURVE",
"372 -131 OFFCURVE",
"343 -131 CURVE SMOOTH",
"319 -131 OFFCURVE",
"305 -111 OFFCURVE",
"310 -88 CURVE SMOOTH",
"316 -61 OFFCURVE",
"351 -55 OFFCURVE",
"351 0 CURVE"
);
}
);
};
components = (
{
alignment = -1;
name = E.big;
},
{
alignment = -1;
name = ogonekcomb;
transform = "{1, 0, 0, 1, 245, 0}";
}
);
layerId = m002;
width = 690;
}
);
leftKerningGroup = H;
rightKerningGroup = E;
unicode = 0118;
},
{
glyphname = Etilde;
lastChange = "2023-04-27 11:52:18 +0000";
layers = (
{
background = {
paths = (
{
closed = 1;
nodes = (
"180 570 LINE",
"180 425 LINE",
"573 425 LINE",
"573 275 LINE",
"180 275 LINE",
"180 129 LINE",
"660 129 LINE",
"660 0 LINE",
"30 0 LINE",
"30 700 LINE",
"660 700 LINE",
"660 570 LINE"
);
},
{
closed = 1;
nodes = (
"205 760 LINE",
"208 793 OFFCURVE",
"226 825 OFFCURVE",
"267 828 CURVE SMOOTH",
"318 832 OFFCURVE",
"357 769 OFFCURVE",
"425 760 CURVE SMOOTH",
"491 751 OFFCURVE",
"531 784 OFFCURVE",
"531 857 CURVE",
"485 857 LINE",
"485 821 OFFCURVE",
"474 785 OFFCURVE",
"419 804 CURVE SMOOTH",
"371 821 OFFCURVE",
"331 873 OFFCURVE",
"261 868 CURVE SMOOTH",
"182 862 OFFCURVE",
"159 796 OFFCURVE",
"159 760 CURVE"
);
}
);
};
components = (
{
alignment = -1;
name = E.big;
},
{
alignment = -1;
name = tildecomb;
transform = "{1, 0, 0, 1, 125, -28}";
}
);
layerId = "96BCCF85-5232-4835-A4EF-A1D5F093B6B0";
width = 690;
},
{
background = {
paths = (
{
closed = 1;
nodes = (
"180 570 LINE",
"180 425 LINE",
"573 425 LINE",
"573 275 LINE",
"180 275 LINE",
"180 129 LINE",
"660 129 LINE",
"660 0 LINE",
"30 0 LINE",
"30 700 LINE",
"660 700 LINE",
"660 570 LINE"
);
},
{
closed = 1;
nodes = (
"185 760 LINE",
"185 793 OFFCURVE",
"210 826 OFFCURVE",
"256 824 CURVE SMOOTH",
"315 821 OFFCURVE",
"372 768 OFFCURVE",
"447 760 CURVE SMOOTH",
"494 755 OFFCURVE",
"535 784 OFFCURVE",
"535 850 CURVE",
"505 850 LINE",
"505 821 OFFCURVE",
"502 778 OFFCURVE",
"434 788 CURVE SMOOTH",
"386 795 OFFCURVE",
"333 842 OFFCURVE",
"261 850 CURVE SMOOTH",
"190 858 OFFCURVE",
"155 796 OFFCURVE",
"155 760 CURVE"
);
}
);
};
components = (
{
alignment = -1;
name = E.big;
},
{
alignment = -1;
name = tildecomb;
transform = "{1, 0, 0, 1, 125, -28}";
}
);
layerId = m002;
width = 690;
}
);
leftKerningGroup = H;
leftMetricsKey = B;
rightKerningGroup = E;
unicode = 1EBC;
},
{
glyphname = F;
lastChange = "2023-04-27 11:52:59 +0000";
layers = (
{
anchors = (
{
name = bottom;
position = "{170, 0}";
},
{
name = top;
position = "{170, 700}";
}
);
background = {
paths = (
{
closed = 1;
nodes = (
"179 0 LINE",
"179 275 LINE",
"266 275 LINE",
"266 425 LINE",
"179 425 LINE",
"179 550 LINE",
"310 550 LINE",
"310 700 LINE",
"30 700 LINE",
"30 0 LINE"
);
}
);
};
components = (
{
alignment = -1;
name = f;
}
);
layerId = "96BCCF85-5232-4835-A4EF-A1D5F093B6B0";
width = 340;
},
{
anchors = (
{
name = bottom;
position = "{170, 0}";
},
{
name = top;
position = "{170, 700}";
}
);
background = {
paths = (
{
closed = 1;
nodes = (
"179 0 LINE",
"179 275 LINE",
"266 275 LINE",
"266 425 LINE",
"179 425 LINE",
"179 550 LINE",
"310 550 LINE",
"310 700 LINE",
"30 700 LINE",
"30 0 LINE"
);
}
);
};
components = (
{
alignment = -1;
name = f;
}
);
layerId = m002;
width = 340;
}
);
leftKerningGroup = H;
rightKerningGroup = f;
unicode = 0046;
},
{
glyphname = G;
lastChange = "2023-04-27 11:52:59 +0000";
layers = (
{
anchors = (
{
name = bottom;
position = "{233, 0}";
},
{
name = top;
position = "{233, 700}";
}
);
background = {
paths = (
{
closed = 1;
nodes = (
"217 -10 OFFCURVE",
"274 9 OFFCURVE",
"285 35 CURVE",
"300 35 LINE",
"300 0 LINE",
"435 0 LINE",
"435 389 LINE",
"232 389 LINE",
"232 249 LINE",
"300 249 LINE",
"300 185 LINE",
"300 155 OFFCURVE",
"269 129 OFFCURVE",
"239 129 CURVE",
"209 129 OFFCURVE",
"179 155 OFFCURVE",
"179 185 CURVE",
"179 520 LINE",
"179 550 OFFCURVE",
"208 570 OFFCURVE",
"233 570 CURVE",
"258 570 OFFCURVE",
"287 550 OFFCURVE",
"287 520 CURVE",
"287 464 LINE",
"435 464 LINE",
"435 535 LINE",
"435 632 OFFCURVE",
"330 710 OFFCURVE",
"233 710 CURVE",
"136 710 OFFCURVE",
"30 632 OFFCURVE",
"30 535 CURVE",
"30 165 LINE",
"30 68 OFFCURVE",
"82 -10 OFFCURVE",
"179 -10 CURVE"
);
}
);
};
guideLines = (
{
angle = 90;
position = "{265, 73}";
},
{
position = "{233, 35}";
},
{
angle = 90;
position = "{228, 35}";
},
{
angle = 90;
position = "{239, 155}";
},
{
angle = 90;
position = "{405, 441}";
},
{
angle = 90;
position = "{233, 572}";
}
);
layerId = "96BCCF85-5232-4835-A4EF-A1D5F093B6B0";
paths = (
{
closed = 1;
nodes = (
"217 -10 OFFCURVE",
"274 9 OFFCURVE",
"285 35 CURVE",
"300 35 LINE",
"300 0 LINE",
"435 0 LINE",
"435 389 LINE",
"232 389 LINE",
"232 249 LINE",
"300 249 LINE",
"300 185 LINE",
"300 155 OFFCURVE",
"269 129 OFFCURVE",
"239 129 CURVE",
"209 129 OFFCURVE",
"179 155 OFFCURVE",
"179 185 CURVE",
"179 520 LINE",
"179 550 OFFCURVE",
"208 570 OFFCURVE",
"233 570 CURVE",
"258 570 OFFCURVE",
"287 550 OFFCURVE",
"287 520 CURVE",
"287 464 LINE",
"435 464 LINE",
"435 535 LINE",
"435 632 OFFCURVE",
"330 710 OFFCURVE",
"233 710 CURVE",
"136 710 OFFCURVE",
"30 632 OFFCURVE",
"30 535 CURVE",
"30 165 LINE",
"30 68 OFFCURVE",
"82 -10 OFFCURVE",
"179 -10 CURVE"
);
}
);
width = 465;
},
{
anchors = (
{
name = bottom;
position = "{205, 0}";
},
{
name = top;
position = "{205, 700}";
}
);
background = {
paths = (
{
closed = 1;
nodes = (
"217 -10 OFFCURVE",
"240 9 OFFCURVE",
"251 35 CURVE",
"261 35 LINE",
"261 0 LINE",
"380 0 LINE",
"380 389 LINE",
"232 389 LINE",
"232 239 LINE",
"232 240 LINE",
"232 155 LINE",
"232 141 OFFCURVE",
"220 129 OFFCURVE",
"205 129 CURVE",
"191 129 OFFCURVE",
"179 141 OFFCURVE",
"179 155 CURVE",
"179 543 LINE",
"179 558 OFFCURVE",
"191 570 OFFCURVE",
"205 570 CURVE",
"220 570 OFFCURVE",
"232 558 OFFCURVE",
"232 543 CURVE",
"232 464 LINE",
"380 464 LINE",
"380 535 LINE",
"380 632 OFFCURVE",
"302 710 OFFCURVE",
"205 710 CURVE",
"108 710 OFFCURVE",
"30 632 OFFCURVE",
"30 535 CURVE",
"30 165 LINE",
"30 68 OFFCURVE",
"82 -10 OFFCURVE",
"179 -10 CURVE"
);
}
);
};
guideLines = (
{
angle = 90;
position = "{265, 73}";
},
{
position = "{233, 35}";
},
{
angle = 90;
position = "{228, 35}";
}
);
layerId = m002;
paths = (
{
closed = 1;
nodes = (
"217 -10 OFFCURVE",
"240 9 OFFCURVE",
"251 35 CURVE",
"261 35 LINE",
"261 0 LINE",
"380 0 LINE",
"380 389 LINE",
"232 389 LINE",
"232 239 LINE",
"232 240 LINE",
"232 155 LINE",
"232 141 OFFCURVE",
"220 129 OFFCURVE",
"205 129 CURVE",
"191 129 OFFCURVE",
"179 141 OFFCURVE",
"179 155 CURVE",
"179 543 LINE",
"179 558 OFFCURVE",
"191 570 OFFCURVE",
"205 570 CURVE",
"220 570 OFFCURVE",
"232 558 OFFCURVE",
"232 543 CURVE",
"232 464 LINE",
"380 464 LINE",
"380 535 LINE",
"380 632 OFFCURVE",
"302 710 OFFCURVE",
"205 710 CURVE",
"108 710 OFFCURVE",
"30 632 OFFCURVE",
"30 535 CURVE",
"30 165 LINE",
"30 68 OFFCURVE",
"82 -10 OFFCURVE",
"179 -10 CURVE"
);
}
);
width = 410;
}
);
leftKerningGroup = o;
rightKerningGroup = G;
unicode = 0047;
},
{
glyphname = Gbreve;
lastChange = "2023-04-27 11:52:18 +0000";
layers = (
{
background = {
paths = (
{
closed = 1;
nodes = (
"583 167 OFFCURVE",
"496 122 OFFCURVE",
"390 122 CURVE SMOOTH",
"255 122 OFFCURVE",
"160 220 OFFCURVE",
"160 350 CURVE SMOOTH",
"160 482 OFFCURVE",
"255 580 OFFCURVE",
"390 580 CURVE SMOOTH",
"486 580 OFFCURVE",
"562 528 OFFCURVE",
"597 450 CURVE",
"737 450 LINE",
"694 609 OFFCURVE",
"556 710 OFFCURVE",
"390 710 CURVE SMOOTH",
"180 710 OFFCURVE",
"30 554 OFFCURVE",
"30 350 CURVE SMOOTH",
"30 146 OFFCURVE",
"180 -10 OFFCURVE",
"390 -10 CURVE SMOOTH",
"515 -10 OFFCURVE",
"571 49 OFFCURVE",
"597 88 CURVE",
"607 88 LINE",
"607 275 LINE"
);
},
{
closed = 1;
nodes = (
"390 250 LINE",
"607 250 LINE",
"607 15 LINE",
"743 15 LINE",
"743 350 LINE",
"390 350 LINE"
);
},
{
closed = 1;
nodes = (
"493 740 OFFCURVE",
"577 790 OFFCURVE",
"577 851 CURVE",
"526 851 LINE",
"520 809 OFFCURVE",
"467 782 OFFCURVE",
"387 782 CURVE SMOOTH",
"310 782 OFFCURVE",
"254 809 OFFCURVE",
"247 851 CURVE",
"197 851 LINE",
"197 790 OFFCURVE",
"282 740 OFFCURVE",
"387 740 CURVE SMOOTH"
);
}
);
};
components = (
{
alignment = -1;
name = G.big;
},
{
alignment = -1;
name = brevecomb;
transform = "{1, 0, 0, 1, 107, 0}";
}
);
guideLines = (
{
position = "{-15, 350}";
}
);
layerId = "96BCCF85-5232-4835-A4EF-A1D5F093B6B0";
width = 773;
},
{
background = {
paths = (
{
closed = 1;
nodes = (
"583 167 OFFCURVE",
"496 122 OFFCURVE",
"390 122 CURVE SMOOTH",
"255 122 OFFCURVE",
"160 220 OFFCURVE",
"160 350 CURVE SMOOTH",
"160 482 OFFCURVE",
"255 580 OFFCURVE",
"390 580 CURVE SMOOTH",
"486 580 OFFCURVE",
"562 528 OFFCURVE",
"597 450 CURVE",
"737 450 LINE",
"694 609 OFFCURVE",
"556 710 OFFCURVE",
"390 710 CURVE SMOOTH",
"180 710 OFFCURVE",
"30 554 OFFCURVE",
"30 350 CURVE SMOOTH",
"30 146 OFFCURVE",
"180 -10 OFFCURVE",
"390 -10 CURVE SMOOTH",
"515 -10 OFFCURVE",
"571 49 OFFCURVE",
"597 88 CURVE",
"607 88 LINE",
"607 275 LINE"
);
},
{
closed = 1;
nodes = (
"390 250 LINE",
"607 250 LINE",
"607 15 LINE",
"743 15 LINE",
"743 350 LINE",
"390 350 LINE"
);
},
{
closed = 1;
nodes = (
"526 740 OFFCURVE",
"637 798 OFFCURVE",
"637 870 CURVE",
"605 870 LINE",
"606 817 OFFCURVE",
"526 770 OFFCURVE",
"387 770 CURVE SMOOTH",
"248 770 OFFCURVE",
"170 817 OFFCURVE",
"170 870 CURVE",
"137 870 LINE",
"137 798 OFFCURVE",
"248 740 OFFCURVE",
"387 740 CURVE SMOOTH"
);
}
);
};
components = (
{
alignment = -1;
name = G.big;
},
{
alignment = -1;
name = brevecomb;
transform = "{1, 0, 0, 1, 107, 0}";
}
);
guideLines = (
{
position = "{-15, 350}";
}
);
layerId = m002;
width = 773;
}
);
leftKerningGroup = O;
rightKerningGroup = H;
unicode = 011E;
},
{
glyphname = Gcommaaccent;
lastChange = "2023-04-27 11:52:18 +0000";
layers = (
{
background = {
paths = (
{
closed = 1;
nodes = (
"583 167 OFFCURVE",
"496 122 OFFCURVE",
"390 122 CURVE SMOOTH",
"255 122 OFFCURVE",
"160 220 OFFCURVE",
"160 350 CURVE SMOOTH",
"160 482 OFFCURVE",
"255 580 OFFCURVE",
"390 580 CURVE SMOOTH",
"486 580 OFFCURVE",
"562 528 OFFCURVE",
"597 450 CURVE",
"737 450 LINE",
"694 609 OFFCURVE",
"556 710 OFFCURVE",
"390 710 CURVE SMOOTH",
"180 710 OFFCURVE",
"30 554 OFFCURVE",
"30 350 CURVE SMOOTH",
"30 146 OFFCURVE",
"180 -10 OFFCURVE",
"390 -10 CURVE SMOOTH",
"515 -10 OFFCURVE",
"571 49 OFFCURVE",
"597 88 CURVE",
"607 88 LINE",
"607 275 LINE"
);
},
{
closed = 1;
nodes = (
"390 250 LINE",
"607 250 LINE",
"607 15 LINE",
"743 15 LINE",
"743 350 LINE",
"390 350 LINE"
);
},
{
closed = 1;
nodes = (
"392 -170 LINE",
"410 -56 LINE",
"410 -46 LINE",
"362 -46 LINE",
"362 -170 LINE"
);
}
);
};
components = (
{
alignment = -1;
name = G.big;
},
{
alignment = -1;
name = commaaccentcomb;
transform = "{1, 0, 0, 1, 332, 0}";
}
);
layerId = "96BCCF85-5232-4835-A4EF-A1D5F093B6B0";
width = 773;
},
{
background = {
paths = (
{
closed = 1;
nodes = (
"583 167 OFFCURVE",
"496 122 OFFCURVE",
"390 122 CURVE SMOOTH",
"255 122 OFFCURVE",
"160 220 OFFCURVE",
"160 350 CURVE SMOOTH",
"160 482 OFFCURVE",
"255 580 OFFCURVE",
"390 580 CURVE SMOOTH",
"486 580 OFFCURVE",
"562 528 OFFCURVE",
"597 450 CURVE",
"737 450 LINE",
"694 609 OFFCURVE",
"556 710 OFFCURVE",
"390 710 CURVE SMOOTH",
"180 710 OFFCURVE",
"30 554 OFFCURVE",
"30 350 CURVE SMOOTH",
"30 146 OFFCURVE",
"180 -10 OFFCURVE",
"390 -10 CURVE SMOOTH",
"515 -10 OFFCURVE",
"571 49 OFFCURVE",
"597 88 CURVE",
"607 88 LINE",
"607 275 LINE"
);
},
{
closed = 1;
nodes = (
"390 250 LINE",
"607 250 LINE",
"607 15 LINE",
"743 15 LINE",
"743 350 LINE",
"390 350 LINE"
);
},
{
closed = 1;
nodes = (
"378 -246 LINE",
"456 -66 LINE",
"456 -46 LINE",
"347 -46 LINE",
"317 -246 LINE"
);
}
);
};
components = (
{
alignment = -1;
name = G.big;
},
{
alignment = -1;
name = commaaccentcomb;
transform = "{1, 0, 0, 1, 287, 0}";
}
);
layerId = m002;
width = 773;
}
);
leftKerningGroup = O;
rightKerningGroup = H;
unicode = 0122;
},
{
glyphname = Gdotaccent;
lastChange = "2023-04-27 11:52:18 +0000";
layers = (
{
background = {
paths = (
{
closed = 1;
nodes = (
"583 167 OFFCURVE",
"496 122 OFFCURVE",
"390 122 CURVE SMOOTH",
"255 122 OFFCURVE",
"160 220 OFFCURVE",
"160 350 CURVE SMOOTH",
"160 482 OFFCURVE",
"255 580 OFFCURVE",
"390 580 CURVE SMOOTH",
"486 580 OFFCURVE",
"562 528 OFFCURVE",
"597 450 CURVE",
"737 450 LINE",
"694 609 OFFCURVE",
"556 710 OFFCURVE",
"390 710 CURVE SMOOTH",
"180 710 OFFCURVE",
"30 554 OFFCURVE",
"30 350 CURVE SMOOTH",
"30 146 OFFCURVE",
"180 -10 OFFCURVE",
"390 -10 CURVE SMOOTH",
"515 -10 OFFCURVE",
"571 49 OFFCURVE",
"597 88 CURVE",
"607 88 LINE",
"607 275 LINE"
);
},
{
closed = 1;
nodes = (
"390 250 LINE",
"607 250 LINE",
"607 15 LINE",
"743 15 LINE",
"743 350 LINE",
"390 350 LINE"
);
},
{
closed = 1;
nodes = (
"341 761 LINE",
"435 761 LINE",
"435 865 LINE",
"341 865 LINE"
);
}
);
};
components = (
{
alignment = -1;
name = G.big;
},
{
alignment = -1;
name = dotaccentcomb;
transform = "{1, 0, 0, 1, 297, 0}";
}
);
layerId = "96BCCF85-5232-4835-A4EF-A1D5F093B6B0";
width = 773;
},
{
background = {
paths = (
{
closed = 1;
nodes = (
"583 167 OFFCURVE",
"496 122 OFFCURVE",
"390 122 CURVE SMOOTH",
"255 122 OFFCURVE",
"160 220 OFFCURVE",
"160 350 CURVE SMOOTH",
"160 482 OFFCURVE",
"255 580 OFFCURVE",
"390 580 CURVE SMOOTH",
"486 580 OFFCURVE",
"562 528 OFFCURVE",
"597 450 CURVE",
"737 450 LINE",
"694 609 OFFCURVE",
"556 710 OFFCURVE",
"390 710 CURVE SMOOTH",
"180 710 OFFCURVE",
"30 554 OFFCURVE",
"30 350 CURVE SMOOTH",
"30 146 OFFCURVE",
"180 -10 OFFCURVE",
"390 -10 CURVE SMOOTH",
"515 -10 OFFCURVE",
"571 49 OFFCURVE",
"597 88 CURVE",
"607 88 LINE",
"607 275 LINE"
);
},
{
closed = 1;
nodes = (
"390 250 LINE",
"607 250 LINE",
"607 15 LINE",
"743 15 LINE",
"743 350 LINE",
"390 350 LINE"
);
},
{
closed = 1;
nodes = (
"419 761 OFFCURVE",
"445 787 OFFCURVE",
"445 819 CURVE",
"445 852 OFFCURVE",
"419 877 OFFCURVE",
"386 877 CURVE",
"354 877 OFFCURVE",
"328 852 OFFCURVE",
"328 819 CURVE",
"328 787 OFFCURVE",
"354 761 OFFCURVE",
"386 761 CURVE"
);
}
);
};
components = (
{
alignment = -1;
name = G.big;
},
{
alignment = -1;
name = dotaccentcomb;
transform = "{1, 0, 0, 1, 297, 0}";
}
);
layerId = m002;
width = 773;
}
);
leftKerningGroup = O;
rightKerningGroup = H;
unicode = 0120;
},
{
glyphname = H;
lastChange = "2023-04-27 11:52:59 +0000";
layers = (
{
anchors = (
{
name = bottom;
position = "{205, 0}";
},
{
name = center;
position = "{205, 350}";
},
{
name = top;
position = "{205, 700}";
},
{
name = topleft;
position = "{20, 700}";
}
);
background = {
paths = (
{
closed = 1;
nodes = (
"179 0 LINE",
"179 275 LINE",
"232 275 LINE",
"232 0 LINE",
"380 0 LINE",
"380 700 LINE",
"232 700 LINE",
"232 425 LINE",
"179 425 LINE",
"179 700 LINE",
"30 700 LINE",
"30 0 LINE"
);
}
);
};
components = (
{
alignment = -1;
name = h;
}
);
layerId = "96BCCF85-5232-4835-A4EF-A1D5F093B6B0";
width = 410;
},
{
anchors = (
{
name = bottom;
position = "{205, 0}";
},
{
name = center;
position = "{205, 350}";
},
{
name = top;
position = "{205, 700}";
},
{
name = topleft;
position = "{20, 700}";
}
);
background = {
paths = (
{
closed = 1;
nodes = (
"179 0 LINE",
"179 250 LINE",
"232 250 LINE",
"232 0 LINE",
"380 0 LINE",
"380 700 LINE",
"232 700 LINE",
"232 450 LINE",
"179 450 LINE",
"179 700 LINE",
"30 700 LINE",
"30 0 LINE"
);
}
);
};
components = (
{
alignment = -1;
name = h;
}
);
layerId = m002;
width = 410;
}
);
leftKerningGroup = H;
leftMetricsKey = B;
rightKerningGroup = H;
rightMetricsKey = H;
unicode = 0048;
},
{
glyphname = Hbar;
lastChange = "2023-04-27 11:52:18 +0000";
layers = (
{
background = {
paths = (
{
closed = 1;
nodes = (
"209 0 LINE",
"209 275 LINE",
"542 275 LINE",
"542 0 LINE",
"690 0 LINE",
"690 700 LINE",
"542 700 LINE",
"542 425 LINE",
"209 425 LINE",
"209 700 LINE",
"60 700 LINE",
"60 0 LINE"
);
},
{
closed = 1;
nodes = (
"750 540 LINE",
"750 584 LINE",
"0 584 LINE",
"0 540 LINE"
);
}
);
};
guideLines = (
{
position = "{210, 562}";
}
);
layerId = "96BCCF85-5232-4835-A4EF-A1D5F093B6B0";
paths = (
{
closed = 1;
nodes = (
"209 0 LINE",
"209 275 LINE",
"542 275 LINE",
"542 0 LINE",
"690 0 LINE",
"690 700 LINE",
"542 700 LINE",
"542 425 LINE",
"209 425 LINE",
"209 700 LINE",
"60 700 LINE",
"60 0 LINE"
);
},
{
closed = 1;
nodes = (
"750 540 LINE",
"750 584 LINE",
"0 584 LINE",
"0 540 LINE"
);
}
);
width = 750;
},
{
background = {
paths = (
{
closed = 1;
nodes = (
"209 0 LINE",
"209 275 LINE",
"542 275 LINE",
"542 0 LINE",
"690 0 LINE",
"690 700 LINE",
"542 700 LINE",
"542 425 LINE",
"209 425 LINE",
"209 700 LINE",
"60 700 LINE",
"60 0 LINE"
);
},
{
closed = 1;
nodes = (
"750 547 LINE",
"750 577 LINE",
"0 577 LINE",
"0 547 LINE"
);
}
);
};
guideLines = (
{
position = "{210, 562}";
}
);
layerId = m002;
paths = (
{
closed = 1;
nodes = (
"209 0 LINE",
"209 275 LINE",
"542 275 LINE",
"542 0 LINE",
"690 0 LINE",
"690 700 LINE",
"542 700 LINE",
"542 425 LINE",
"209 425 LINE",
"209 700 LINE",
"60 700 LINE",
"60 0 LINE"
);
},
{
closed = 1;
nodes = (
"750 547 LINE",
"750 577 LINE",
"0 577 LINE",
"0 547 LINE"
);
}
);
width = 750;
}
);
leftKerningGroup = H;
rightKerningGroup = H;
unicode = 0126;
},
{
glyphname = I;
lastChange = "2023-04-27 11:52:59 +0000";
layers = (
{
anchors = (
{
name = bottom;
position = "{106, 0}";
},
{
name = ogonek;
position = "{190, 10}";
},
{
name = top;
position = "{106, 700}";
},
{
name = topleft;
position = "{20, 700}";
}
);
background = {
paths = (
{
closed = 1;
nodes = (
"181 0 LINE",
"181 700 LINE",
"30 700 LINE",
"30 0 LINE"
);
}
);
};
layerId = "96BCCF85-5232-4835-A4EF-A1D5F093B6B0";
paths = (
{
closed = 1;
nodes = (
"181 0 LINE",
"181 700 LINE",
"30 700 LINE",
"30 0 LINE"
);
}
);
width = 211;
},
{
anchors = (
{
name = bottom;
position = "{172, 0}";
},
{
name = ogonek;
position = "{309, 10}";
},
{
name = top;
position = "{172, 700}";
},
{
name = topleft;
position = "{20, 700}";
}
);
background = {
paths = (
{
closed = 1;
nodes = (
"310 0 LINE",
"310 129 LINE",
"245 129 LINE",
"245 570 LINE",
"310 570 LINE",
"310 700 LINE",
"30 700 LINE",
"30 570 LINE",
"94 570 LINE",
"94 129 LINE",
"30 129 LINE",
"30 0 LINE"
);
}
);
};
components = (
{
alignment = -1;
name = i;
}
);
layerId = m002;
width = 343;
}
);
leftKerningGroup = i;
rightKerningGroup = i;
unicode = 0049;
},
{
glyphname = IJ;
lastChange = "2023-04-27 11:52:18 +0000";
layers = (
{
background = {
paths = (
{
closed = 1;
nodes = (
"302 -10 OFFCURVE",
"380 68 OFFCURVE",
"380 165 CURVE",
"380 700 LINE",
"232 700 LINE",
"232 155 LINE",
"232 141 OFFCURVE",
"220 129 OFFCURVE",
"205 129 CURVE",
"191 129 OFFCURVE",
"179 141 OFFCURVE",
"179 155 CURVE",
"179 275 LINE",
"30 275 LINE",
"30 165 LINE",
"30 68 OFFCURVE",
"108 -10 OFFCURVE",
"205 -10 CURVE"
);
},
{
closed = 1;
nodes = (
"30 389 LINE",
"179 389 LINE",
"179 700 LINE",
"30 700 LINE"
);
}
);
};
guideLines = (
{
angle = 90;
position = "{30, 760}";
},
{
angle = 90;
position = "{179, 760}";
}
);
layerId = "96BCCF85-5232-4835-A4EF-A1D5F093B6B0";
paths = (
{
closed = 1;
nodes = (
"302 -10 OFFCURVE",
"380 68 OFFCURVE",
"380 165 CURVE",
"380 700 LINE",
"232 700 LINE",
"232 155 LINE",
"232 141 OFFCURVE",
"220 129 OFFCURVE",
"205 129 CURVE",
"191 129 OFFCURVE",
"179 141 OFFCURVE",
"179 155 CURVE",
"179 275 LINE",
"30 275 LINE",
"30 165 LINE",
"30 68 OFFCURVE",
"108 -10 OFFCURVE",
"205 -10 CURVE"
);
},
{
closed = 1;
nodes = (
"30 389 LINE",
"179 389 LINE",
"179 700 LINE",
"30 700 LINE"
);
}
);
width = 410;
},
{
background = {
paths = (
{
closed = 1;
nodes = (
"302 -10 OFFCURVE",
"380 68 OFFCURVE",
"380 165 CURVE",
"380 700 LINE",
"232 700 LINE",
"232 155 LINE",
"232 141 OFFCURVE",
"220 129 OFFCURVE",
"205 129 CURVE",
"191 129 OFFCURVE",
"179 141 OFFCURVE",
"179 155 CURVE",
"179 275 LINE",
"30 275 LINE",
"30 165 LINE",
"30 68 OFFCURVE",
"108 -10 OFFCURVE",
"205 -10 CURVE"
);
},
{
closed = 1;
nodes = (
"30 389 LINE",
"179 389 LINE",
"179 700 LINE",
"30 700 LINE"
);
}
);
};
guideLines = (
{
angle = 90;
position = "{30, 760}";
},
{
angle = 90;
position = "{179, 760}";
}
);
layerId = m002;
paths = (
{
closed = 1;
nodes = (
"302 -10 OFFCURVE",
"380 68 OFFCURVE",
"380 165 CURVE",
"380 700 LINE",
"232 700 LINE",
"232 155 LINE",
"232 141 OFFCURVE",
"220 129 OFFCURVE",
"205 129 CURVE",
"191 129 OFFCURVE",
"179 141 OFFCURVE",
"179 155 CURVE",
"179 275 LINE",
"30 275 LINE",
"30 165 LINE",
"30 68 OFFCURVE",
"108 -10 OFFCURVE",
"205 -10 CURVE"
);
},
{
closed = 1;
nodes = (
"30 389 LINE",
"179 389 LINE",
"179 700 LINE",
"30 700 LINE"
);
}
);
width = 410;
}
);
leftKerningGroup = u;
rightKerningGroup = u;
unicode = 0132;
},
{
glyphname = Iacute;
lastChange = "2023-04-27 11:52:18 +0000";
layers = (
{
background = {
paths = (
{
closed = 1;
nodes = (
"630 700 LINE",
"630 570 LINE",
"405 570 LINE",
"405 129 LINE",
"630 129 LINE",
"630 0 LINE",
"30 0 LINE",
"30 129 LINE",
"255 129 LINE",
"255 570 LINE",
"30 570 LINE",
"30 700 LINE"
);
},
{
closed = 1;
nodes = (
"157 760 LINE",
"511 825 LINE",
"503 868 LINE",
"149 803 LINE"
);
}
);
};
components = (
{
alignment = -1;
name = I.big;
},
{
alignment = -1;
name = acutecomb;
transform = "{1, 0, 0, 1, 119, 0}";
}
);
guideLines = (
{
angle = 90;
position = "{442, 613}";
},
{
angle = 90;
position = "{330, 703}";
}
);
layerId = "96BCCF85-5232-4835-A4EF-A1D5F093B6B0";
width = 660;
},
{
background = {
paths = (
{
closed = 1;
nodes = (
"630 700 LINE",
"630 570 LINE",
"405 570 LINE",
"405 129 LINE",
"630 129 LINE",
"630 0 LINE",
"30 0 LINE",
"30 129 LINE",
"255 129 LINE",
"255 570 LINE",
"30 570 LINE",
"30 700 LINE"
);
},
{
closed = 1;
nodes = (
"330 760 LINE",
"467 966 LINE",
"467 981 LINE",
"427 981 LINE",
"310 760 LINE"
);
}
);
};
components = (
{
alignment = -1;
name = I.big;
},
{
alignment = -1;
name = acutecomb;
transform = "{1, 0, 0, 1, 280, 0}";
}
);
guideLines = (
{
angle = 90;
position = "{442, 613}";
},
{
angle = 90;
position = "{330, 703}";
}
);
layerId = m002;
width = 660;
}
);
leftKerningGroup = I;
rightKerningGroup = I;
unicode = 00CD;
},
{
glyphname = Icircumflex;
lastChange = "2023-04-27 11:52:18 +0000";
layers = (
{
background = {
paths = (
{
closed = 1;
nodes = (
"630 700 LINE",
"630 570 LINE",
"405 570 LINE",
"405 129 LINE",
"630 129 LINE",
"630 0 LINE",
"30 0 LINE",
"30 129 LINE",
"255 129 LINE",
"255 570 LINE",
"30 570 LINE",
"30 700 LINE"
);
},
{
closed = 1;
nodes = (
"320 832 LINE",
"340 832 LINE",
"522 740 LINE",
"543 778 LINE",
"330 885 LINE",
"117 778 LINE",
"138 740 LINE"
);
}
);
};
components = (
{
alignment = -1;
name = I.big;
},
{
alignment = -1;
name = circumflexcomb;
transform = "{1, 0, 0, 1, 27, -20}";
}
);
layerId = "96BCCF85-5232-4835-A4EF-A1D5F093B6B0";
width = 660;
},
{
background = {
paths = (
{
closed = 1;
nodes = (
"630 700 LINE",
"630 570 LINE",
"405 570 LINE",
"405 129 LINE",
"630 129 LINE",
"630 0 LINE",
"30 0 LINE",
"30 129 LINE",
"255 129 LINE",
"255 570 LINE",
"30 570 LINE",
"30 700 LINE"
);
},
{
closed = 1;
nodes = (
"320 832 LINE",
"340 832 LINE",
"592 740 LINE",
"603 760 LINE",
"330 862 LINE",
"57 760 LINE",
"68 740 LINE"
);
}
);
};
components = (
{
alignment = -1;
name = I.big;
},
{
alignment = -1;
name = circumflexcomb;
transform = "{1, 0, 0, 1, 27, -20}";
}
);
layerId = m002;
width = 660;
}
);
leftKerningGroup = I;
rightKerningGroup = I;
unicode = 00CE;
},
{
glyphname = Idieresis;
lastChange = "2023-04-27 11:52:18 +0000";
layers = (
{
background = {
paths = (
{
closed = 1;
nodes = (
"630 700 LINE",
"630 570 LINE",
"405 570 LINE",
"405 129 LINE",
"630 129 LINE",
"630 0 LINE",
"30 0 LINE",
"30 129 LINE",
"255 129 LINE",
"255 570 LINE",
"30 570 LINE",
"30 700 LINE"
);
},
{
closed = 1;
nodes = (
"211 761 LINE",
"305 761 LINE",
"305 865 LINE",
"211 865 LINE"
);
},
{
closed = 1;
nodes = (
"359 761 LINE",
"453 761 LINE",
"453 865 LINE",
"359 865 LINE"
);
}
);
};
components = (
{
alignment = -1;
name = I.big;
},
{
alignment = -1;
name = dieresiscomb;
transform = "{1, 0, 0, 1, 167, 0}";
}
);
layerId = "96BCCF85-5232-4835-A4EF-A1D5F093B6B0";
width = 660;
},
{
background = {
paths = (
{
closed = 1;
nodes = (
"630 700 LINE",
"630 570 LINE",
"405 570 LINE",
"405 129 LINE",
"630 129 LINE",
"630 0 LINE",
"30 0 LINE",
"30 129 LINE",
"255 129 LINE",
"255 570 LINE",
"30 570 LINE",
"30 700 LINE"
);
},
{
closed = 1;
nodes = (
"289 761 OFFCURVE",
"315 787 OFFCURVE",
"315 819 CURVE",
"315 852 OFFCURVE",
"289 877 OFFCURVE",
"256 877 CURVE",
"224 877 OFFCURVE",
"198 852 OFFCURVE",
"198 819 CURVE",
"198 787 OFFCURVE",
"224 761 OFFCURVE",
"256 761 CURVE"
);
},
{
closed = 1;
nodes = (
"437 761 OFFCURVE",
"463 787 OFFCURVE",
"463 819 CURVE",
"463 852 OFFCURVE",
"437 877 OFFCURVE",
"404 877 CURVE",
"372 877 OFFCURVE",
"346 852 OFFCURVE",
"346 819 CURVE",
"346 787 OFFCURVE",
"372 761 OFFCURVE",
"404 761 CURVE"
);
}
);
};
components = (
{
alignment = -1;
name = I.big;
},
{
alignment = -1;
name = dieresiscomb;
transform = "{1, 0, 0, 1, 167, 0}";
}
);
layerId = m002;
width = 660;
}
);
leftKerningGroup = I;
rightKerningGroup = I;
unicode = 00CF;
},
{
glyphname = Idotaccent;
lastChange = "2023-04-27 11:52:18 +0000";
layers = (
{
background = {
paths = (
{
closed = 1;
nodes = (
"630 700 LINE",
"630 570 LINE",
"405 570 LINE",
"405 129 LINE",
"630 129 LINE",
"630 0 LINE",
"30 0 LINE",
"30 129 LINE",
"255 129 LINE",
"255 570 LINE",
"30 570 LINE",
"30 700 LINE"
);
},
{
closed = 1;
nodes = (
"285 761 LINE",
"379 761 LINE",
"379 865 LINE",
"285 865 LINE"
);
}
);
};
components = (
{
alignment = -1;
name = I.big;
},
{
alignment = -1;
name = dotaccentcomb;
transform = "{1, 0, 0, 1, 241, 0}";
}
);
layerId = "96BCCF85-5232-4835-A4EF-A1D5F093B6B0";
width = 660;
},
{
background = {
paths = (
{
closed = 1;
nodes = (
"630 700 LINE",
"630 570 LINE",
"405 570 LINE",
"405 129 LINE",
"630 129 LINE",
"630 0 LINE",
"30 0 LINE",
"30 129 LINE",
"255 129 LINE",
"255 570 LINE",
"30 570 LINE",
"30 700 LINE"
);
},
{
closed = 1;
nodes = (
"363 761 OFFCURVE",
"389 787 OFFCURVE",
"389 819 CURVE",
"389 852 OFFCURVE",
"363 877 OFFCURVE",
"330 877 CURVE",
"298 877 OFFCURVE",
"272 852 OFFCURVE",
"272 819 CURVE",
"272 787 OFFCURVE",
"298 761 OFFCURVE",
"330 761 CURVE"
);
}
);
};
components = (
{
alignment = -1;
name = I.big;
},
{
alignment = -1;
name = dotaccentcomb;
transform = "{1, 0, 0, 1, 241, 0}";
}
);
layerId = m002;
width = 660;
}
);
leftKerningGroup = I;
rightKerningGroup = I;
unicode = 0130;
},
{
glyphname = Idotbelow;
lastChange = "2023-04-27 11:52:18 +0000";
layers = (
{
background = {
paths = (
{
closed = 1;
nodes = (
"630 700 LINE",
"630 570 LINE",
"405 570 LINE",
"405 129 LINE",
"630 129 LINE",
"630 0 LINE",
"30 0 LINE",
"30 129 LINE",
"255 129 LINE",
"255 570 LINE",
"30 570 LINE",
"30 700 LINE"
);
},
{
closed = 1;
nodes = (
"410 -46 LINE",
"410 -137 LINE",
"250 -137 LINE",
"250 -46 LINE"
);
}
);
};
components = (
{
alignment = -1;
name = I.big;
},
{
alignment = -1;
name = dotbelowcomb;
transform = "{1, 0, 0, 1, 220, 0}";
}
);
layerId = "96BCCF85-5232-4835-A4EF-A1D5F093B6B0";
width = 660;
},
{
background = {
paths = (
{
closed = 1;
nodes = (
"630 700 LINE",
"630 570 LINE",
"405 570 LINE",
"405 129 LINE",
"630 129 LINE",
"630 0 LINE",
"30 0 LINE",
"30 129 LINE",
"255 129 LINE",
"255 570 LINE",
"30 570 LINE",
"30 700 LINE"
);
},
{
closed = 1;
nodes = (
"410 -46 LINE",
"410 -137 LINE",
"250 -137 LINE",
"250 -46 LINE"
);
}
);
};
components = (
{
alignment = -1;
name = I.big;
},
{
alignment = -1;
name = dotbelowcomb;
transform = "{1, 0, 0, 1, 220, 0}";
}
);
layerId = m002;
width = 660;
}
);
leftKerningGroup = I;
rightKerningGroup = I;
unicode = 1ECA;
},
{
glyphname = Igrave;
lastChange = "2023-04-27 11:52:18 +0000";
layers = (
{
background = {
paths = (
{
closed = 1;
nodes = (
"630 700 LINE",
"630 570 LINE",
"405 570 LINE",
"405 129 LINE",
"630 129 LINE",
"630 0 LINE",
"30 0 LINE",
"30 129 LINE",
"255 129 LINE",
"255 570 LINE",
"30 570 LINE",
"30 700 LINE"
);
},
{
closed = 1;
nodes = (
"157 868 LINE",
"149 825 LINE",
"503 760 LINE",
"511 803 LINE"
);
}
);
};
components = (
{
alignment = -1;
name = I.big;
},
{
alignment = -1;
name = gravecomb;
transform = "{1, 0, 0, 1, 119, 0}";
}
);
guideLines = (
{
angle = 90;
position = "{492, 613}";
},
{
angle = 90;
position = "{442, 613}";
}
);
layerId = "96BCCF85-5232-4835-A4EF-A1D5F093B6B0";
width = 660;
},
{
background = {
paths = (
{
closed = 1;
nodes = (
"630 700 LINE",
"630 570 LINE",
"405 570 LINE",
"405 129 LINE",
"630 129 LINE",
"630 0 LINE",
"30 0 LINE",
"30 129 LINE",
"255 129 LINE",
"255 570 LINE",
"30 570 LINE",
"30 700 LINE"
);
},
{
closed = 1;
nodes = (
"292 981 LINE",
"252 981 LINE",
"252 966 LINE",
"389 760 LINE",
"409 760 LINE"
);
}
);
};
components = (
{
alignment = -1;
name = I.big;
},
{
alignment = -1;
name = gravecomb;
transform = "{1, 0, 0, 1, 222, 0}";
}
);
guideLines = (
{
angle = 90;
position = "{492, 613}";
},
{
angle = 90;
position = "{442, 613}";
}
);
layerId = m002;
width = 660;
}
);
leftKerningGroup = I;
rightKerningGroup = I;
unicode = 00CC;
},
{
glyphname = Ihookabove;
lastChange = "2023-04-27 11:52:18 +0000";
layers = (
{
background = {
paths = (
{
closed = 1;
nodes = (
"630 700 LINE",
"630 570 LINE",
"405 570 LINE",
"405 129 LINE",
"630 129 LINE",
"630 0 LINE",
"30 0 LINE",
"30 129 LINE",
"255 129 LINE",
"255 570 LINE",
"30 570 LINE",
"30 700 LINE"
);
},
{
closed = 1;
nodes = (
"357 760 LINE",
"357 805 OFFCURVE",
"446 773 OFFCURVE",
"446 848 CURVE SMOOTH",
"446 896 OFFCURVE",
"395 926 OFFCURVE",
"330 926 CURVE SMOOTH",
"264 926 OFFCURVE",
"213 896 OFFCURVE",
"213 848 CURVE SMOOTH",
"213 838 LINE",
"263 838 LINE",
"263 846 LINE SMOOTH",
"263 874 OFFCURVE",
"302 881 OFFCURVE",
"330 881 CURVE SMOOTH",
"357 881 OFFCURVE",
"396 874 OFFCURVE",
"396 848 CURVE SMOOTH",
"396 809 OFFCURVE",
"302 832 OFFCURVE",
"302 760 CURVE"
);
}
);
};
components = (
{
alignment = -1;
name = I.big;
},
{
alignment = -1;
name = hookabovecomb;
transform = "{1, 0, 0, 1, 213, -30}";
}
);
layerId = "96BCCF85-5232-4835-A4EF-A1D5F093B6B0";
width = 660;
},
{
background = {
paths = (
{
closed = 1;
nodes = (
"630 700 LINE",
"630 570 LINE",
"405 570 LINE",
"405 129 LINE",
"630 129 LINE",
"630 0 LINE",
"30 0 LINE",
"30 129 LINE",
"255 129 LINE",
"255 570 LINE",
"30 570 LINE",
"30 700 LINE"
);
},
{
closed = 1;
nodes = (
"396 907 LINE SMOOTH",
"416 964 OFFCURVE",
"373 1010 OFFCURVE",
"325 1004 CURVE SMOOTH",
"274 998 OFFCURVE",
"246 948 OFFCURVE",
"265 896 CURVE",
"296 900 LINE",
"282 945 OFFCURVE",
"305 966 OFFCURVE",
"326 968 CURVE SMOOTH",
"352 971 OFFCURVE",
"379 950 OFFCURVE",
"364 907 CURVE SMOOTH",
"313 760 LINE",
"343 760 LINE"
);
}
);
};
components = (
{
alignment = -1;
name = I.big;
},
{
alignment = -1;
name = hookabovecomb;
transform = "{1, 0, 0, 1, 229, -30}";
}
);
layerId = m002;
width = 660;
}
);
leftKerningGroup = I;
rightKerningGroup = I;
unicode = 1EC8;
},
{
glyphname = Imacron;
lastChange = "2023-04-27 11:52:18 +0000";
layers = (
{
background = {
paths = (
{
closed = 1;
nodes = (
"630 700 LINE",
"630 570 LINE",
"405 570 LINE",
"405 129 LINE",
"630 129 LINE",
"630 0 LINE",
"30 0 LINE",
"30 129 LINE",
"255 129 LINE",
"255 570 LINE",
"30 570 LINE",
"30 700 LINE"
);
},
{
closed = 1;
nodes = (
"533 760 LINE",
"533 804 LINE",
"128 804 LINE",
"128 760 LINE"
);
}
);
};
components = (
{
alignment = -1;
name = I.big;
},
{
alignment = -1;
name = macroncomb;
transform = "{1, 0, 0, 1, 38, 0}";
}
);
layerId = "96BCCF85-5232-4835-A4EF-A1D5F093B6B0";
width = 660;
},
{
background = {
paths = (
{
closed = 1;
nodes = (
"630 700 LINE",
"630 570 LINE",
"405 570 LINE",
"405 129 LINE",
"630 129 LINE",
"630 0 LINE",
"30 0 LINE",
"30 129 LINE",
"255 129 LINE",
"255 570 LINE",
"30 570 LINE",
"30 700 LINE"
);
},
{
closed = 1;
nodes = (
"593 760 LINE",
"593 790 LINE",
"68 790 LINE",
"68 760 LINE"
);
}
);
};
components = (
{
alignment = -1;
name = I.big;
},
{
alignment = -1;
name = macroncomb;
transform = "{1, 0, 0, 1, 38, 0}";
}
);
layerId = m002;
width = 660;
}
);
leftKerningGroup = I;
rightKerningGroup = I;
unicode = 012A;
},
{
glyphname = Iogonek;
lastChange = "2023-04-27 11:52:18 +0000";
layers = (
{
background = {
paths = (
{
closed = 1;
nodes = (
"630 700 LINE",
"630 570 LINE",
"405 570 LINE",
"405 129 LINE",
"630 129 LINE",
"630 0 LINE",
"30 0 LINE",
"30 129 LINE",
"255 129 LINE",
"255 570 LINE",
"30 570 LINE",
"30 700 LINE"
);
},
{
closed = 1;
nodes = (
"304 0 LINE",
"304 -46 OFFCURVE",
"260 -46 OFFCURVE",
"260 -100 CURVE SMOOTH",
"260 -131 OFFCURVE",
"285 -167 OFFCURVE",
"328 -167 CURVE SMOOTH",
"382 -167 OFFCURVE",
"413 -111 OFFCURVE",
"394 -59 CURVE",
"363 -63 LINE",
"377 -108 OFFCURVE",
"357 -131 OFFCURVE",
"328 -131 CURVE SMOOTH",
"304 -131 OFFCURVE",
"290 -111 OFFCURVE",
"295 -88 CURVE SMOOTH",
"301 -61 OFFCURVE",
"336 -55 OFFCURVE",
"336 0 CURVE"
);
}
);
};
components = (
{
alignment = -1;
name = I.big;
},
{
alignment = -1;
name = ogonekcomb;
transform = "{1, 0, 0, 1, 230, 0}";
}
);
guideLines = (
{
angle = 90;
position = "{255, 129}";
}
);
layerId = "96BCCF85-5232-4835-A4EF-A1D5F093B6B0";
width = 660;
},
{
background = {
paths = (
{
closed = 1;
nodes = (
"630 700 LINE",
"630 570 LINE",
"405 570 LINE",
"405 129 LINE",
"630 129 LINE",
"630 0 LINE",
"30 0 LINE",
"30 129 LINE",
"255 129 LINE",
"255 570 LINE",
"30 570 LINE",
"30 700 LINE"
);
},
{
closed = 1;
nodes = (
"304 0 LINE",
"304 -46 OFFCURVE",
"260 -46 OFFCURVE",
"260 -100 CURVE SMOOTH",
"260 -131 OFFCURVE",
"285 -167 OFFCURVE",
"328 -167 CURVE SMOOTH",
"382 -167 OFFCURVE",
"413 -111 OFFCURVE",
"394 -59 CURVE",
"363 -63 LINE",
"377 -108 OFFCURVE",
"357 -131 OFFCURVE",
"328 -131 CURVE SMOOTH",
"304 -131 OFFCURVE",
"290 -111 OFFCURVE",
"295 -88 CURVE SMOOTH",
"301 -61 OFFCURVE",
"336 -55 OFFCURVE",
"336 0 CURVE"
);
}
);
};
components = (
{
alignment = -1;
name = I.big;
},
{
alignment = -1;
name = ogonekcomb;
transform = "{1, 0, 0, 1, 230, 0}";
}
);
guideLines = (
{
angle = 90;
position = "{255, 129}";
}
);
layerId = m002;
width = 660;
}
);
leftKerningGroup = I;
rightKerningGroup = I;
unicode = 012E;
},
{
glyphname = Itilde;
lastChange = "2023-04-27 11:52:18 +0000";
layers = (
{
background = {
paths = (
{
closed = 1;
nodes = (
"630 700 LINE",
"630 570 LINE",
"405 570 LINE",
"405 129 LINE",
"630 129 LINE",
"630 0 LINE",
"30 0 LINE",
"30 129 LINE",
"255 129 LINE",
"255 570 LINE",
"30 570 LINE",
"30 700 LINE"
);
},
{
closed = 1;
nodes = (
"190 760 LINE",
"193 793 OFFCURVE",
"211 825 OFFCURVE",
"252 828 CURVE SMOOTH",
"303 832 OFFCURVE",
"342 769 OFFCURVE",
"410 760 CURVE SMOOTH",
"476 751 OFFCURVE",
"516 784 OFFCURVE",
"516 857 CURVE",
"470 857 LINE",
"470 821 OFFCURVE",
"459 785 OFFCURVE",
"404 804 CURVE SMOOTH",
"356 821 OFFCURVE",
"316 873 OFFCURVE",
"246 868 CURVE SMOOTH",
"167 862 OFFCURVE",
"144 796 OFFCURVE",
"144 760 CURVE"
);
}
);
};
components = (
{
alignment = -1;
name = I.big;
},
{
alignment = -1;
name = tildecomb;
transform = "{1, 0, 0, 1, 110, -28}";
}
);
layerId = "96BCCF85-5232-4835-A4EF-A1D5F093B6B0";
width = 660;
},
{
background = {
paths = (
{
closed = 1;
nodes = (
"630 700 LINE",
"630 570 LINE",
"405 570 LINE",
"405 129 LINE",
"630 129 LINE",
"630 0 LINE",
"30 0 LINE",
"30 129 LINE",
"255 129 LINE",
"255 570 LINE",
"30 570 LINE",
"30 700 LINE"
);
},
{
closed = 1;
nodes = (
"170 760 LINE",
"170 793 OFFCURVE",
"195 826 OFFCURVE",
"241 824 CURVE SMOOTH",
"300 821 OFFCURVE",
"357 768 OFFCURVE",
"432 760 CURVE SMOOTH",
"479 755 OFFCURVE",
"520 784 OFFCURVE",
"520 850 CURVE",
"490 850 LINE",
"490 821 OFFCURVE",
"487 778 OFFCURVE",
"419 788 CURVE SMOOTH",
"371 795 OFFCURVE",
"318 842 OFFCURVE",
"246 850 CURVE SMOOTH",
"175 858 OFFCURVE",
"140 796 OFFCURVE",
"140 760 CURVE"
);
}
);
};
components = (
{
alignment = -1;
name = I.big;
},
{
alignment = -1;
name = tildecomb;
transform = "{1, 0, 0, 1, 110, -28}";
}
);
layerId = m002;
width = 660;
}
);
leftKerningGroup = I;
rightKerningGroup = I;
unicode = 0128;
},
{
glyphname = J;
lastChange = "2023-04-27 11:52:59 +0000";
layers = (
{
anchors = (
{
name = bottom;
position = "{205, 0}";
},
{
name = top;
position = "{205, 700}";
}
);
background = {
paths = (
{
closed = 1;
nodes = (
"302 -10 OFFCURVE",
"380 68 OFFCURVE",
"380 165 CURVE",
"380 700 LINE",
"118 700 LINE",
"118 570 LINE",
"232 570 LINE",
"232 155 LINE",
"232 141 OFFCURVE",
"220 129 OFFCURVE",
"205 129 CURVE",
"191 129 OFFCURVE",
"179 141 OFFCURVE",
"179 155 CURVE",
"179 275 LINE",
"30 275 LINE",
"30 165 LINE",
"30 68 OFFCURVE",
"108 -10 OFFCURVE",
"205 -10 CURVE"
);
}
);
};
layerId = "96BCCF85-5232-4835-A4EF-A1D5F093B6B0";
paths = (
{
closed = 1;
nodes = (
"302 -10 OFFCURVE",
"380 68 OFFCURVE",
"380 165 CURVE",
"380 700 LINE",
"118 700 LINE",
"118 570 LINE",
"232 570 LINE",
"232 155 LINE",
"232 141 OFFCURVE",
"220 129 OFFCURVE",
"205 129 CURVE",
"191 129 OFFCURVE",
"179 141 OFFCURVE",
"179 155 CURVE",
"179 275 LINE",
"30 275 LINE",
"30 165 LINE",
"30 68 OFFCURVE",
"108 -10 OFFCURVE",
"205 -10 CURVE"
);
}
);
width = 410;
},
{
anchors = (
{
name = bottom;
position = "{205, 0}";
},
{
name = top;
position = "{205, 700}";
}
);
background = {
paths = (
{
closed = 1;
nodes = (
"302 -10 OFFCURVE",
"380 68 OFFCURVE",
"380 165 CURVE",
"380 700 LINE",
"118 700 LINE",
"118 570 LINE",
"232 570 LINE",
"232 155 LINE",
"232 141 OFFCURVE",
"220 129 OFFCURVE",
"205 129 CURVE",
"191 129 OFFCURVE",
"179 141 OFFCURVE",
"179 155 CURVE",
"179 275 LINE",
"30 275 LINE",
"30 165 LINE",
"30 68 OFFCURVE",
"108 -10 OFFCURVE",
"205 -10 CURVE"
);
}
);
};
layerId = m002;
paths = (
{
closed = 1;
nodes = (
"302 -10 OFFCURVE",
"380 68 OFFCURVE",
"380 165 CURVE",
"380 700 LINE",
"118 700 LINE",
"118 570 LINE",
"232 570 LINE",
"232 155 LINE",
"232 141 OFFCURVE",
"220 129 OFFCURVE",
"205 129 CURVE",
"191 129 OFFCURVE",
"179 141 OFFCURVE",
"179 155 CURVE",
"179 275 LINE",
"30 275 LINE",
"30 165 LINE",
"30 68 OFFCURVE",
"108 -10 OFFCURVE",
"205 -10 CURVE"
);
}
);
width = 410;
}
);
leftKerningGroup = J;
rightKerningGroup = u;
rightMetricsKey = H;
unicode = 004A;
},
{
glyphname = K;
lastChange = "2023-04-27 11:52:59 +0000";
layers = (
{
anchors = (
{
name = bottom;
position = "{206, 0}";
},
{
name = top;
position = "{206, 700}";
}
);
background = {
paths = (
{
closed = 1;
nodes = (
"179 0 LINE",
"179 216 LINE",
"189 216 LINE",
"230 0 LINE",
"380 0 LINE",
"380 20 LINE",
"280 381 LINE",
"280 396 LINE",
"380 680 LINE",
"380 700 LINE",
"230 700 LINE",
"189 500 LINE",
"179 500 LINE",
"179 700 LINE",
"30 700 LINE",
"30 0 LINE"
);
}
);
};
components = (
{
alignment = -1;
name = k;
}
);
layerId = "96BCCF85-5232-4835-A4EF-A1D5F093B6B0";
width = 411;
},
{
anchors = (
{
name = bottom;
position = "{206, 0}";
},
{
name = top;
position = "{206, 700}";
}
);
background = {
paths = (
{
closed = 1;
nodes = (
"179 0 LINE",
"179 216 LINE",
"189 216 LINE",
"230 0 LINE",
"380 0 LINE",
"380 20 LINE",
"280 381 LINE",
"280 396 LINE",
"380 680 LINE",
"380 700 LINE",
"230 700 LINE",
"189 500 LINE",
"179 500 LINE",
"179 700 LINE",
"30 700 LINE",
"30 0 LINE"
);
}
);
};
components = (
{
alignment = -1;
name = k;
}
);
layerId = m002;
width = 411;
}
);
leftKerningGroup = H;
leftMetricsKey = B;
rightKerningGroup = e;
unicode = 004B;
},
{
glyphname = Kcommaaccent;
lastChange = "2023-04-27 11:52:18 +0000";
layers = (
{
background = {
paths = (
{
closed = 1;
nodes = (
"341 -170 LINE",
"359 -56 LINE",
"359 -46 LINE",
"311 -46 LINE",
"311 -170 LINE"
);
},
{
closed = 1;
nodes = (
"179 0 LINE",
"179 275 LINE",
"189 275 LINE",
"490 0 LINE",
"660 0 LINE",
"660 20 LINE",
"304 345 LINE",
"304 355 LINE",
"660 680 LINE",
"660 700 LINE",
"490 700 LINE",
"189 425 LINE",
"179 425 LINE",
"179 700 LINE",
"30 700 LINE",
"30 0 LINE"
);
}
);
};
components = (
{
alignment = -1;
name = commaaccentcomb;
transform = "{1, 0, 0, 1, 281, 0}";
},
{
alignment = -1;
name = K.big;
}
);
guideLines = (
{
position = "{662, 350}";
},
{
position = "{648, 632}";
},
{
angle = 222.4155;
position = "{660, 680}";
},
{
angle = 137.5845;
position = "{660, 20}";
}
);
layerId = "96BCCF85-5232-4835-A4EF-A1D5F093B6B0";
width = 690;
},
{
background = {
paths = (
{
closed = 1;
nodes = (
"306 -246 LINE",
"384 -66 LINE",
"384 -46 LINE",
"275 -46 LINE",
"245 -246 LINE"
);
},
{
closed = 1;
nodes = (
"179 0 LINE",
"179 275 LINE",
"189 275 LINE",
"490 0 LINE",
"660 0 LINE",
"660 20 LINE",
"304 345 LINE",
"304 355 LINE",
"660 680 LINE",
"660 700 LINE",
"490 700 LINE",
"189 425 LINE",
"179 425 LINE",
"179 700 LINE",
"30 700 LINE",
"30 0 LINE"
);
}
);
};
components = (
{
alignment = -1;
name = commaaccentcomb;
transform = "{1, 0, 0, 1, 215, 0}";
},
{
alignment = -1;
name = K.big;
}
);
guideLines = (
{
position = "{662, 350}";
},
{
position = "{648, 632}";
},
{
angle = 222.4155;
position = "{660, 680}";
},
{
angle = 137.5845;
position = "{660, 20}";
}
);
layerId = m002;
width = 690;
}
);
leftKerningGroup = H;
rightKerningGroup = E;
unicode = 0136;
},
{
glyphname = L;
lastChange = "2023-04-27 11:52:59 +0000";
layers = (
{
anchors = (
{
name = bottom;
position = "{170, 0}";
},
{
name = center;
position = "{170, 350}";
},
{
name = top;
position = "{170, 700}";
},
{
name = topright;
position = "{320, 700}";
}
);
background = {
paths = (
{
closed = 1;
nodes = (
"310 0 LINE",
"310 129 LINE",
"179 129 LINE",
"179 700 LINE",
"30 700 LINE",
"30 0 LINE"
);
}
);
};
components = (
{
alignment = -1;
name = l;
}
);
layerId = "96BCCF85-5232-4835-A4EF-A1D5F093B6B0";
width = 340;
},
{
anchors = (
{
name = bottom;
position = "{170, 0}";
},
{
name = center;
position = "{170, 350}";
},
{
name = top;
position = "{170, 700}";
},
{
name = topright;
position = "{320, 700}";
}
);
background = {
paths = (
{
closed = 1;
nodes = (
"310 0 LINE",
"310 129 LINE",
"179 129 LINE",
"179 700 LINE",
"30 700 LINE",
"30 0 LINE"
);
}
);
};
components = (
{
alignment = -1;
name = l;
}
);
layerId = m002;
width = 340;
}
);
leftKerningGroup = H;
rightKerningGroup = L;
unicode = 004C;
},
{
glyphname = Lacute;
lastChange = "2023-04-27 11:52:18 +0000";
layers = (
{
background = {
paths = (
{
closed = 1;
nodes = (
"660 0 LINE",
"660 129 LINE",
"179 129 LINE",
"179 700 LINE",
"30 700 LINE",
"30 0 LINE"
);
},
{
closed = 1;
nodes = (
"38 760 LINE",
"392 825 LINE",
"384 868 LINE",
"30 803 LINE"
);
}
);
};
components = (
{
alignment = -1;
name = lacute;
}
);
layerId = "96BCCF85-5232-4835-A4EF-A1D5F093B6B0";
width = 690;
},
{
background = {
paths = (
{
closed = 1;
nodes = (
"660 0 LINE",
"660 129 LINE",
"179 129 LINE",
"179 700 LINE",
"30 700 LINE",
"30 0 LINE"
);
},
{
closed = 1;
nodes = (
"115 760 LINE",
"252 966 LINE",
"252 981 LINE",
"212 981 LINE",
"95 760 LINE"
);
}
);
};
components = (
{
alignment = -1;
name = lacute;
}
);
layerId = m002;
width = 690;
}
);
leftKerningGroup = H;
rightKerningGroup = L;
unicode = 0139;
},
{
glyphname = Lcaron;
lastChange = "2023-04-27 11:52:18 +0000";
layers = (
{
background = {
paths = (
{
closed = 1;
nodes = (
"280 495 LINE",
"289 680 LINE",
"289 700 LINE",
"239 700 LINE",
"239 680 LINE",
"249 495 LINE"
);
},
{
closed = 1;
nodes = (
"660 0 LINE",
"660 129 LINE",
"179 129 LINE",
"179 700 LINE",
"30 700 LINE",
"30 0 LINE"
);
}
);
};
components = (
{
alignment = -1;
name = caroncomb.alt;
transform = "{1, 0, 0, 1, 209, 0}";
},
{
alignment = -1;
name = L.big;
}
);
layerId = "96BCCF85-5232-4835-A4EF-A1D5F093B6B0";
width = 690;
},
{
background = {
paths = (
{
closed = 1;
nodes = (
"280 495 LINE",
"289 680 LINE",
"289 700 LINE",
"239 700 LINE",
"239 680 LINE",
"249 495 LINE"
);
},
{
closed = 1;
nodes = (
"660 0 LINE",
"660 129 LINE",
"179 129 LINE",
"179 700 LINE",
"30 700 LINE",
"30 0 LINE"
);
}
);
};
components = (
{
alignment = -1;
name = caroncomb.alt;
transform = "{1, 0, 0, 1, 209, 0}";
},
{
alignment = -1;
name = L.big;
}
);
layerId = m002;
width = 690;
}
);
leftKerningGroup = H;
rightKerningGroup = L;
unicode = 013D;
},
{
glyphname = Lcommaaccent;
lastChange = "2023-04-27 11:52:18 +0000";
layers = (
{
background = {
paths = (
{
closed = 1;
nodes = (
"660 0 LINE",
"660 129 LINE",
"179 129 LINE",
"179 700 LINE",
"30 700 LINE",
"30 0 LINE"
);
},
{
closed = 1;
nodes = (
"351 -170 LINE",
"369 -56 LINE",
"369 -46 LINE",
"321 -46 LINE",
"321 -170 LINE"
);
}
);
};
components = (
{
alignment = -1;
name = L.big;
},
{
alignment = -1;
name = commaaccentcomb;
transform = "{1, 0, 0, 1, 291, 0}";
}
);
layerId = "96BCCF85-5232-4835-A4EF-A1D5F093B6B0";
width = 690;
},
{
background = {
paths = (
{
closed = 1;
nodes = (
"660 0 LINE",
"660 129 LINE",
"179 129 LINE",
"179 700 LINE",
"30 700 LINE",
"30 0 LINE"
);
},
{
closed = 1;
nodes = (
"336 -246 LINE",
"414 -66 LINE",
"414 -46 LINE",
"305 -46 LINE",
"275 -246 LINE"
);
}
);
};
components = (
{
alignment = -1;
name = L.big;
},
{
alignment = -1;
name = commaaccentcomb;
transform = "{1, 0, 0, 1, 245, 0}";
}
);
layerId = m002;
width = 690;
}
);
leftKerningGroup = H;
rightKerningGroup = L;
unicode = 013B;
},
{
glyphname = Lslash;
lastChange = "2023-04-27 11:52:18 +0000";
layers = (
{
background = {
paths = (
{
closed = 1;
nodes = (
"-66 275 LINE",
"275 395 LINE",
"275 439 LINE",
"-66 319 LINE"
);
},
{
closed = 1;
nodes = (
"660 0 LINE",
"660 129 LINE",
"179 129 LINE",
"179 700 LINE",
"30 700 LINE",
"30 0 LINE"
);
}
);
};
components = (
{
alignment = -1;
name = L.big;
}
);
layerId = "96BCCF85-5232-4835-A4EF-A1D5F093B6B0";
paths = (
{
closed = 1;
nodes = (
"-66 275 LINE",
"275 395 LINE",
"275 439 LINE",
"-66 319 LINE"
);
}
);
width = 690;
},
{
background = {
paths = (
{
closed = 1;
nodes = (
"-66 275 LINE",
"275 395 LINE",
"275 425 LINE",
"-66 305 LINE"
);
},
{
closed = 1;
nodes = (
"660 0 LINE",
"660 129 LINE",
"179 129 LINE",
"179 700 LINE",
"30 700 LINE",
"30 0 LINE"
);
}
);
};
components = (
{
alignment = -1;
name = L.big;
}
);
layerId = m002;
paths = (
{
closed = 1;
nodes = (
"-66 275 LINE",
"275 395 LINE",
"275 425 LINE",
"-66 305 LINE"
);
}
);
width = 690;
}
);
leftKerningGroup = H;
rightKerningGroup = L;
unicode = 0141;
},
{
glyphname = M;
lastChange = "2023-04-27 11:52:59 +0000";
layers = (
{
anchors = (
{
name = bottom;
position = "{249, 0}";
},
{
name = top;
position = "{249, 700}";
}
);
background = {
paths = (
{
closed = 1;
nodes = (
"160 0 LINE",
"160 311 LINE",
"166 311 LINE",
"205 0 LINE",
"292 0 LINE",
"331 311 LINE",
"337 311 LINE",
"337 0 LINE",
"467 0 LINE",
"467 700 LINE",
"295 700 LINE",
"252 389 LINE",
"246 389 LINE",
"201 700 LINE",
"30 700 LINE",
"30 0 LINE"
);
}
);
};
layerId = "96BCCF85-5232-4835-A4EF-A1D5F093B6B0";
paths = (
{
closed = 1;
nodes = (
"160 0 LINE",
"160 311 LINE",
"166 311 LINE",
"205 0 LINE",
"292 0 LINE",
"331 311 LINE",
"337 311 LINE",
"337 0 LINE",
"467 0 LINE",
"467 700 LINE",
"295 700 LINE",
"252 389 LINE",
"246 389 LINE",
"201 700 LINE",
"30 700 LINE",
"30 0 LINE"
);
}
);
width = 497;
},
{
anchors = (
{
name = bottom;
position = "{249, 0}";
},
{
name = top;
position = "{249, 700}";
}
);
background = {
paths = (
{
closed = 1;
nodes = (
"160 0 LINE",
"160 311 LINE",
"166 311 LINE",
"205 0 LINE",
"292 0 LINE",
"331 311 LINE",
"337 311 LINE",
"337 0 LINE",
"467 0 LINE",
"467 700 LINE",
"295 700 LINE",
"252 389 LINE",
"246 389 LINE",
"201 700 LINE",
"30 700 LINE",
"30 0 LINE"
);
}
);
};
layerId = m002;
paths = (
{
closed = 1;
nodes = (
"160 0 LINE",
"160 311 LINE",
"166 311 LINE",
"205 0 LINE",
"292 0 LINE",
"331 311 LINE",
"337 311 LINE",
"337 0 LINE",
"467 0 LINE",
"467 700 LINE",
"295 700 LINE",
"252 389 LINE",
"246 389 LINE",
"201 700 LINE",
"30 700 LINE",
"30 0 LINE"
);
}
);
width = 497;
}
);
leftKerningGroup = H;
leftMetricsKey = B;
rightKerningGroup = H;
unicode = 004D;
},
{
glyphname = N;
lastChange = "2023-04-27 11:52:59 +0000";
layers = (
{
anchors = (
{
name = bottom;
position = "{205, 0}";
},
{
name = top;
position = "{205, 700}";
}
);
background = {
paths = (
{
closed = 1;
nodes = (
"160 0 LINE",
"160 275 LINE",
"175 275 LINE",
"260 0 LINE",
"380 0 LINE",
"380 700 LINE",
"250 700 LINE",
"250 425 LINE",
"235 425 LINE",
"150 700 LINE",
"30 700 LINE",
"30 0 LINE"
);
}
);
};
layerId = "96BCCF85-5232-4835-A4EF-A1D5F093B6B0";
paths = (
{
closed = 1;
nodes = (
"160 0 LINE",
"160 275 LINE",
"175 275 LINE",
"260 0 LINE",
"380 0 LINE",
"380 700 LINE",
"250 700 LINE",
"250 425 LINE",
"235 425 LINE",
"150 700 LINE",
"30 700 LINE",
"30 0 LINE"
);
}
);
width = 410;
},
{
anchors = (
{
name = bottom;
position = "{205, 0}";
},
{
name = top;
position = "{205, 700}";
}
);
background = {
paths = (
{
closed = 1;
nodes = (
"160 0 LINE",
"160 275 LINE",
"175 275 LINE",
"260 0 LINE",
"380 0 LINE",
"380 700 LINE",
"250 700 LINE",
"250 425 LINE",
"235 425 LINE",
"150 700 LINE",
"30 700 LINE",
"30 0 LINE"
);
}
);
};
layerId = m002;
paths = (
{
closed = 1;
nodes = (
"160 0 LINE",
"160 275 LINE",
"175 275 LINE",
"260 0 LINE",
"380 0 LINE",
"380 700 LINE",
"250 700 LINE",
"250 425 LINE",
"235 425 LINE",
"150 700 LINE",
"30 700 LINE",
"30 0 LINE"
);
}
);
width = 410;
}
);
leftKerningGroup = H;
leftMetricsKey = B;
rightKerningGroup = H;
rightMetricsKey = H;
unicode = 004E;
},
{
glyphname = Nacute;
lastChange = "2023-04-27 11:52:18 +0000";
layers = (
{
background = {
paths = (
{
closed = 1;
nodes = (
"179 0 LINE",
"179 435 LINE",
"194 435 LINE",
"501 0 LINE",
"660 0 LINE",
"660 700 LINE",
"501 700 LINE",
"501 265 LINE",
"486 265 LINE",
"179 700 LINE",
"30 700 LINE",
"30 0 LINE"
);
},
{
closed = 1;
nodes = (
"172 760 LINE",
"526 825 LINE",
"518 868 LINE",
"164 803 LINE"
);
}
);
};
components = (
{
alignment = -1;
name = N.big;
},
{
alignment = -1;
name = acutecomb;
transform = "{1, 0, 0, 1, 134, 0}";
}
);
guideLines = (
{
angle = 90;
position = "{501, 316}";
},
{
angle = -54.7876;
position = "{501, 0}";
}
);
layerId = "96BCCF85-5232-4835-A4EF-A1D5F093B6B0";
width = 690;
},
{
background = {
paths = (
{
closed = 1;
nodes = (
"179 0 LINE",
"179 435 LINE",
"194 435 LINE",
"501 0 LINE",
"660 0 LINE",
"660 700 LINE",
"501 700 LINE",
"501 265 LINE",
"486 265 LINE",
"179 700 LINE",
"30 700 LINE",
"30 0 LINE"
);
},
{
closed = 1;
nodes = (
"364 760 LINE",
"501 966 LINE",
"501 981 LINE",
"461 981 LINE",
"344 760 LINE"
);
}
);
};
components = (
{
alignment = -1;
name = N.big;
},
{
alignment = -1;
name = acutecomb;
transform = "{1, 0, 0, 1, 314, 0}";
}
);
guideLines = (
{
angle = 90;
position = "{501, 316}";
},
{
angle = -54.7876;
position = "{501, 0}";
}
);
layerId = m002;
width = 690;
}
);
leftKerningGroup = H;
rightKerningGroup = H;
unicode = 0143;
},
{
glyphname = Ncaron;
lastChange = "2023-04-27 11:52:18 +0000";
layers = (
{
background = {
paths = (
{
closed = 1;
nodes = (
"179 0 LINE",
"179 435 LINE",
"194 435 LINE",
"501 0 LINE",
"660 0 LINE",
"660 700 LINE",
"501 700 LINE",
"501 265 LINE",
"486 265 LINE",
"179 700 LINE",
"30 700 LINE",
"30 0 LINE"
);
},
{
closed = 1;
nodes = (
"132 844 LINE",
"345 737 LINE",
"558 844 LINE",
"537 882 LINE",
"355 790 LINE",
"335 790 LINE",
"153 882 LINE"
);
}
);
};
components = (
{
alignment = -1;
name = N.big;
},
{
alignment = -1;
name = caroncomb;
transform = "{1, 0, 0, 1, 42, 0}";
}
);
layerId = "96BCCF85-5232-4835-A4EF-A1D5F093B6B0";
width = 690;
},
{
background = {
paths = (
{
closed = 1;
nodes = (
"179 0 LINE",
"179 435 LINE",
"194 435 LINE",
"501 0 LINE",
"660 0 LINE",
"660 700 LINE",
"501 700 LINE",
"501 265 LINE",
"486 265 LINE",
"179 700 LINE",
"30 700 LINE",
"30 0 LINE"
);
},
{
closed = 1;
nodes = (
"72 862 LINE",
"345 760 LINE",
"618 862 LINE",
"607 882 LINE",
"355 790 LINE",
"335 790 LINE",
"83 882 LINE"
);
}
);
};
components = (
{
alignment = -1;
name = N.big;
},
{
alignment = -1;
name = caroncomb;
transform = "{1, 0, 0, 1, 42, 0}";
}
);
layerId = m002;
width = 690;
}
);
leftKerningGroup = H;
rightKerningGroup = H;
unicode = 0147;
},
{
glyphname = Ncommaaccent;
lastChange = "2023-04-27 11:52:18 +0000";
layers = (
{
background = {
paths = (
{
closed = 1;
nodes = (
"179 0 LINE",
"179 435 LINE",
"194 435 LINE",
"501 0 LINE",
"660 0 LINE",
"660 700 LINE",
"501 700 LINE",
"501 265 LINE",
"486 265 LINE",
"179 700 LINE",
"30 700 LINE",
"30 0 LINE"
);
},
{
closed = 1;
nodes = (
"346 -170 LINE",
"364 -56 LINE",
"364 -46 LINE",
"316 -46 LINE",
"316 -170 LINE"
);
}
);
};
components = (
{
alignment = -1;
name = N.big;
},
{
alignment = -1;
name = commaaccentcomb;
transform = "{1, 0, 0, 1, 286, 0}";
}
);
layerId = "96BCCF85-5232-4835-A4EF-A1D5F093B6B0";
width = 690;
},
{
background = {
paths = (
{
closed = 1;
nodes = (
"179 0 LINE",
"179 435 LINE",
"194 435 LINE",
"501 0 LINE",
"660 0 LINE",
"660 700 LINE",
"501 700 LINE",
"501 265 LINE",
"486 265 LINE",
"179 700 LINE",
"30 700 LINE",
"30 0 LINE"
);
},
{
closed = 1;
nodes = (
"316 -246 LINE",
"394 -66 LINE",
"394 -46 LINE",
"285 -46 LINE",
"255 -246 LINE"
);
}
);
};
components = (
{
alignment = -1;
name = N.big;
},
{
alignment = -1;
name = commaaccentcomb;
transform = "{1, 0, 0, 1, 225, 0}";
}
);
layerId = m002;
width = 690;
}
);
leftKerningGroup = H;
rightKerningGroup = H;
unicode = 0145;
},
{
glyphname = Ntilde;
lastChange = "2023-04-27 11:52:18 +0000";
layers = (
{
background = {
paths = (
{
closed = 1;
nodes = (
"179 0 LINE",
"179 435 LINE",
"194 435 LINE",
"501 0 LINE",
"660 0 LINE",
"660 700 LINE",
"501 700 LINE",
"501 265 LINE",
"486 265 LINE",
"179 700 LINE",
"30 700 LINE",
"30 0 LINE"
);
},
{
closed = 1;
nodes = (
"205 788 LINE",
"208 821 OFFCURVE",
"226 853 OFFCURVE",
"267 856 CURVE SMOOTH",
"318 860 OFFCURVE",
"357 797 OFFCURVE",
"425 788 CURVE SMOOTH",
"491 779 OFFCURVE",
"531 812 OFFCURVE",
"531 885 CURVE",
"485 885 LINE",
"485 849 OFFCURVE",
"474 813 OFFCURVE",
"419 832 CURVE SMOOTH",
"371 849 OFFCURVE",
"331 901 OFFCURVE",
"261 896 CURVE SMOOTH",
"182 890 OFFCURVE",
"159 824 OFFCURVE",
"159 788 CURVE"
);
}
);
};
components = (
{
alignment = -1;
name = N.big;
},
{
alignment = -1;
name = tildecomb;
transform = "{1, 0, 0, 1, 125, 0}";
}
);
layerId = "96BCCF85-5232-4835-A4EF-A1D5F093B6B0";
width = 690;
},
{
background = {
paths = (
{
closed = 1;
nodes = (
"179 0 LINE",
"179 435 LINE",
"194 435 LINE",
"501 0 LINE",
"660 0 LINE",
"660 700 LINE",
"501 700 LINE",
"501 265 LINE",
"486 265 LINE",
"179 700 LINE",
"30 700 LINE",
"30 0 LINE"
);
},
{
closed = 1;
nodes = (
"185 788 LINE",
"185 821 OFFCURVE",
"210 854 OFFCURVE",
"256 852 CURVE SMOOTH",
"315 849 OFFCURVE",
"372 796 OFFCURVE",
"447 788 CURVE SMOOTH",
"494 783 OFFCURVE",
"535 812 OFFCURVE",
"535 878 CURVE",
"505 878 LINE",
"505 849 OFFCURVE",
"502 806 OFFCURVE",
"434 816 CURVE SMOOTH",
"386 823 OFFCURVE",
"333 870 OFFCURVE",
"261 878 CURVE SMOOTH",
"190 886 OFFCURVE",
"155 824 OFFCURVE",
"155 788 CURVE"
);
}
);
};
components = (
{
alignment = -1;
name = N.big;
},
{
alignment = -1;
name = tildecomb;
transform = "{1, 0, 0, 1, 125, 0}";
}
);
layerId = m002;
width = 690;
}
);
unicode = 00D1;
},
{
glyphname = Eng;
lastChange = "2023-04-27 11:52:18 +0000";
layers = (
{
background = {
paths = (
{
closed = 1;
nodes = (
"582 -200 OFFCURVE",
"660 -122 OFFCURVE",
"660 -25 CURVE",
"660 0 LINE",
"501 0 LINE",
"501 -34 LINE",
"501 -49 OFFCURVE",
"489 -61 OFFCURVE",
"474 -61 CURVE",
"412 -61 LINE",
"412 -200 LINE",
"485 -200 LINE"
);
},
{
closed = 1;
nodes = (
"179 0 LINE",
"179 435 LINE",
"194 435 LINE",
"501 0 LINE",
"660 0 LINE",
"660 700 LINE",
"501 700 LINE",
"501 265 LINE",
"486 265 LINE",
"179 700 LINE",
"30 700 LINE",
"30 0 LINE"
);
}
);
};
components = (
{
alignment = -1;
name = N.big;
}
);
layerId = "96BCCF85-5232-4835-A4EF-A1D5F093B6B0";
paths = (
{
closed = 1;
nodes = (
"582 -200 OFFCURVE",
"660 -122 OFFCURVE",
"660 -25 CURVE",
"660 0 LINE",
"501 0 LINE",
"501 -34 LINE",
"501 -49 OFFCURVE",
"489 -61 OFFCURVE",
"474 -61 CURVE",
"412 -61 LINE",
"412 -200 LINE",
"485 -200 LINE"
);
}
);
width = 690;
},
{
background = {
paths = (
{
closed = 1;
nodes = (
"582 -200 OFFCURVE",
"660 -122 OFFCURVE",
"660 -25 CURVE",
"660 0 LINE",
"501 0 LINE",
"501 -34 LINE",
"501 -49 OFFCURVE",
"489 -61 OFFCURVE",
"474 -61 CURVE",
"412 -61 LINE",
"412 -200 LINE",
"485 -200 LINE"
);
},
{
closed = 1;
nodes = (
"179 0 LINE",
"179 435 LINE",
"194 435 LINE",
"501 0 LINE",
"660 0 LINE",
"660 700 LINE",
"501 700 LINE",
"501 265 LINE",
"486 265 LINE",
"179 700 LINE",
"30 700 LINE",
"30 0 LINE"
);
}
);
};
components = (
{
alignment = -1;
name = N.big;
}
);
layerId = m002;
paths = (
{
closed = 1;
nodes = (
"582 -200 OFFCURVE",
"660 -122 OFFCURVE",
"660 -25 CURVE",
"660 0 LINE",
"501 0 LINE",
"501 -34 LINE",
"501 -49 OFFCURVE",
"489 -61 OFFCURVE",
"474 -61 CURVE",
"412 -61 LINE",
"412 -200 LINE",
"485 -200 LINE"
);
}
);
width = 690;
}
);
leftKerningGroup = H;
rightKerningGroup = H;
unicode = 014A;
},
{
glyphname = O;
lastChange = "2023-04-27 11:52:59 +0000";
layers = (
{
anchors = (
{
name = bottom;
position = "{206, 0}";
},
{
name = center;
position = "{206, 350}";
},
{
name = ogonek;
position = "{370, 10}";
},
{
name = top;
position = "{206, 700}";
},
{
name = topleft;
position = "{20, 700}";
},
{
name = topright;
position = "{391, 700}";
}
);
background = {
paths = (
{
closed = 1;
nodes = (
"301 -10 OFFCURVE",
"380 68 OFFCURVE",
"380 165 CURVE",
"380 535 LINE SMOOTH",
"380 632 OFFCURVE",
"301 710 OFFCURVE",
"205 710 CURVE",
"108 710 OFFCURVE",
"30 632 OFFCURVE",
"30 535 CURVE",
"30 165 LINE",
"30 68 OFFCURVE",
"108 -10 OFFCURVE",
"205 -10 CURVE"
);
},
{
closed = 1;
nodes = (
"190 122 OFFCURVE",
"179 133 OFFCURVE",
"179 147 CURVE",
"179 554 LINE",
"179 568 OFFCURVE",
"190 580 OFFCURVE",
"205 580 CURVE",
"219 580 OFFCURVE",
"230 568 OFFCURVE",
"230 554 CURVE",
"230 147 LINE",
"230 133 OFFCURVE",
"219 122 OFFCURVE",
"205 122 CURVE"
);
}
);
};
components = (
{
alignment = -1;
name = o;
}
);
layerId = "96BCCF85-5232-4835-A4EF-A1D5F093B6B0";
width = 411;
},
{
anchors = (
{
name = bottom;
position = "{206, 0}";
},
{
name = center;
position = "{206, 350}";
},
{
name = ogonek;
position = "{370, 10}";
},
{
name = top;
position = "{206, 700}";
},
{
name = topleft;
position = "{20, 700}";
},
{
name = topright;
position = "{391, 700}";
}
);
background = {
paths = (
{
closed = 1;
nodes = (
"301 -10 OFFCURVE",
"380 68 OFFCURVE",
"380 165 CURVE",
"380 535 LINE",
"380 632 OFFCURVE",
"301 710 OFFCURVE",
"205 710 CURVE",
"108 710 OFFCURVE",
"30 632 OFFCURVE",
"30 535 CURVE",
"30 165 LINE",
"30 68 OFFCURVE",
"108 -10 OFFCURVE",
"205 -10 CURVE"
);
},
{
closed = 1;
nodes = (
"190 122 OFFCURVE",
"179 133 OFFCURVE",
"179 147 CURVE",
"179 554 LINE",
"179 568 OFFCURVE",
"190 580 OFFCURVE",
"205 580 CURVE",
"219 580 OFFCURVE",
"230 568 OFFCURVE",
"230 554 CURVE",
"230 147 LINE",
"230 133 OFFCURVE",
"219 122 OFFCURVE",
"205 122 CURVE"
);
}
);
};
components = (
{
alignment = -1;
name = o;
}
);
layerId = m002;
width = 411;
}
);
leftKerningGroup = o;
rightKerningGroup = o;
unicode = 004F;
},
{
glyphname = Oacute;
lastChange = "2023-04-27 11:52:18 +0000";
layers = (
{
background = {
paths = (
{
closed = 1;
nodes = (
"180 710 OFFCURVE",
"30 554 OFFCURVE",
"30 350 CURVE SMOOTH",
"30 146 OFFCURVE",
"180 -10 OFFCURVE",
"390 -10 CURVE SMOOTH",
"599 -10 OFFCURVE",
"750 146 OFFCURVE",
"750 350 CURVE SMOOTH",
"750 554 OFFCURVE",
"599 710 OFFCURVE",
"390 710 CURVE SMOOTH"
);
},
{
closed = 1;
nodes = (
"618 220 OFFCURVE",
"523 122 OFFCURVE",
"390 122 CURVE SMOOTH",
"255 122 OFFCURVE",
"160 220 OFFCURVE",
"160 350 CURVE SMOOTH",
"160 482 OFFCURVE",
"255 580 OFFCURVE",
"390 580 CURVE SMOOTH",
"523 580 OFFCURVE",
"618 482 OFFCURVE",
"618 350 CURVE SMOOTH"
);
},
{
closed = 1;
nodes = (
"217 740 LINE",
"571 805 LINE",
"563 848 LINE",
"209 783 LINE"
);
}
);
};
components = (
{
alignment = -1;
name = O.big;
},
{
alignment = -1;
name = acutecomb;
transform = "{1, 0, 0, 1, 179, -20}";
}
);
guideLines = (
{
position = "{47, 580}";
},
{
position = "{47, 122}";
},
{
position = "{0, 0}";
},
{
angle = 90;
position = "{390, 712}";
}
);
layerId = "96BCCF85-5232-4835-A4EF-A1D5F093B6B0";
width = 780;
},
{
background = {
paths = (
{
closed = 1;
nodes = (
"180 710 OFFCURVE",
"30 554 OFFCURVE",
"30 350 CURVE SMOOTH",
"30 146 OFFCURVE",
"180 -10 OFFCURVE",
"390 -10 CURVE SMOOTH",
"599 -10 OFFCURVE",
"750 146 OFFCURVE",
"750 350 CURVE SMOOTH",
"750 554 OFFCURVE",
"599 710 OFFCURVE",
"390 710 CURVE SMOOTH"
);
},
{
closed = 1;
nodes = (
"618 220 OFFCURVE",
"523 122 OFFCURVE",
"390 122 CURVE SMOOTH",
"255 122 OFFCURVE",
"160 220 OFFCURVE",
"160 350 CURVE SMOOTH",
"160 482 OFFCURVE",
"255 580 OFFCURVE",
"390 580 CURVE SMOOTH",
"523 580 OFFCURVE",
"618 482 OFFCURVE",
"618 350 CURVE SMOOTH"
);
},
{
closed = 1;
nodes = (
"390 760 LINE",
"527 966 LINE",
"527 981 LINE",
"487 981 LINE",
"370 760 LINE"
);
}
);
};
components = (
{
alignment = -1;
name = O.big;
},
{
alignment = -1;
name = acutecomb;
transform = "{1, 0, 0, 1, 340, 0}";
}
);
guideLines = (
{
position = "{47, 580}";
},
{
position = "{47, 122}";
},
{
position = "{0, 0}";
},
{
angle = 90;
position = "{390, 712}";
}
);
layerId = m002;
width = 780;
}
);
leftKerningGroup = O;
rightKerningGroup = O;
unicode = 00D3;
},
{
glyphname = Ocircumflex;
lastChange = "2023-04-27 11:52:18 +0000";
layers = (
{
background = {
paths = (
{
closed = 1;
nodes = (
"180 710 OFFCURVE",
"30 554 OFFCURVE",
"30 350 CURVE SMOOTH",
"30 146 OFFCURVE",
"180 -10 OFFCURVE",
"390 -10 CURVE SMOOTH",
"599 -10 OFFCURVE",
"750 146 OFFCURVE",
"750 350 CURVE SMOOTH",
"750 554 OFFCURVE",
"599 710 OFFCURVE",
"390 710 CURVE SMOOTH"
);
},
{
closed = 1;
nodes = (
"618 220 OFFCURVE",
"523 122 OFFCURVE",
"390 122 CURVE SMOOTH",
"255 122 OFFCURVE",
"160 220 OFFCURVE",
"160 350 CURVE SMOOTH",
"160 482 OFFCURVE",
"255 580 OFFCURVE",
"390 580 CURVE SMOOTH",
"523 580 OFFCURVE",
"618 482 OFFCURVE",
"618 350 CURVE SMOOTH"
);
},
{
closed = 1;
nodes = (
"380 812 LINE",
"400 812 LINE",
"582 720 LINE",
"603 758 LINE",
"390 865 LINE",
"177 758 LINE",
"198 720 LINE"
);
}
);
};
components = (
{
alignment = -1;
name = O.big;
},
{
alignment = -1;
name = circumflexcomb;
transform = "{1, 0, 0, 1, 87, -40}";
}
);
guideLines = (
{
position = "{652, 720}";
}
);
layerId = "96BCCF85-5232-4835-A4EF-A1D5F093B6B0";
width = 780;
},
{
background = {
paths = (
{
closed = 1;
nodes = (
"180 710 OFFCURVE",
"30 554 OFFCURVE",
"30 350 CURVE SMOOTH",
"30 146 OFFCURVE",
"180 -10 OFFCURVE",
"390 -10 CURVE SMOOTH",
"599 -10 OFFCURVE",
"750 146 OFFCURVE",
"750 350 CURVE SMOOTH",
"750 554 OFFCURVE",
"599 710 OFFCURVE",
"390 710 CURVE SMOOTH"
);
},
{
closed = 1;
nodes = (
"618 220 OFFCURVE",
"523 122 OFFCURVE",
"390 122 CURVE SMOOTH",
"255 122 OFFCURVE",
"160 220 OFFCURVE",
"160 350 CURVE SMOOTH",
"160 482 OFFCURVE",
"255 580 OFFCURVE",
"390 580 CURVE SMOOTH",
"523 580 OFFCURVE",
"618 482 OFFCURVE",
"618 350 CURVE SMOOTH"
);
},
{
closed = 1;
nodes = (
"380 812 LINE",
"400 812 LINE",
"652 720 LINE",
"663 740 LINE",
"390 842 LINE",
"117 740 LINE",
"128 720 LINE"
);
}
);
};
components = (
{
alignment = -1;
name = O.big;
},
{
alignment = -1;
name = circumflexcomb;
transform = "{1, 0, 0, 1, 87, -40}";
}
);
guideLines = (
{
position = "{652, 720}";
}
);
layerId = m002;
width = 780;
}
);
leftKerningGroup = O;
rightKerningGroup = O;
unicode = 00D4;
},
{
glyphname = Ocircumflexacute;
lastChange = "2023-04-27 11:52:18 +0000";
layers = (
{
background = {
paths = (
{
closed = 1;
nodes = (
"180 710 OFFCURVE",
"30 554 OFFCURVE",
"30 350 CURVE SMOOTH",
"30 146 OFFCURVE",
"180 -10 OFFCURVE",
"390 -10 CURVE SMOOTH",
"599 -10 OFFCURVE",
"750 146 OFFCURVE",
"750 350 CURVE SMOOTH",
"750 554 OFFCURVE",
"599 710 OFFCURVE",
"390 710 CURVE SMOOTH"
);
},
{
closed = 1;
nodes = (
"618 220 OFFCURVE",
"523 122 OFFCURVE",
"390 122 CURVE SMOOTH",
"255 122 OFFCURVE",
"160 220 OFFCURVE",
"160 350 CURVE SMOOTH",
"160 482 OFFCURVE",
"255 580 OFFCURVE",
"390 580 CURVE SMOOTH",
"523 580 OFFCURVE",
"618 482 OFFCURVE",
"618 350 CURVE SMOOTH"
);
},
{
closed = 1;
nodes = (
"573 828 LINE",
"788 928 LINE",
"769 966 LINE",
"551 864 LINE"
);
},
{
closed = 1;
nodes = (
"380 812 LINE",
"400 812 LINE",
"582 720 LINE",
"603 758 LINE",
"390 865 LINE",
"177 758 LINE",
"198 720 LINE"
);
}
);
};
components = (
{
alignment = -1;
name = O.big;
},
{
alignment = -1;
name = circumflexcomb_acutecomb;
transform = "{1, 0, 0, 1, 87, -40}";
}
);
guideLines = (
{
position = "{652, 720}";
}
);
layerId = "96BCCF85-5232-4835-A4EF-A1D5F093B6B0";
width = 780;
},
{
background = {
paths = (
{
closed = 1;
nodes = (
"180 710 OFFCURVE",
"30 554 OFFCURVE",
"30 350 CURVE SMOOTH",
"30 146 OFFCURVE",
"180 -10 OFFCURVE",
"390 -10 CURVE SMOOTH",
"599 -10 OFFCURVE",
"750 146 OFFCURVE",
"750 350 CURVE SMOOTH",
"750 554 OFFCURVE",
"599 710 OFFCURVE",
"390 710 CURVE SMOOTH"
);
},
{
closed = 1;
nodes = (
"618 220 OFFCURVE",
"523 122 OFFCURVE",
"390 122 CURVE SMOOTH",
"255 122 OFFCURVE",
"160 220 OFFCURVE",
"160 350 CURVE SMOOTH",
"160 482 OFFCURVE",
"255 580 OFFCURVE",
"390 580 CURVE SMOOTH",
"523 580 OFFCURVE",
"618 482 OFFCURVE",
"618 350 CURVE SMOOTH"
);
},
{
closed = 1;
nodes = (
"380 812 LINE",
"400 812 LINE",
"652 720 LINE",
"663 740 LINE",
"390 842 LINE",
"117 740 LINE",
"128 720 LINE"
);
},
{
closed = 1;
nodes = (
"526 842 LINE",
"663 1048 LINE",
"663 1063 LINE",
"623 1063 LINE",
"506 842 LINE"
);
}
);
};
components = (
{
alignment = -1;
name = O.big;
},
{
alignment = -1;
name = circumflexcomb_acutecomb;
transform = "{1, 0, 0, 1, 87, -40}";
}
);
guideLines = (
{
position = "{652, 720}";
}
);
layerId = m002;
width = 780;
}
);
leftKerningGroup = O;
rightKerningGroup = O;
unicode = 1ED0;
},
{
glyphname = Ocircumflexdotbelow;
lastChange = "2023-04-27 11:52:18 +0000";
layers = (
{
background = {
paths = (
{
closed = 1;
nodes = (
"180 710 OFFCURVE",
"30 554 OFFCURVE",
"30 350 CURVE SMOOTH",
"30 146 OFFCURVE",
"180 -10 OFFCURVE",
"390 -10 CURVE SMOOTH",
"599 -10 OFFCURVE",
"750 146 OFFCURVE",
"750 350 CURVE SMOOTH",
"750 554 OFFCURVE",
"599 710 OFFCURVE",
"390 710 CURVE SMOOTH"
);
},
{
closed = 1;
nodes = (
"618 220 OFFCURVE",
"523 122 OFFCURVE",
"390 122 CURVE SMOOTH",
"255 122 OFFCURVE",
"160 220 OFFCURVE",
"160 350 CURVE SMOOTH",
"160 482 OFFCURVE",
"255 580 OFFCURVE",
"390 580 CURVE SMOOTH",
"523 580 OFFCURVE",
"618 482 OFFCURVE",
"618 350 CURVE SMOOTH"
);
},
{
closed = 1;
nodes = (
"470 -46 LINE",
"470 -137 LINE",
"310 -137 LINE",
"310 -46 LINE"
);
},
{
closed = 1;
nodes = (
"380 812 LINE",
"400 812 LINE",
"582 720 LINE",
"603 758 LINE",
"390 865 LINE",
"177 758 LINE",
"198 720 LINE"
);
}
);
};
components = (
{
alignment = -1;
name = O.big;
},
{
alignment = -1;
name = dotbelowcomb;
transform = "{1, 0, 0, 1, 280, 0}";
},
{
alignment = -1;
name = circumflexcomb;
transform = "{1, 0, 0, 1, 87, -40}";
}
);
guideLines = (
{
position = "{652, 720}";
}
);
layerId = "96BCCF85-5232-4835-A4EF-A1D5F093B6B0";
width = 780;
},
{
background = {
paths = (
{
closed = 1;
nodes = (
"180 710 OFFCURVE",
"30 554 OFFCURVE",
"30 350 CURVE SMOOTH",
"30 146 OFFCURVE",
"180 -10 OFFCURVE",
"390 -10 CURVE SMOOTH",
"599 -10 OFFCURVE",
"750 146 OFFCURVE",
"750 350 CURVE SMOOTH",
"750 554 OFFCURVE",
"599 710 OFFCURVE",
"390 710 CURVE SMOOTH"
);
},
{
closed = 1;
nodes = (
"618 220 OFFCURVE",
"523 122 OFFCURVE",
"390 122 CURVE SMOOTH",
"255 122 OFFCURVE",
"160 220 OFFCURVE",
"160 350 CURVE SMOOTH",
"160 482 OFFCURVE",
"255 580 OFFCURVE",
"390 580 CURVE SMOOTH",
"523 580 OFFCURVE",
"618 482 OFFCURVE",
"618 350 CURVE SMOOTH"
);
},
{
closed = 1;
nodes = (
"470 -46 LINE",
"470 -137 LINE",
"310 -137 LINE",
"310 -46 LINE"
);
},
{
closed = 1;
nodes = (
"380 812 LINE",
"400 812 LINE",
"652 720 LINE",
"663 740 LINE",
"390 842 LINE",
"117 740 LINE",
"128 720 LINE"
);
}
);
};
components = (
{
alignment = -1;
name = O.big;
},
{
alignment = -1;
name = dotbelowcomb;
transform = "{1, 0, 0, 1, 280, 0}";
},
{
alignment = -1;
name = circumflexcomb;
transform = "{1, 0, 0, 1, 87, -40}";
}
);
guideLines = (
{
position = "{652, 720}";
}
);
layerId = m002;
width = 780;
}
);
leftKerningGroup = O;
rightKerningGroup = O;
unicode = 1ED8;
},
{
glyphname = Ocircumflexgrave;
lastChange = "2023-04-27 11:52:18 +0000";
layers = (
{
background = {
paths = (
{
closed = 1;
nodes = (
"180 710 OFFCURVE",
"30 554 OFFCURVE",
"30 350 CURVE SMOOTH",
"30 146 OFFCURVE",
"180 -10 OFFCURVE",
"390 -10 CURVE SMOOTH",
"599 -10 OFFCURVE",
"750 146 OFFCURVE",
"750 350 CURVE SMOOTH",
"750 554 OFFCURVE",
"599 710 OFFCURVE",
"390 710 CURVE SMOOTH"
);
},
{
closed = 1;
nodes = (
"618 220 OFFCURVE",
"523 122 OFFCURVE",
"390 122 CURVE SMOOTH",
"255 122 OFFCURVE",
"160 220 OFFCURVE",
"160 350 CURVE SMOOTH",
"160 482 OFFCURVE",
"255 580 OFFCURVE",
"390 580 CURVE SMOOTH",
"523 580 OFFCURVE",
"618 482 OFFCURVE",
"618 350 CURVE SMOOTH"
);
},
{
closed = 1;
nodes = (
"441 958 LINE",
"421 921 LINE",
"637 820 LINE",
"658 857 LINE"
);
},
{
closed = 1;
nodes = (
"380 812 LINE",
"400 812 LINE",
"582 720 LINE",
"603 758 LINE",
"390 865 LINE",
"177 758 LINE",
"198 720 LINE"
);
}
);
};
components = (
{
alignment = -1;
name = O.big;
},
{
alignment = -1;
name = circumflexcomb_gravecomb;
transform = "{1, 0, 0, 1, 87, -40}";
}
);
guideLines = (
{
position = "{652, 720}";
}
);
layerId = "96BCCF85-5232-4835-A4EF-A1D5F093B6B0";
width = 780;
},
{
background = {
paths = (
{
closed = 1;
nodes = (
"180 710 OFFCURVE",
"30 554 OFFCURVE",
"30 350 CURVE SMOOTH",
"30 146 OFFCURVE",
"180 -10 OFFCURVE",
"390 -10 CURVE SMOOTH",
"599 -10 OFFCURVE",
"750 146 OFFCURVE",
"750 350 CURVE SMOOTH",
"750 554 OFFCURVE",
"599 710 OFFCURVE",
"390 710 CURVE SMOOTH"
);
},
{
closed = 1;
nodes = (
"618 220 OFFCURVE",
"523 122 OFFCURVE",
"390 122 CURVE SMOOTH",
"255 122 OFFCURVE",
"160 220 OFFCURVE",
"160 350 CURVE SMOOTH",
"160 482 OFFCURVE",
"255 580 OFFCURVE",
"390 580 CURVE SMOOTH",
"523 580 OFFCURVE",
"618 482 OFFCURVE",
"618 350 CURVE SMOOTH"
);
},
{
closed = 1;
nodes = (
"380 812 LINE",
"400 812 LINE",
"652 720 LINE",
"663 740 LINE",
"390 842 LINE",
"117 740 LINE",
"128 720 LINE"
);
},
{
closed = 1;
nodes = (
"488 1041 LINE",
"448 1041 LINE",
"448 1026 LINE",
"585 820 LINE",
"605 820 LINE"
);
}
);
};
components = (
{
alignment = -1;
name = O.big;
},
{
alignment = -1;
name = circumflexcomb_gravecomb;
transform = "{1, 0, 0, 1, 87, -40}";
}
);
guideLines = (
{
position = "{652, 720}";
}
);
layerId = m002;
width = 780;
}
);
leftKerningGroup = O;
rightKerningGroup = O;
unicode = 1ED2;
},
{
glyphname = Ocircumflexhookabove;
lastChange = "2023-04-27 11:52:18 +0000";
layers = (
{
background = {
paths = (
{
closed = 1;
nodes = (
"180 710 OFFCURVE",
"30 554 OFFCURVE",
"30 350 CURVE SMOOTH",
"30 146 OFFCURVE",
"180 -10 OFFCURVE",
"390 -10 CURVE SMOOTH",
"599 -10 OFFCURVE",
"750 146 OFFCURVE",
"750 350 CURVE SMOOTH",
"750 554 OFFCURVE",
"599 710 OFFCURVE",
"390 710 CURVE SMOOTH"
);
},
{
closed = 1;
nodes = (
"618 220 OFFCURVE",
"523 122 OFFCURVE",
"390 122 CURVE SMOOTH",
"255 122 OFFCURVE",
"160 220 OFFCURVE",
"160 350 CURVE SMOOTH",
"160 482 OFFCURVE",
"255 580 OFFCURVE",
"390 580 CURVE SMOOTH",
"523 580 OFFCURVE",
"618 482 OFFCURVE",
"618 350 CURVE SMOOTH"
);
},
{
closed = 1;
nodes = (
"548 857 LINE",
"548 905 OFFCURVE",
"609 892 OFFCURVE",
"609 953 CURVE SMOOTH",
"609 993 OFFCURVE",
"571 1023 OFFCURVE",
"523 1023 CURVE SMOOTH",
"474 1023 OFFCURVE",
"436 992 OFFCURVE",
"436 953 CURVE",
"436 942 LINE",
"480 942 LINE",
"480 948 LINE SMOOTH",
"480 970 OFFCURVE",
"496 983 OFFCURVE",
"523 983 CURVE SMOOTH",
"550 983 OFFCURVE",
"565 970 OFFCURVE",
"565 953 CURVE SMOOTH",
"565 918 OFFCURVE",
"504 925 OFFCURVE",
"504 857 CURVE"
);
},
{
closed = 1;
nodes = (
"380 812 LINE",
"400 812 LINE",
"582 720 LINE",
"603 758 LINE",
"390 865 LINE",
"177 758 LINE",
"198 720 LINE"
);
}
);
};
components = (
{
alignment = -1;
name = O.big;
},
{
alignment = -1;
name = circumflexcomb_hookabovecomb;
transform = "{1, 0, 0, 1, 87, -40}";
}
);
guideLines = (
{
position = "{652, 720}";
}
);
layerId = "96BCCF85-5232-4835-A4EF-A1D5F093B6B0";
width = 780;
},
{
background = {
paths = (
{
closed = 1;
nodes = (
"180 710 OFFCURVE",
"30 554 OFFCURVE",
"30 350 CURVE SMOOTH",
"30 146 OFFCURVE",
"180 -10 OFFCURVE",
"390 -10 CURVE SMOOTH",
"599 -10 OFFCURVE",
"750 146 OFFCURVE",
"750 350 CURVE SMOOTH",
"750 554 OFFCURVE",
"599 710 OFFCURVE",
"390 710 CURVE SMOOTH"
);
},
{
closed = 1;
nodes = (
"618 220 OFFCURVE",
"523 122 OFFCURVE",
"390 122 CURVE SMOOTH",
"255 122 OFFCURVE",
"160 220 OFFCURVE",
"160 350 CURVE SMOOTH",
"160 482 OFFCURVE",
"255 580 OFFCURVE",
"390 580 CURVE SMOOTH",
"523 580 OFFCURVE",
"618 482 OFFCURVE",
"618 350 CURVE SMOOTH"
);
},
{
closed = 1;
nodes = (
"380 812 LINE",
"400 812 LINE",
"652 720 LINE",
"663 740 LINE",
"390 842 LINE",
"117 740 LINE",
"128 720 LINE"
);
},
{
closed = 1;
nodes = (
"625 967 LINE SMOOTH",
"645 1024 OFFCURVE",
"602 1070 OFFCURVE",
"554 1064 CURVE SMOOTH",
"503 1058 OFFCURVE",
"475 1008 OFFCURVE",
"494 956 CURVE",
"525 960 LINE",
"511 1005 OFFCURVE",
"534 1026 OFFCURVE",
"555 1028 CURVE SMOOTH",
"581 1031 OFFCURVE",
"608 1010 OFFCURVE",
"593 967 CURVE SMOOTH",
"542 820 LINE",
"572 820 LINE"
);
}
);
};
components = (
{
alignment = -1;
name = O.big;
},
{
alignment = -1;
name = circumflexcomb_hookabovecomb;
transform = "{1, 0, 0, 1, 87, -40}";
}
);
guideLines = (
{
position = "{652, 720}";
}
);
layerId = m002;
width = 780;
}
);
leftKerningGroup = O;
rightKerningGroup = O;
unicode = 1ED4;
},
{
glyphname = Ocircumflextilde;
lastChange = "2023-04-27 11:52:18 +0000";
layers = (
{
background = {
paths = (
{
closed = 1;
nodes = (
"180 710 OFFCURVE",
"30 554 OFFCURVE",
"30 350 CURVE SMOOTH",
"30 146 OFFCURVE",
"180 -10 OFFCURVE",
"390 -10 CURVE SMOOTH",
"599 -10 OFFCURVE",
"750 146 OFFCURVE",
"750 350 CURVE SMOOTH",
"750 554 OFFCURVE",
"599 710 OFFCURVE",
"390 710 CURVE SMOOTH"
);
},
{
closed = 1;
nodes = (
"618 220 OFFCURVE",
"523 122 OFFCURVE",
"390 122 CURVE SMOOTH",
"255 122 OFFCURVE",
"160 220 OFFCURVE",
"160 350 CURVE SMOOTH",
"160 482 OFFCURVE",
"255 580 OFFCURVE",
"390 580 CURVE SMOOTH",
"523 580 OFFCURVE",
"618 482 OFFCURVE",
"618 350 CURVE SMOOTH"
);
},
{
closed = 1;
nodes = (
"380 812 LINE",
"400 812 LINE",
"582 720 LINE",
"603 758 LINE",
"390 865 LINE",
"177 758 LINE",
"198 720 LINE"
);
},
{
closed = 1;
nodes = (
"250 886 LINE",
"253 919 OFFCURVE",
"271 951 OFFCURVE",
"312 954 CURVE SMOOTH",
"363 958 OFFCURVE",
"402 895 OFFCURVE",
"470 886 CURVE SMOOTH",
"536 877 OFFCURVE",
"576 910 OFFCURVE",
"576 983 CURVE",
"530 983 LINE",
"530 947 OFFCURVE",
"519 911 OFFCURVE",
"464 930 CURVE SMOOTH",
"416 947 OFFCURVE",
"376 999 OFFCURVE",
"306 994 CURVE SMOOTH",
"227 988 OFFCURVE",
"204 922 OFFCURVE",
"204 886 CURVE"
);
}
);
};
components = (
{
alignment = -1;
name = O.big;
},
{
alignment = -1;
name = circumflexcomb_tildecomb;
transform = "{1, 0, 0, 1, 87, -40}";
}
);
guideLines = (
{
position = "{652, 720}";
}
);
layerId = "96BCCF85-5232-4835-A4EF-A1D5F093B6B0";
width = 780;
},
{
background = {
paths = (
{
closed = 1;
nodes = (
"180 710 OFFCURVE",
"30 554 OFFCURVE",
"30 350 CURVE SMOOTH",
"30 146 OFFCURVE",
"180 -10 OFFCURVE",
"390 -10 CURVE SMOOTH",
"599 -10 OFFCURVE",
"750 146 OFFCURVE",
"750 350 CURVE SMOOTH",
"750 554 OFFCURVE",
"599 710 OFFCURVE",
"390 710 CURVE SMOOTH"
);
},
{
closed = 1;
nodes = (
"618 220 OFFCURVE",
"523 122 OFFCURVE",
"390 122 CURVE SMOOTH",
"255 122 OFFCURVE",
"160 220 OFFCURVE",
"160 350 CURVE SMOOTH",
"160 482 OFFCURVE",
"255 580 OFFCURVE",
"390 580 CURVE SMOOTH",
"523 580 OFFCURVE",
"618 482 OFFCURVE",
"618 350 CURVE SMOOTH"
);
},
{
closed = 1;
nodes = (
"380 812 LINE",
"400 812 LINE",
"652 720 LINE",
"663 740 LINE",
"390 842 LINE",
"117 740 LINE",
"128 720 LINE"
);
},
{
closed = 1;
nodes = (
"230 868 LINE",
"230 901 OFFCURVE",
"255 934 OFFCURVE",
"301 932 CURVE SMOOTH",
"360 929 OFFCURVE",
"417 876 OFFCURVE",
"492 868 CURVE SMOOTH",
"539 863 OFFCURVE",
"580 892 OFFCURVE",
"580 958 CURVE",
"550 958 LINE",
"550 929 OFFCURVE",
"547 886 OFFCURVE",
"479 896 CURVE SMOOTH",
"431 903 OFFCURVE",
"378 950 OFFCURVE",
"306 958 CURVE SMOOTH",
"235 966 OFFCURVE",
"200 904 OFFCURVE",
"200 868 CURVE"
);
}
);
};
components = (
{
alignment = -1;
name = O.big;
},
{
alignment = -1;
name = circumflexcomb_tildecomb;
transform = "{1, 0, 0, 1, 87, -40}";
}
);
guideLines = (
{
position = "{652, 720}";
}
);
layerId = m002;
width = 780;
}
);
leftKerningGroup = O;
rightKerningGroup = O;
unicode = 1ED6;
},
{
glyphname = Odieresis;
lastChange = "2023-04-27 11:52:18 +0000";
layers = (
{
background = {
paths = (
{
closed = 1;
nodes = (
"180 710 OFFCURVE",
"30 554 OFFCURVE",
"30 350 CURVE SMOOTH",
"30 146 OFFCURVE",
"180 -10 OFFCURVE",
"390 -10 CURVE SMOOTH",
"599 -10 OFFCURVE",
"750 146 OFFCURVE",
"750 350 CURVE SMOOTH",
"750 554 OFFCURVE",
"599 710 OFFCURVE",
"390 710 CURVE SMOOTH"
);
},
{
closed = 1;
nodes = (
"618 220 OFFCURVE",
"523 122 OFFCURVE",
"390 122 CURVE SMOOTH",
"255 122 OFFCURVE",
"160 220 OFFCURVE",
"160 350 CURVE SMOOTH",
"160 482 OFFCURVE",
"255 580 OFFCURVE",
"390 580 CURVE SMOOTH",
"523 580 OFFCURVE",
"618 482 OFFCURVE",
"618 350 CURVE SMOOTH"
);
},
{
closed = 1;
nodes = (
"271 761 LINE",
"365 761 LINE",
"365 865 LINE",
"271 865 LINE"
);
},
{
closed = 1;
nodes = (
"419 761 LINE",
"513 761 LINE",
"513 865 LINE",
"419 865 LINE"
);
}
);
};
components = (
{
alignment = -1;
name = O.big;
},
{
alignment = -1;
name = dieresiscomb;
transform = "{1, 0, 0, 1, 227, 0}";
}
);
layerId = "96BCCF85-5232-4835-A4EF-A1D5F093B6B0";
width = 780;
},
{
background = {
paths = (
{
closed = 1;
nodes = (
"180 710 OFFCURVE",
"30 554 OFFCURVE",
"30 350 CURVE SMOOTH",
"30 146 OFFCURVE",
"180 -10 OFFCURVE",
"390 -10 CURVE SMOOTH",
"599 -10 OFFCURVE",
"750 146 OFFCURVE",
"750 350 CURVE SMOOTH",
"750 554 OFFCURVE",
"599 710 OFFCURVE",
"390 710 CURVE SMOOTH"
);
},
{
closed = 1;
nodes = (
"618 220 OFFCURVE",
"523 122 OFFCURVE",
"390 122 CURVE SMOOTH",
"255 122 OFFCURVE",
"160 220 OFFCURVE",
"160 350 CURVE SMOOTH",
"160 482 OFFCURVE",
"255 580 OFFCURVE",
"390 580 CURVE SMOOTH",
"523 580 OFFCURVE",
"618 482 OFFCURVE",
"618 350 CURVE SMOOTH"
);
},
{
closed = 1;
nodes = (
"349 761 OFFCURVE",
"375 787 OFFCURVE",
"375 819 CURVE",
"375 852 OFFCURVE",
"349 877 OFFCURVE",
"316 877 CURVE",
"284 877 OFFCURVE",
"258 852 OFFCURVE",
"258 819 CURVE",
"258 787 OFFCURVE",
"284 761 OFFCURVE",
"316 761 CURVE"
);
},
{
closed = 1;
nodes = (
"497 761 OFFCURVE",
"523 787 OFFCURVE",
"523 819 CURVE",
"523 852 OFFCURVE",
"497 877 OFFCURVE",
"464 877 CURVE",
"432 877 OFFCURVE",
"406 852 OFFCURVE",
"406 819 CURVE",
"406 787 OFFCURVE",
"432 761 OFFCURVE",
"464 761 CURVE"
);
}
);
};
components = (
{
alignment = -1;
name = O.big;
},
{
alignment = -1;
name = dieresiscomb;
transform = "{1, 0, 0, 1, 227, 0}";
}
);
layerId = m002;
width = 780;
}
);
leftKerningGroup = O;
rightKerningGroup = O;
unicode = 00D6;
},
{
glyphname = Odotbelow;
lastChange = "2023-04-27 11:52:18 +0000";
layers = (
{
background = {
paths = (
{
closed = 1;
nodes = (
"180 710 OFFCURVE",
"30 554 OFFCURVE",
"30 350 CURVE SMOOTH",
"30 146 OFFCURVE",
"180 -10 OFFCURVE",
"390 -10 CURVE SMOOTH",
"599 -10 OFFCURVE",
"750 146 OFFCURVE",
"750 350 CURVE SMOOTH",
"750 554 OFFCURVE",
"599 710 OFFCURVE",
"390 710 CURVE SMOOTH"
);
},
{
closed = 1;
nodes = (
"618 220 OFFCURVE",
"523 122 OFFCURVE",
"390 122 CURVE SMOOTH",
"255 122 OFFCURVE",
"160 220 OFFCURVE",
"160 350 CURVE SMOOTH",
"160 482 OFFCURVE",
"255 580 OFFCURVE",
"390 580 CURVE SMOOTH",
"523 580 OFFCURVE",
"618 482 OFFCURVE",
"618 350 CURVE SMOOTH"
);
},
{
closed = 1;
nodes = (
"470 -46 LINE",
"470 -137 LINE",
"310 -137 LINE",
"310 -46 LINE"
);
}
);
};
components = (
{
alignment = -1;
name = O.big;
},
{
alignment = -1;
name = dotbelowcomb;
transform = "{1, 0, 0, 1, 280, 0}";
}
);
layerId = "96BCCF85-5232-4835-A4EF-A1D5F093B6B0";
width = 780;
},
{
background = {
paths = (
{
closed = 1;
nodes = (
"180 710 OFFCURVE",
"30 554 OFFCURVE",
"30 350 CURVE SMOOTH",
"30 146 OFFCURVE",
"180 -10 OFFCURVE",
"390 -10 CURVE SMOOTH",
"599 -10 OFFCURVE",
"750 146 OFFCURVE",
"750 350 CURVE SMOOTH",
"750 554 OFFCURVE",
"599 710 OFFCURVE",
"390 710 CURVE SMOOTH"
);
},
{
closed = 1;
nodes = (
"618 220 OFFCURVE",
"523 122 OFFCURVE",
"390 122 CURVE SMOOTH",
"255 122 OFFCURVE",
"160 220 OFFCURVE",
"160 350 CURVE SMOOTH",
"160 482 OFFCURVE",
"255 580 OFFCURVE",
"390 580 CURVE SMOOTH",
"523 580 OFFCURVE",
"618 482 OFFCURVE",
"618 350 CURVE SMOOTH"
);
},
{
closed = 1;
nodes = (
"470 -46 LINE",
"470 -137 LINE",
"310 -137 LINE",
"310 -46 LINE"
);
}
);
};
components = (
{
alignment = -1;
name = O.big;
},
{
alignment = -1;
name = dotbelowcomb;
transform = "{1, 0, 0, 1, 280, 0}";
}
);
layerId = m002;
width = 780;
}
);
leftKerningGroup = O;
rightKerningGroup = O;
unicode = 1ECC;
},
{
glyphname = Ograve;
lastChange = "2023-04-27 11:52:18 +0000";
layers = (
{
background = {
paths = (
{
closed = 1;
nodes = (
"180 710 OFFCURVE",
"30 554 OFFCURVE",
"30 350 CURVE SMOOTH",
"30 146 OFFCURVE",
"180 -10 OFFCURVE",
"390 -10 CURVE SMOOTH",
"599 -10 OFFCURVE",
"750 146 OFFCURVE",
"750 350 CURVE SMOOTH",
"750 554 OFFCURVE",
"599 710 OFFCURVE",
"390 710 CURVE SMOOTH"
);
},
{
closed = 1;
nodes = (
"618 220 OFFCURVE",
"523 122 OFFCURVE",
"390 122 CURVE SMOOTH",
"255 122 OFFCURVE",
"160 220 OFFCURVE",
"160 350 CURVE SMOOTH",
"160 482 OFFCURVE",
"255 580 OFFCURVE",
"390 580 CURVE SMOOTH",
"523 580 OFFCURVE",
"618 482 OFFCURVE",
"618 350 CURVE SMOOTH"
);
},
{
closed = 1;
nodes = (
"217 848 LINE",
"209 805 LINE",
"563 740 LINE",
"571 783 LINE"
);
}
);
};
components = (
{
alignment = -1;
name = O.big;
},
{
alignment = -1;
name = gravecomb;
transform = "{1, 0, 0, 1, 179, -20}";
}
);
layerId = "96BCCF85-5232-4835-A4EF-A1D5F093B6B0";
width = 780;
},
{
background = {
paths = (
{
closed = 1;
nodes = (
"180 710 OFFCURVE",
"30 554 OFFCURVE",
"30 350 CURVE SMOOTH",
"30 146 OFFCURVE",
"180 -10 OFFCURVE",
"390 -10 CURVE SMOOTH",
"599 -10 OFFCURVE",
"750 146 OFFCURVE",
"750 350 CURVE SMOOTH",
"750 554 OFFCURVE",
"599 710 OFFCURVE",
"390 710 CURVE SMOOTH"
);
},
{
closed = 1;
nodes = (
"618 220 OFFCURVE",
"523 122 OFFCURVE",
"390 122 CURVE SMOOTH",
"255 122 OFFCURVE",
"160 220 OFFCURVE",
"160 350 CURVE SMOOTH",
"160 482 OFFCURVE",
"255 580 OFFCURVE",
"390 580 CURVE SMOOTH",
"523 580 OFFCURVE",
"618 482 OFFCURVE",
"618 350 CURVE SMOOTH"
);
},
{
closed = 1;
nodes = (
"352 981 LINE",
"312 981 LINE",
"312 966 LINE",
"449 760 LINE",
"469 760 LINE"
);
}
);
};
components = (
{
alignment = -1;
name = O.big;
},
{
alignment = -1;
name = gravecomb;
transform = "{1, 0, 0, 1, 282, 0}";
}
);
layerId = m002;
width = 780;
}
);
leftKerningGroup = O;
rightKerningGroup = O;
unicode = 00D2;
},
{
glyphname = Ohookabove;
lastChange = "2023-04-27 11:52:18 +0000";
layers = (
{
background = {
paths = (
{
closed = 1;
nodes = (
"180 710 OFFCURVE",
"30 554 OFFCURVE",
"30 350 CURVE SMOOTH",
"30 146 OFFCURVE",
"180 -10 OFFCURVE",
"390 -10 CURVE SMOOTH",
"599 -10 OFFCURVE",
"750 146 OFFCURVE",
"750 350 CURVE SMOOTH",
"750 554 OFFCURVE",
"599 710 OFFCURVE",
"390 710 CURVE SMOOTH"
);
},
{
closed = 1;
nodes = (
"618 220 OFFCURVE",
"523 122 OFFCURVE",
"390 122 CURVE SMOOTH",
"255 122 OFFCURVE",
"160 220 OFFCURVE",
"160 350 CURVE SMOOTH",
"160 482 OFFCURVE",
"255 580 OFFCURVE",
"390 580 CURVE SMOOTH",
"523 580 OFFCURVE",
"618 482 OFFCURVE",
"618 350 CURVE SMOOTH"
);
},
{
closed = 1;
nodes = (
"417 760 LINE",
"417 805 OFFCURVE",
"506 773 OFFCURVE",
"506 848 CURVE SMOOTH",
"506 896 OFFCURVE",
"455 926 OFFCURVE",
"390 926 CURVE SMOOTH",
"324 926 OFFCURVE",
"273 896 OFFCURVE",
"273 848 CURVE SMOOTH",
"273 838 LINE",
"323 838 LINE",
"323 846 LINE SMOOTH",
"323 874 OFFCURVE",
"362 881 OFFCURVE",
"390 881 CURVE SMOOTH",
"417 881 OFFCURVE",
"456 874 OFFCURVE",
"456 848 CURVE SMOOTH",
"456 809 OFFCURVE",
"362 832 OFFCURVE",
"362 760 CURVE"
);
}
);
};
components = (
{
alignment = -1;
name = O.big;
},
{
alignment = -1;
name = hookabovecomb;
transform = "{1, 0, 0, 1, 273, -30}";
}
);
layerId = "96BCCF85-5232-4835-A4EF-A1D5F093B6B0";
width = 780;
},
{
background = {
paths = (
{
closed = 1;
nodes = (
"180 710 OFFCURVE",
"30 554 OFFCURVE",
"30 350 CURVE SMOOTH",
"30 146 OFFCURVE",
"180 -10 OFFCURVE",
"390 -10 CURVE SMOOTH",
"599 -10 OFFCURVE",
"750 146 OFFCURVE",
"750 350 CURVE SMOOTH",
"750 554 OFFCURVE",
"599 710 OFFCURVE",
"390 710 CURVE SMOOTH"
);
},
{
closed = 1;
nodes = (
"618 220 OFFCURVE",
"523 122 OFFCURVE",
"390 122 CURVE SMOOTH",
"255 122 OFFCURVE",
"160 220 OFFCURVE",
"160 350 CURVE SMOOTH",
"160 482 OFFCURVE",
"255 580 OFFCURVE",
"390 580 CURVE SMOOTH",
"523 580 OFFCURVE",
"618 482 OFFCURVE",
"618 350 CURVE SMOOTH"
);
},
{
closed = 1;
nodes = (
"456 907 LINE SMOOTH",
"476 964 OFFCURVE",
"433 1010 OFFCURVE",
"385 1004 CURVE SMOOTH",
"334 998 OFFCURVE",
"306 948 OFFCURVE",
"325 896 CURVE",
"356 900 LINE",
"342 945 OFFCURVE",
"365 966 OFFCURVE",
"386 968 CURVE SMOOTH",
"412 971 OFFCURVE",
"439 950 OFFCURVE",
"424 907 CURVE SMOOTH",
"373 760 LINE",
"403 760 LINE"
);
}
);
};
components = (
{
alignment = -1;
name = O.big;
},
{
alignment = -1;
name = hookabovecomb;
transform = "{1, 0, 0, 1, 289, -30}";
}
);
layerId = m002;
width = 780;
}
);
leftKerningGroup = O;
rightKerningGroup = O;
unicode = 1ECE;
},
{
glyphname = Ohorn;
lastChange = "2023-04-27 11:52:18 +0000";
layers = (
{
anchors = (
{
name = bottom;
position = "{390, 0}";
},
{
name = top;
position = "{390, 700}";
}
);
background = {
paths = (
{
closed = 1;
nodes = (
"734 475 OFFCURVE",
"750 417 OFFCURVE",
"750 350 CURVE",
"750 151 OFFCURVE",
"589 -10 OFFCURVE",
"390 -10 CURVE",
"191 -10 OFFCURVE",
"30 151 OFFCURVE",
"30 350 CURVE",
"30 549 OFFCURVE",
"191 710 OFFCURVE",
"390 710 CURVE SMOOTH",
"535 710 OFFCURVE",
"609 636 OFFCURVE",
"627 584 CURVE",
"637 584 LINE",
"653 615 OFFCURVE",
"659 647 OFFCURVE",
"659 700 CURVE",
"749 700 LINE",
"749 634 OFFCURVE",
"741 577 OFFCURVE",
"702 529 CURVE"
);
},
{
closed = 1;
nodes = (
"601 467 OFFCURVE",
"507 561 OFFCURVE",
"390 561 CURVE",
"274 561 OFFCURVE",
"180 467 OFFCURVE",
"180 350 CURVE",
"180 234 OFFCURVE",
"274 140 OFFCURVE",
"390 140 CURVE",
"507 140 OFFCURVE",
"601 234 OFFCURVE",
"601 350 CURVE"
);
}
);
};
layerId = "96BCCF85-5232-4835-A4EF-A1D5F093B6B0";
paths = (
{
closed = 1;
nodes = (
"734 475 OFFCURVE",
"750 417 OFFCURVE",
"750 350 CURVE",
"750 151 OFFCURVE",
"589 -10 OFFCURVE",
"390 -10 CURVE",
"191 -10 OFFCURVE",
"30 151 OFFCURVE",
"30 350 CURVE",
"30 549 OFFCURVE",
"191 710 OFFCURVE",
"390 710 CURVE SMOOTH",
"535 710 OFFCURVE",
"609 636 OFFCURVE",
"627 584 CURVE",
"637 584 LINE",
"653 615 OFFCURVE",
"659 647 OFFCURVE",
"659 700 CURVE",
"749 700 LINE",
"749 634 OFFCURVE",
"741 577 OFFCURVE",
"702 529 CURVE"
);
},
{
closed = 1;
nodes = (
"601 467 OFFCURVE",
"507 561 OFFCURVE",
"390 561 CURVE",
"274 561 OFFCURVE",
"180 467 OFFCURVE",
"180 350 CURVE",
"180 234 OFFCURVE",
"274 140 OFFCURVE",
"390 140 CURVE",
"507 140 OFFCURVE",
"601 234 OFFCURVE",
"601 350 CURVE"
);
}
);
width = 780;
},
{
anchors = (
{
name = bottom;
position = "{390, 0}";
},
{
name = top;
position = "{390, 700}";
}
);
background = {
paths = (
{
closed = 1;
nodes = (
"734 475 OFFCURVE",
"750 417 OFFCURVE",
"750 350 CURVE",
"750 151 OFFCURVE",
"589 -10 OFFCURVE",
"390 -10 CURVE",
"191 -10 OFFCURVE",
"30 151 OFFCURVE",
"30 350 CURVE",
"30 549 OFFCURVE",
"191 710 OFFCURVE",
"390 710 CURVE SMOOTH",
"535 710 OFFCURVE",
"609 636 OFFCURVE",
"627 584 CURVE",
"637 584 LINE",
"653 615 OFFCURVE",
"659 647 OFFCURVE",
"659 700 CURVE",
"749 700 LINE",
"749 634 OFFCURVE",
"741 577 OFFCURVE",
"702 529 CURVE"
);
},
{
closed = 1;
nodes = (
"601 467 OFFCURVE",
"507 561 OFFCURVE",
"390 561 CURVE",
"274 561 OFFCURVE",
"180 467 OFFCURVE",
"180 350 CURVE",
"180 234 OFFCURVE",
"274 140 OFFCURVE",
"390 140 CURVE",
"507 140 OFFCURVE",
"601 234 OFFCURVE",
"601 350 CURVE"
);
}
);
};
layerId = m002;
paths = (
{
closed = 1;
nodes = (
"734 475 OFFCURVE",
"750 417 OFFCURVE",
"750 350 CURVE",
"750 151 OFFCURVE",
"589 -10 OFFCURVE",
"390 -10 CURVE",
"191 -10 OFFCURVE",
"30 151 OFFCURVE",
"30 350 CURVE",
"30 549 OFFCURVE",
"191 710 OFFCURVE",
"390 710 CURVE SMOOTH",
"535 710 OFFCURVE",
"609 636 OFFCURVE",
"627 584 CURVE",
"637 584 LINE",
"653 615 OFFCURVE",
"659 647 OFFCURVE",
"659 700 CURVE",
"749 700 LINE",
"749 634 OFFCURVE",
"741 577 OFFCURVE",
"702 529 CURVE"
);
},
{
closed = 1;
nodes = (
"601 467 OFFCURVE",
"507 561 OFFCURVE",
"390 561 CURVE",
"274 561 OFFCURVE",
"180 467 OFFCURVE",
"180 350 CURVE",
"180 234 OFFCURVE",
"274 140 OFFCURVE",
"390 140 CURVE",
"507 140 OFFCURVE",
"601 234 OFFCURVE",
"601 350 CURVE"
);
}
);
width = 780;
}
);
leftKerningGroup = O;
rightKerningGroup = O;
unicode = 01A0;
},
{
glyphname = Ohornacute;
lastChange = "2023-04-27 11:52:18 +0000";
layers = (
{
background = {
paths = (
{
closed = 1;
nodes = (
"734 475 OFFCURVE",
"750 417 OFFCURVE",
"750 350 CURVE",
"750 151 OFFCURVE",
"589 -10 OFFCURVE",
"390 -10 CURVE",
"191 -10 OFFCURVE",
"30 151 OFFCURVE",
"30 350 CURVE",
"30 549 OFFCURVE",
"191 710 OFFCURVE",
"390 710 CURVE SMOOTH",
"535 710 OFFCURVE",
"609 636 OFFCURVE",
"627 584 CURVE",
"637 584 LINE",
"653 615 OFFCURVE",
"659 647 OFFCURVE",
"659 700 CURVE",
"749 700 LINE",
"749 634 OFFCURVE",
"741 577 OFFCURVE",
"702 529 CURVE"
);
},
{
closed = 1;
nodes = (
"601 467 OFFCURVE",
"507 561 OFFCURVE",
"390 561 CURVE",
"274 561 OFFCURVE",
"180 467 OFFCURVE",
"180 350 CURVE",
"180 234 OFFCURVE",
"274 140 OFFCURVE",
"390 140 CURVE",
"507 140 OFFCURVE",
"601 234 OFFCURVE",
"601 350 CURVE"
);
},
{
closed = 1;
nodes = (
"217 740 LINE",
"571 805 LINE",
"563 848 LINE",
"209 783 LINE"
);
}
);
};
components = (
{
alignment = -1;
name = Ohorn;
},
{
alignment = -1;
name = acutecomb;
transform = "{1, 0, 0, 1, 179, -20}";
}
);
layerId = "96BCCF85-5232-4835-A4EF-A1D5F093B6B0";
width = 780;
},
{
background = {
paths = (
{
closed = 1;
nodes = (
"734 475 OFFCURVE",
"750 417 OFFCURVE",
"750 350 CURVE",
"750 151 OFFCURVE",
"589 -10 OFFCURVE",
"390 -10 CURVE",
"191 -10 OFFCURVE",
"30 151 OFFCURVE",
"30 350 CURVE",
"30 549 OFFCURVE",
"191 710 OFFCURVE",
"390 710 CURVE SMOOTH",
"535 710 OFFCURVE",
"609 636 OFFCURVE",
"627 584 CURVE",
"637 584 LINE",
"653 615 OFFCURVE",
"659 647 OFFCURVE",
"659 700 CURVE",
"749 700 LINE",
"749 634 OFFCURVE",
"741 577 OFFCURVE",
"702 529 CURVE"
);
},
{
closed = 1;
nodes = (
"601 467 OFFCURVE",
"507 561 OFFCURVE",
"390 561 CURVE",
"274 561 OFFCURVE",
"180 467 OFFCURVE",
"180 350 CURVE",
"180 234 OFFCURVE",
"274 140 OFFCURVE",
"390 140 CURVE",
"507 140 OFFCURVE",
"601 234 OFFCURVE",
"601 350 CURVE"
);
},
{
closed = 1;
nodes = (
"390 760 LINE",
"527 966 LINE",
"527 981 LINE",
"487 981 LINE",
"370 760 LINE"
);
}
);
};
components = (
{
alignment = -1;
name = Ohorn;
},
{
alignment = -1;
name = acutecomb;
transform = "{1, 0, 0, 1, 340, 0}";
}
);
layerId = m002;
width = 780;
}
);
leftKerningGroup = O;
rightKerningGroup = O;
unicode = 1EDA;
},
{
glyphname = Ohorndotbelow;
lastChange = "2023-04-27 11:52:18 +0000";
layers = (
{
background = {
paths = (
{
closed = 1;
nodes = (
"734 475 OFFCURVE",
"750 417 OFFCURVE",
"750 350 CURVE",
"750 151 OFFCURVE",
"589 -10 OFFCURVE",
"390 -10 CURVE",
"191 -10 OFFCURVE",
"30 151 OFFCURVE",
"30 350 CURVE",
"30 549 OFFCURVE",
"191 710 OFFCURVE",
"390 710 CURVE SMOOTH",
"535 710 OFFCURVE",
"609 636 OFFCURVE",
"627 584 CURVE",
"637 584 LINE",
"653 615 OFFCURVE",
"659 647 OFFCURVE",
"659 700 CURVE",
"749 700 LINE",
"749 634 OFFCURVE",
"741 577 OFFCURVE",
"702 529 CURVE"
);
},
{
closed = 1;
nodes = (
"601 467 OFFCURVE",
"507 561 OFFCURVE",
"390 561 CURVE",
"274 561 OFFCURVE",
"180 467 OFFCURVE",
"180 350 CURVE",
"180 234 OFFCURVE",
"274 140 OFFCURVE",
"390 140 CURVE",
"507 140 OFFCURVE",
"601 234 OFFCURVE",
"601 350 CURVE"
);
},
{
closed = 1;
nodes = (
"470 -46 LINE",
"470 -137 LINE",
"310 -137 LINE",
"310 -46 LINE"
);
}
);
};
components = (
{
alignment = -1;
name = Ohorn;
},
{
alignment = -1;
name = dotbelowcomb;
transform = "{1, 0, 0, 1, 280, 0}";
}
);
layerId = "96BCCF85-5232-4835-A4EF-A1D5F093B6B0";
width = 780;
},
{
background = {
paths = (
{
closed = 1;
nodes = (
"734 475 OFFCURVE",
"750 417 OFFCURVE",
"750 350 CURVE",
"750 151 OFFCURVE",
"589 -10 OFFCURVE",
"390 -10 CURVE",
"191 -10 OFFCURVE",
"30 151 OFFCURVE",
"30 350 CURVE",
"30 549 OFFCURVE",
"191 710 OFFCURVE",
"390 710 CURVE SMOOTH",
"535 710 OFFCURVE",
"609 636 OFFCURVE",
"627 584 CURVE",
"637 584 LINE",
"653 615 OFFCURVE",
"659 647 OFFCURVE",
"659 700 CURVE",
"749 700 LINE",
"749 634 OFFCURVE",
"741 577 OFFCURVE",
"702 529 CURVE"
);
},
{
closed = 1;
nodes = (
"601 467 OFFCURVE",
"507 561 OFFCURVE",
"390 561 CURVE",
"274 561 OFFCURVE",
"180 467 OFFCURVE",
"180 350 CURVE",
"180 234 OFFCURVE",
"274 140 OFFCURVE",
"390 140 CURVE",
"507 140 OFFCURVE",
"601 234 OFFCURVE",
"601 350 CURVE"
);
},
{
closed = 1;
nodes = (
"470 -46 LINE",
"470 -137 LINE",
"310 -137 LINE",
"310 -46 LINE"
);
}
);
};
components = (
{
alignment = -1;
name = Ohorn;
},
{
alignment = -1;
name = dotbelowcomb;
transform = "{1, 0, 0, 1, 280, 0}";
}
);
layerId = m002;
width = 780;
}
);
leftKerningGroup = O;
rightKerningGroup = O;
unicode = 1EE2;
},
{
glyphname = Ohorngrave;
lastChange = "2023-04-27 11:52:18 +0000";
layers = (
{
background = {
paths = (
{
closed = 1;
nodes = (
"734 475 OFFCURVE",
"750 417 OFFCURVE",
"750 350 CURVE",
"750 151 OFFCURVE",
"589 -10 OFFCURVE",
"390 -10 CURVE",
"191 -10 OFFCURVE",
"30 151 OFFCURVE",
"30 350 CURVE",
"30 549 OFFCURVE",
"191 710 OFFCURVE",
"390 710 CURVE SMOOTH",
"535 710 OFFCURVE",
"609 636 OFFCURVE",
"627 584 CURVE",
"637 584 LINE",
"653 615 OFFCURVE",
"659 647 OFFCURVE",
"659 700 CURVE",
"749 700 LINE",
"749 634 OFFCURVE",
"741 577 OFFCURVE",
"702 529 CURVE"
);
},
{
closed = 1;
nodes = (
"601 467 OFFCURVE",
"507 561 OFFCURVE",
"390 561 CURVE",
"274 561 OFFCURVE",
"180 467 OFFCURVE",
"180 350 CURVE",
"180 234 OFFCURVE",
"274 140 OFFCURVE",
"390 140 CURVE",
"507 140 OFFCURVE",
"601 234 OFFCURVE",
"601 350 CURVE"
);
},
{
closed = 1;
nodes = (
"217 848 LINE",
"209 805 LINE",
"563 740 LINE",
"571 783 LINE"
);
}
);
};
components = (
{
alignment = -1;
name = Ohorn;
},
{
alignment = -1;
name = gravecomb;
transform = "{1, 0, 0, 1, 179, -20}";
}
);
layerId = "96BCCF85-5232-4835-A4EF-A1D5F093B6B0";
width = 780;
},
{
background = {
paths = (
{
closed = 1;
nodes = (
"734 475 OFFCURVE",
"750 417 OFFCURVE",
"750 350 CURVE",
"750 151 OFFCURVE",
"589 -10 OFFCURVE",
"390 -10 CURVE",
"191 -10 OFFCURVE",
"30 151 OFFCURVE",
"30 350 CURVE",
"30 549 OFFCURVE",
"191 710 OFFCURVE",
"390 710 CURVE SMOOTH",
"535 710 OFFCURVE",
"609 636 OFFCURVE",
"627 584 CURVE",
"637 584 LINE",
"653 615 OFFCURVE",
"659 647 OFFCURVE",
"659 700 CURVE",
"749 700 LINE",
"749 634 OFFCURVE",
"741 577 OFFCURVE",
"702 529 CURVE"
);
},
{
closed = 1;
nodes = (
"601 467 OFFCURVE",
"507 561 OFFCURVE",
"390 561 CURVE",
"274 561 OFFCURVE",
"180 467 OFFCURVE",
"180 350 CURVE",
"180 234 OFFCURVE",
"274 140 OFFCURVE",
"390 140 CURVE",
"507 140 OFFCURVE",
"601 234 OFFCURVE",
"601 350 CURVE"
);
},
{
closed = 1;
nodes = (
"352 981 LINE",
"312 981 LINE",
"312 966 LINE",
"449 760 LINE",
"469 760 LINE"
);
}
);
};
components = (
{
alignment = -1;
name = Ohorn;
},
{
alignment = -1;
name = gravecomb;
transform = "{1, 0, 0, 1, 282, 0}";
}
);
layerId = m002;
width = 780;
}
);
leftKerningGroup = O;
rightKerningGroup = O;
unicode = 1EDC;
},
{
glyphname = Ohornhookabove;
lastChange = "2023-04-27 11:52:18 +0000";
layers = (
{
background = {
paths = (
{
closed = 1;
nodes = (
"734 475 OFFCURVE",
"750 417 OFFCURVE",
"750 350 CURVE",
"750 151 OFFCURVE",
"589 -10 OFFCURVE",
"390 -10 CURVE",
"191 -10 OFFCURVE",
"30 151 OFFCURVE",
"30 350 CURVE",
"30 549 OFFCURVE",
"191 710 OFFCURVE",
"390 710 CURVE SMOOTH",
"535 710 OFFCURVE",
"609 636 OFFCURVE",
"627 584 CURVE",
"637 584 LINE",
"653 615 OFFCURVE",
"659 647 OFFCURVE",
"659 700 CURVE",
"749 700 LINE",
"749 634 OFFCURVE",
"741 577 OFFCURVE",
"702 529 CURVE"
);
},
{
closed = 1;
nodes = (
"601 467 OFFCURVE",
"507 561 OFFCURVE",
"390 561 CURVE",
"274 561 OFFCURVE",
"180 467 OFFCURVE",
"180 350 CURVE",
"180 234 OFFCURVE",
"274 140 OFFCURVE",
"390 140 CURVE",
"507 140 OFFCURVE",
"601 234 OFFCURVE",
"601 350 CURVE"
);
},
{
closed = 1;
nodes = (
"433 750 LINE",
"433 795 OFFCURVE",
"522 763 OFFCURVE",
"522 838 CURVE SMOOTH",
"522 886 OFFCURVE",
"471 916 OFFCURVE",
"406 916 CURVE SMOOTH",
"340 916 OFFCURVE",
"289 886 OFFCURVE",
"289 838 CURVE SMOOTH",
"289 828 LINE",
"339 828 LINE",
"339 836 LINE SMOOTH",
"339 864 OFFCURVE",
"378 871 OFFCURVE",
"406 871 CURVE SMOOTH",
"433 871 OFFCURVE",
"472 864 OFFCURVE",
"472 838 CURVE SMOOTH",
"472 799 OFFCURVE",
"378 822 OFFCURVE",
"378 750 CURVE"
);
}
);
};
components = (
{
alignment = -1;
name = Ohorn;
},
{
alignment = -1;
name = hookabovecomb;
transform = "{1, 0, 0, 1, 289, -40}";
}
);
layerId = "96BCCF85-5232-4835-A4EF-A1D5F093B6B0";
width = 780;
},
{
background = {
paths = (
{
closed = 1;
nodes = (
"734 475 OFFCURVE",
"750 417 OFFCURVE",
"750 350 CURVE",
"750 151 OFFCURVE",
"589 -10 OFFCURVE",
"390 -10 CURVE",
"191 -10 OFFCURVE",
"30 151 OFFCURVE",
"30 350 CURVE",
"30 549 OFFCURVE",
"191 710 OFFCURVE",
"390 710 CURVE SMOOTH",
"535 710 OFFCURVE",
"609 636 OFFCURVE",
"627 584 CURVE",
"637 584 LINE",
"653 615 OFFCURVE",
"659 647 OFFCURVE",
"659 700 CURVE",
"749 700 LINE",
"749 634 OFFCURVE",
"741 577 OFFCURVE",
"702 529 CURVE"
);
},
{
closed = 1;
nodes = (
"601 467 OFFCURVE",
"507 561 OFFCURVE",
"390 561 CURVE",
"274 561 OFFCURVE",
"180 467 OFFCURVE",
"180 350 CURVE",
"180 234 OFFCURVE",
"274 140 OFFCURVE",
"390 140 CURVE",
"507 140 OFFCURVE",
"601 234 OFFCURVE",
"601 350 CURVE"
);
},
{
closed = 1;
nodes = (
"456 907 LINE SMOOTH",
"476 964 OFFCURVE",
"433 1010 OFFCURVE",
"385 1004 CURVE SMOOTH",
"334 998 OFFCURVE",
"306 948 OFFCURVE",
"325 896 CURVE",
"356 900 LINE",
"342 945 OFFCURVE",
"365 966 OFFCURVE",
"386 968 CURVE SMOOTH",
"412 971 OFFCURVE",
"439 950 OFFCURVE",
"424 907 CURVE SMOOTH",
"373 760 LINE",
"403 760 LINE"
);
}
);
};
components = (
{
alignment = -1;
name = Ohorn;
},
{
alignment = -1;
name = hookabovecomb;
transform = "{1, 0, 0, 1, 289, -30}";
}
);
layerId = m002;
width = 780;
}
);
leftKerningGroup = O;
rightKerningGroup = O;
unicode = 1EDE;
},
{
glyphname = Ohorntilde;
lastChange = "2023-04-27 11:52:18 +0000";
layers = (
{
background = {
paths = (
{
closed = 1;
nodes = (
"734 475 OFFCURVE",
"750 417 OFFCURVE",
"750 350 CURVE",
"750 151 OFFCURVE",
"589 -10 OFFCURVE",
"390 -10 CURVE",
"191 -10 OFFCURVE",
"30 151 OFFCURVE",
"30 350 CURVE",
"30 549 OFFCURVE",
"191 710 OFFCURVE",
"390 710 CURVE SMOOTH",
"535 710 OFFCURVE",
"609 636 OFFCURVE",
"627 584 CURVE",
"637 584 LINE",
"653 615 OFFCURVE",
"659 647 OFFCURVE",
"659 700 CURVE",
"749 700 LINE",
"749 634 OFFCURVE",
"741 577 OFFCURVE",
"702 529 CURVE"
);
},
{
closed = 1;
nodes = (
"601 467 OFFCURVE",
"507 561 OFFCURVE",
"390 561 CURVE",
"274 561 OFFCURVE",
"180 467 OFFCURVE",
"180 350 CURVE",
"180 234 OFFCURVE",
"274 140 OFFCURVE",
"390 140 CURVE",
"507 140 OFFCURVE",
"601 234 OFFCURVE",
"601 350 CURVE"
);
},
{
closed = 1;
nodes = (
"250 748 LINE",
"253 781 OFFCURVE",
"271 813 OFFCURVE",
"312 816 CURVE SMOOTH",
"363 820 OFFCURVE",
"402 757 OFFCURVE",
"470 748 CURVE SMOOTH",
"536 739 OFFCURVE",
"576 772 OFFCURVE",
"576 845 CURVE",
"530 845 LINE",
"530 809 OFFCURVE",
"519 773 OFFCURVE",
"464 792 CURVE SMOOTH",
"416 809 OFFCURVE",
"376 861 OFFCURVE",
"306 856 CURVE SMOOTH",
"227 850 OFFCURVE",
"204 784 OFFCURVE",
"204 748 CURVE"
);
}
);
};
components = (
{
alignment = -1;
name = Ohorn;
},
{
alignment = -1;
name = tildecomb;
transform = "{1, 0, 0, 1, 170, -40}";
}
);
layerId = "96BCCF85-5232-4835-A4EF-A1D5F093B6B0";
width = 780;
},
{
background = {
paths = (
{
closed = 1;
nodes = (
"734 475 OFFCURVE",
"750 417 OFFCURVE",
"750 350 CURVE",
"750 151 OFFCURVE",
"589 -10 OFFCURVE",
"390 -10 CURVE",
"191 -10 OFFCURVE",
"30 151 OFFCURVE",
"30 350 CURVE",
"30 549 OFFCURVE",
"191 710 OFFCURVE",
"390 710 CURVE SMOOTH",
"535 710 OFFCURVE",
"609 636 OFFCURVE",
"627 584 CURVE",
"637 584 LINE",
"653 615 OFFCURVE",
"659 647 OFFCURVE",
"659 700 CURVE",
"749 700 LINE",
"749 634 OFFCURVE",
"741 577 OFFCURVE",
"702 529 CURVE"
);
},
{
closed = 1;
nodes = (
"601 467 OFFCURVE",
"507 561 OFFCURVE",
"390 561 CURVE",
"274 561 OFFCURVE",
"180 467 OFFCURVE",
"180 350 CURVE",
"180 234 OFFCURVE",
"274 140 OFFCURVE",
"390 140 CURVE",
"507 140 OFFCURVE",
"601 234 OFFCURVE",
"601 350 CURVE"
);
},
{
closed = 1;
nodes = (
"230 760 LINE",
"230 793 OFFCURVE",
"255 826 OFFCURVE",
"301 824 CURVE SMOOTH",
"360 821 OFFCURVE",
"417 768 OFFCURVE",
"492 760 CURVE SMOOTH",
"539 755 OFFCURVE",
"580 784 OFFCURVE",
"580 850 CURVE",
"550 850 LINE",
"550 821 OFFCURVE",
"547 778 OFFCURVE",
"479 788 CURVE SMOOTH",
"431 795 OFFCURVE",
"378 842 OFFCURVE",
"306 850 CURVE SMOOTH",
"235 858 OFFCURVE",
"200 796 OFFCURVE",
"200 760 CURVE"
);
}
);
};
components = (
{
alignment = -1;
name = Ohorn;
},
{
alignment = -1;
name = tildecomb;
transform = "{1, 0, 0, 1, 170, -28}";
}
);
layerId = m002;
width = 780;
}
);
leftKerningGroup = O;
rightKerningGroup = O;
unicode = 1EE0;
},
{
glyphname = Ohungarumlaut;
lastChange = "2023-04-27 11:52:18 +0000";
layers = (
{
background = {
paths = (
{
closed = 1;
nodes = (
"180 710 OFFCURVE",
"30 554 OFFCURVE",
"30 350 CURVE SMOOTH",
"30 146 OFFCURVE",
"180 -10 OFFCURVE",
"390 -10 CURVE SMOOTH",
"599 -10 OFFCURVE",
"750 146 OFFCURVE",
"750 350 CURVE SMOOTH",
"750 554 OFFCURVE",
"599 710 OFFCURVE",
"390 710 CURVE SMOOTH"
);
},
{
closed = 1;
nodes = (
"618 220 OFFCURVE",
"523 122 OFFCURVE",
"390 122 CURVE SMOOTH",
"255 122 OFFCURVE",
"160 220 OFFCURVE",
"160 350 CURVE SMOOTH",
"160 482 OFFCURVE",
"255 580 OFFCURVE",
"390 580 CURVE SMOOTH",
"523 580 OFFCURVE",
"618 482 OFFCURVE",
"618 350 CURVE SMOOTH"
);
},
{
closed = 1;
nodes = (
"334 760 LINE",
"467 926 LINE",
"432 949 LINE",
"300 783 LINE"
);
},
{
closed = 1;
nodes = (
"467 760 LINE",
"600 926 LINE",
"565 949 LINE",
"433 783 LINE"
);
}
);
};
components = (
{
alignment = -1;
name = O.big;
},
{
alignment = -1;
name = hungarumlautcomb;
transform = "{1, 0, 0, 1, 270, 0}";
}
);
layerId = "96BCCF85-5232-4835-A4EF-A1D5F093B6B0";
width = 780;
},
{
background = {
paths = (
{
closed = 1;
nodes = (
"180 710 OFFCURVE",
"30 554 OFFCURVE",
"30 350 CURVE SMOOTH",
"30 146 OFFCURVE",
"180 -10 OFFCURVE",
"390 -10 CURVE SMOOTH",
"599 -10 OFFCURVE",
"750 146 OFFCURVE",
"750 350 CURVE SMOOTH",
"750 554 OFFCURVE",
"599 710 OFFCURVE",
"390 710 CURVE SMOOTH"
);
},
{
closed = 1;
nodes = (
"618 220 OFFCURVE",
"523 122 OFFCURVE",
"390 122 CURVE SMOOTH",
"255 122 OFFCURVE",
"160 220 OFFCURVE",
"160 350 CURVE SMOOTH",
"160 482 OFFCURVE",
"255 580 OFFCURVE",
"390 580 CURVE SMOOTH",
"523 580 OFFCURVE",
"618 482 OFFCURVE",
"618 350 CURVE SMOOTH"
);
},
{
closed = 1;
nodes = (
"331 760 LINE",
"468 966 LINE",
"468 981 LINE",
"428 981 LINE",
"311 760 LINE"
);
},
{
closed = 1;
nodes = (
"468 760 LINE",
"605 966 LINE",
"605 981 LINE",
"565 981 LINE",
"448 760 LINE"
);
}
);
};
components = (
{
alignment = -1;
name = O.big;
},
{
alignment = -1;
name = hungarumlautcomb;
transform = "{1, 0, 0, 1, 281, 0}";
}
);
layerId = m002;
width = 780;
}
);
leftKerningGroup = O;
rightKerningGroup = O;
unicode = 0150;
},
{
glyphname = Omacron;
lastChange = "2023-04-27 11:52:18 +0000";
layers = (
{
background = {
paths = (
{
closed = 1;
nodes = (
"180 710 OFFCURVE",
"30 554 OFFCURVE",
"30 350 CURVE SMOOTH",
"30 146 OFFCURVE",
"180 -10 OFFCURVE",
"390 -10 CURVE SMOOTH",
"599 -10 OFFCURVE",
"750 146 OFFCURVE",
"750 350 CURVE SMOOTH",
"750 554 OFFCURVE",
"599 710 OFFCURVE",
"390 710 CURVE SMOOTH"
);
},
{
closed = 1;
nodes = (
"618 220 OFFCURVE",
"523 122 OFFCURVE",
"390 122 CURVE SMOOTH",
"255 122 OFFCURVE",
"160 220 OFFCURVE",
"160 350 CURVE SMOOTH",
"160 482 OFFCURVE",
"255 580 OFFCURVE",
"390 580 CURVE SMOOTH",
"523 580 OFFCURVE",
"618 482 OFFCURVE",
"618 350 CURVE SMOOTH"
);
},
{
closed = 1;
nodes = (
"593 760 LINE",
"593 804 LINE",
"188 804 LINE",
"188 760 LINE"
);
}
);
};
components = (
{
alignment = -1;
name = O.big;
},
{
alignment = -1;
name = macroncomb;
transform = "{1, 0, 0, 1, 98, 0}";
}
);
layerId = "96BCCF85-5232-4835-A4EF-A1D5F093B6B0";
width = 780;
},
{
background = {
paths = (
{
closed = 1;
nodes = (
"180 710 OFFCURVE",
"30 554 OFFCURVE",
"30 350 CURVE SMOOTH",
"30 146 OFFCURVE",
"180 -10 OFFCURVE",
"390 -10 CURVE SMOOTH",
"599 -10 OFFCURVE",
"750 146 OFFCURVE",
"750 350 CURVE SMOOTH",
"750 554 OFFCURVE",
"599 710 OFFCURVE",
"390 710 CURVE SMOOTH"
);
},
{
closed = 1;
nodes = (
"618 220 OFFCURVE",
"523 122 OFFCURVE",
"390 122 CURVE SMOOTH",
"255 122 OFFCURVE",
"160 220 OFFCURVE",
"160 350 CURVE SMOOTH",
"160 482 OFFCURVE",
"255 580 OFFCURVE",
"390 580 CURVE SMOOTH",
"523 580 OFFCURVE",
"618 482 OFFCURVE",
"618 350 CURVE SMOOTH"
);
},
{
closed = 1;
nodes = (
"652 760 LINE",
"652 790 LINE",
"127 790 LINE",
"127 760 LINE"
);
}
);
};
components = (
{
alignment = -1;
name = O.big;
},
{
alignment = -1;
name = macroncomb;
transform = "{1, 0, 0, 1, 97, 0}";
}
);
layerId = m002;
width = 780;
}
);
leftKerningGroup = O;
rightKerningGroup = O;
unicode = 014C;
},
{
glyphname = Oslash;
lastChange = "2023-04-27 11:52:18 +0000";
layers = (
{
background = {
paths = (
{
closed = 1;
nodes = (
"117 -10 LINE",
"153 -10 LINE",
"663 710 LINE",
"628 710 LINE"
);
},
{
closed = 1;
nodes = (
"180 710 OFFCURVE",
"30 554 OFFCURVE",
"30 350 CURVE SMOOTH",
"30 146 OFFCURVE",
"180 -10 OFFCURVE",
"390 -10 CURVE SMOOTH",
"599 -10 OFFCURVE",
"750 146 OFFCURVE",
"750 350 CURVE SMOOTH",
"750 554 OFFCURVE",
"599 710 OFFCURVE",
"390 710 CURVE SMOOTH"
);
},
{
closed = 1;
nodes = (
"618 220 OFFCURVE",
"523 122 OFFCURVE",
"390 122 CURVE SMOOTH",
"255 122 OFFCURVE",
"160 220 OFFCURVE",
"160 350 CURVE SMOOTH",
"160 482 OFFCURVE",
"255 580 OFFCURVE",
"390 580 CURVE SMOOTH",
"523 580 OFFCURVE",
"618 482 OFFCURVE",
"618 350 CURVE SMOOTH"
);
}
);
};
components = (
{
alignment = -1;
name = O.big;
}
);
layerId = "96BCCF85-5232-4835-A4EF-A1D5F093B6B0";
paths = (
{
closed = 1;
nodes = (
"117 -10 LINE",
"153 -10 LINE",
"663 710 LINE",
"628 710 LINE"
);
}
);
width = 780;
},
{
background = {
paths = (
{
closed = 1;
nodes = (
"117 -10 LINE",
"153 -10 LINE",
"663 710 LINE",
"628 710 LINE"
);
},
{
closed = 1;
nodes = (
"180 710 OFFCURVE",
"30 554 OFFCURVE",
"30 350 CURVE SMOOTH",
"30 146 OFFCURVE",
"180 -10 OFFCURVE",
"390 -10 CURVE SMOOTH",
"599 -10 OFFCURVE",
"750 146 OFFCURVE",
"750 350 CURVE SMOOTH",
"750 554 OFFCURVE",
"599 710 OFFCURVE",
"390 710 CURVE SMOOTH"
);
},
{
closed = 1;
nodes = (
"618 220 OFFCURVE",
"523 122 OFFCURVE",
"390 122 CURVE SMOOTH",
"255 122 OFFCURVE",
"160 220 OFFCURVE",
"160 350 CURVE SMOOTH",
"160 482 OFFCURVE",
"255 580 OFFCURVE",
"390 580 CURVE SMOOTH",
"523 580 OFFCURVE",
"618 482 OFFCURVE",
"618 350 CURVE SMOOTH"
);
}
);
};
components = (
{
alignment = -1;
name = O.big;
}
);
layerId = m002;
paths = (
{
closed = 1;
nodes = (
"117 -10 LINE",
"153 -10 LINE",
"663 710 LINE",
"628 710 LINE"
);
}
);
width = 780;
}
);
leftKerningGroup = O;
rightKerningGroup = O;
unicode = 00D8;
},
{
glyphname = Otilde;
lastChange = "2023-04-27 11:52:18 +0000";
layers = (
{
background = {
paths = (
{
closed = 1;
nodes = (
"180 710 OFFCURVE",
"30 554 OFFCURVE",
"30 350 CURVE SMOOTH",
"30 146 OFFCURVE",
"180 -10 OFFCURVE",
"390 -10 CURVE SMOOTH",
"599 -10 OFFCURVE",
"750 146 OFFCURVE",
"750 350 CURVE SMOOTH",
"750 554 OFFCURVE",
"599 710 OFFCURVE",
"390 710 CURVE SMOOTH"
);
},
{
closed = 1;
nodes = (
"618 220 OFFCURVE",
"523 122 OFFCURVE",
"390 122 CURVE SMOOTH",
"255 122 OFFCURVE",
"160 220 OFFCURVE",
"160 350 CURVE SMOOTH",
"160 482 OFFCURVE",
"255 580 OFFCURVE",
"390 580 CURVE SMOOTH",
"523 580 OFFCURVE",
"618 482 OFFCURVE",
"618 350 CURVE SMOOTH"
);
},
{
closed = 1;
nodes = (
"250 748 LINE",
"253 781 OFFCURVE",
"271 813 OFFCURVE",
"312 816 CURVE SMOOTH",
"363 820 OFFCURVE",
"402 757 OFFCURVE",
"470 748 CURVE SMOOTH",
"536 739 OFFCURVE",
"576 772 OFFCURVE",
"576 845 CURVE",
"530 845 LINE",
"530 809 OFFCURVE",
"519 773 OFFCURVE",
"464 792 CURVE SMOOTH",
"416 809 OFFCURVE",
"376 861 OFFCURVE",
"306 856 CURVE SMOOTH",
"227 850 OFFCURVE",
"204 784 OFFCURVE",
"204 748 CURVE"
);
}
);
};
components = (
{
alignment = -1;
name = O.big;
},
{
alignment = -1;
name = tildecomb;
transform = "{1, 0, 0, 1, 170, -40}";
}
);
layerId = "96BCCF85-5232-4835-A4EF-A1D5F093B6B0";
width = 780;
},
{
background = {
paths = (
{
closed = 1;
nodes = (
"180 710 OFFCURVE",
"30 554 OFFCURVE",
"30 350 CURVE SMOOTH",
"30 146 OFFCURVE",
"180 -10 OFFCURVE",
"390 -10 CURVE SMOOTH",
"599 -10 OFFCURVE",
"750 146 OFFCURVE",
"750 350 CURVE SMOOTH",
"750 554 OFFCURVE",
"599 710 OFFCURVE",
"390 710 CURVE SMOOTH"
);
},
{
closed = 1;
nodes = (
"618 220 OFFCURVE",
"523 122 OFFCURVE",
"390 122 CURVE SMOOTH",
"255 122 OFFCURVE",
"160 220 OFFCURVE",
"160 350 CURVE SMOOTH",
"160 482 OFFCURVE",
"255 580 OFFCURVE",
"390 580 CURVE SMOOTH",
"523 580 OFFCURVE",
"618 482 OFFCURVE",
"618 350 CURVE SMOOTH"
);
},
{
closed = 1;
nodes = (
"230 760 LINE",
"230 793 OFFCURVE",
"255 826 OFFCURVE",
"301 824 CURVE SMOOTH",
"360 821 OFFCURVE",
"417 768 OFFCURVE",
"492 760 CURVE SMOOTH",
"539 755 OFFCURVE",
"580 784 OFFCURVE",
"580 850 CURVE",
"550 850 LINE",
"550 821 OFFCURVE",
"547 778 OFFCURVE",
"479 788 CURVE SMOOTH",
"431 795 OFFCURVE",
"378 842 OFFCURVE",
"306 850 CURVE SMOOTH",
"235 858 OFFCURVE",
"200 796 OFFCURVE",
"200 760 CURVE"
);
}
);
};
components = (
{
alignment = -1;
name = O.big;
},
{
alignment = -1;
name = tildecomb;
transform = "{1, 0, 0, 1, 170, -28}";
}
);
layerId = m002;
width = 780;
}
);
leftKerningGroup = O;
rightKerningGroup = O;
unicode = 00D5;
},
{
glyphname = OE;
lastChange = "2023-04-27 11:52:59 +0000";
layers = (
{
anchors = (
{
name = bottom;
position = "{271, 0}";
},
{
name = top;
position = "{271, 700}";
}
);
background = {
paths = (
{
closed = 1;
nodes = (
"301 0 OFFCURVE",
"380 78 OFFCURVE",
"380 175 CURVE",
"380 525 LINE",
"380 622 OFFCURVE",
"301 700 OFFCURVE",
"205 700 CURVE",
"108 700 OFFCURVE",
"30 622 OFFCURVE",
"30 525 CURVE",
"30 175 LINE",
"30 78 OFFCURVE",
"108 0 OFFCURVE",
"205 0 CURVE"
);
},
{
closed = 1;
nodes = (
"190 132 OFFCURVE",
"179 143 OFFCURVE",
"179 157 CURVE",
"179 544 LINE",
"179 558 OFFCURVE",
"190 570 OFFCURVE",
"205 570 CURVE",
"219 570 OFFCURVE",
"230 558 OFFCURVE",
"230 544 CURVE",
"230 157 LINE",
"230 143 OFFCURVE",
"219 132 OFFCURVE",
"205 132 CURVE"
);
},
{
closed = 1;
nodes = (
"511 0 LINE",
"511 129 LINE",
"380 129 LINE",
"380 275 LINE",
"467 275 LINE",
"467 425 LINE",
"380 425 LINE",
"380 570 LINE",
"511 570 LINE",
"511 700 LINE",
"205 700 LINE",
"231 685 LINE",
"231 15 LINE",
"205 0 LINE"
);
}
);
};
layerId = "96BCCF85-5232-4835-A4EF-A1D5F093B6B0";
paths = (
{
closed = 1;
nodes = (
"301 0 OFFCURVE",
"380 78 OFFCURVE",
"380 175 CURVE",
"380 525 LINE",
"380 622 OFFCURVE",
"301 700 OFFCURVE",
"205 700 CURVE",
"108 700 OFFCURVE",
"30 622 OFFCURVE",
"30 525 CURVE",
"30 175 LINE",
"30 78 OFFCURVE",
"108 0 OFFCURVE",
"205 0 CURVE"
);
},
{
closed = 1;
nodes = (
"190 132 OFFCURVE",
"179 143 OFFCURVE",
"179 157 CURVE",
"179 544 LINE",
"179 558 OFFCURVE",
"190 570 OFFCURVE",
"205 570 CURVE",
"219 570 OFFCURVE",
"230 558 OFFCURVE",
"230 544 CURVE",
"230 157 LINE",
"230 143 OFFCURVE",
"219 132 OFFCURVE",
"205 132 CURVE"
);
},
{
closed = 1;
nodes = (
"511 0 LINE",
"511 129 LINE",
"380 129 LINE",
"380 275 LINE",
"467 275 LINE",
"467 425 LINE",
"380 425 LINE",
"380 570 LINE",
"511 570 LINE",
"511 700 LINE",
"205 700 LINE",
"231 685 LINE",
"231 15 LINE",
"205 0 LINE"
);
}
);
width = 541;
},
{
anchors = (
{
name = bottom;
position = "{271, 0}";
},
{
name = top;
position = "{271, 700}";
}
);
background = {
paths = (
{
closed = 1;
nodes = (
"301 0 OFFCURVE",
"380 78 OFFCURVE",
"380 175 CURVE",
"380 525 LINE",
"380 622 OFFCURVE",
"301 700 OFFCURVE",
"205 700 CURVE",
"108 700 OFFCURVE",
"30 622 OFFCURVE",
"30 525 CURVE",
"30 175 LINE",
"30 78 OFFCURVE",
"108 0 OFFCURVE",
"205 0 CURVE"
);
},
{
closed = 1;
nodes = (
"190 132 OFFCURVE",
"179 143 OFFCURVE",
"179 157 CURVE",
"179 544 LINE",
"179 558 OFFCURVE",
"190 570 OFFCURVE",
"205 570 CURVE",
"219 570 OFFCURVE",
"230 558 OFFCURVE",
"230 544 CURVE",
"230 157 LINE",
"230 143 OFFCURVE",
"219 132 OFFCURVE",
"205 132 CURVE"
);
},
{
closed = 1;
nodes = (
"511 0 LINE",
"511 129 LINE",
"380 129 LINE",
"380 275 LINE",
"467 275 LINE",
"467 425 LINE",
"380 425 LINE",
"380 570 LINE",
"511 570 LINE",
"511 700 LINE",
"205 700 LINE",
"231 685 LINE",
"231 15 LINE",
"205 0 LINE"
);
}
);
};
layerId = m002;
paths = (
{
closed = 1;
nodes = (
"301 0 OFFCURVE",
"380 78 OFFCURVE",
"380 175 CURVE",
"380 525 LINE",
"380 622 OFFCURVE",
"301 700 OFFCURVE",
"205 700 CURVE",
"108 700 OFFCURVE",
"30 622 OFFCURVE",
"30 525 CURVE",
"30 175 LINE",
"30 78 OFFCURVE",
"108 0 OFFCURVE",
"205 0 CURVE"
);
},
{
closed = 1;
nodes = (
"190 132 OFFCURVE",
"179 143 OFFCURVE",
"179 157 CURVE",
"179 544 LINE",
"179 558 OFFCURVE",
"190 570 OFFCURVE",
"205 570 CURVE",
"219 570 OFFCURVE",
"230 558 OFFCURVE",
"230 544 CURVE",
"230 157 LINE",
"230 143 OFFCURVE",
"219 132 OFFCURVE",
"205 132 CURVE"
);
},
{
closed = 1;
nodes = (
"511 0 LINE",
"511 129 LINE",
"380 129 LINE",
"380 275 LINE",
"467 275 LINE",
"467 425 LINE",
"380 425 LINE",
"380 570 LINE",
"511 570 LINE",
"511 700 LINE",
"205 700 LINE",
"231 685 LINE",
"231 15 LINE",
"205 0 LINE"
);
}
);
width = 541;
}
);
leftKerningGroup = o;
rightKerningGroup = e;
unicode = 0152;
},
